<svg width="317" height="95" viewBox="0 0 317 95" fill="none" xmlns="http://www.w3.org/2000/svg">
<path d="M17.9082 15.111C18.8365 13.8951 19.2063 12.708 19.0177 11.5496C18.8291 10.3911 18.2549 9.17184 17.2951 7.89167C16.5657 6.91875 15.705 6.18419 14.7131 5.68802C13.7436 5.19505 12.6956 5.01086 11.5692 5.13547C10.4524 5.27287 9.33708 5.75907 8.22334 6.59408C7.10959 7.42908 6.33022 8.36334 5.88524 9.39686C5.44986 10.4432 5.32647 11.5056 5.51508 12.584C5.72609 13.6656 6.19631 14.6929 6.92574 15.6658C7.90471 16.9716 8.94135 17.8742 10.0357 18.3736C11.1428 18.8634 12.4324 18.7964 13.9045 18.1727L14.5523 19.0368C12.613 19.9709 10.8545 20.2393 9.277 19.8423C7.70907 19.458 6.34924 18.4977 5.19751 16.9615C4.31452 15.7838 3.80914 14.5229 3.68138 13.1789C3.57601 11.8381 3.84984 10.5229 4.50287 9.23342C5.1687 7.93434 6.19291 6.76652 7.57549 5.72996C8.95807 4.6934 10.3598 4.04245 11.7806 3.7771C13.2143 3.50215 14.5535 3.60799 15.7982 4.09461C17.0653 4.58443 18.1403 5.41822 19.0233 6.59598C20.1559 8.10658 20.7012 9.64747 20.6593 11.2187C20.627 12.8027 19.926 14.3881 18.5561 15.9751L17.9082 15.111ZM14.8081 28.8843C13.573 27.4776 13.0385 26.02 13.2045 24.5116C13.3705 23.0031 14.1749 21.6155 15.6177 20.3487C17.0605 19.0819 18.5405 18.4638 20.0578 18.4944C21.575 18.5249 22.9512 19.2435 24.1863 20.6502C25.4214 22.057 25.956 23.5146 25.79 25.023C25.624 26.5315 24.8195 27.9191 23.3767 29.1859C21.934 30.4526 20.4539 31.0708 18.9367 31.0402C17.4194 31.0097 16.0433 30.2911 14.8081 28.8843ZM16.4313 27.4592C17.4236 28.5894 18.4279 29.2725 19.4443 29.5086C20.4607 29.7447 21.534 29.3666 22.6642 28.3743C23.7944 27.382 24.3082 26.3666 24.2056 25.3282C24.1029 24.2899 23.5555 23.2056 22.5632 22.0754C21.5814 20.9572 20.5771 20.2741 19.5501 20.026C18.5337 19.7899 17.4605 20.168 16.3303 21.1603C15.2001 22.1526 14.6863 23.168 14.7889 24.2063C14.8915 25.2447 15.439 26.329 16.4313 27.4592ZM26.344 28.7802L31.932 34.4265L30.3968 35.9459L24.8087 30.2996L26.344 28.7802ZM30.8983 42.0974L31.9714 43.0932L30.5022 44.6766L27.4763 41.8687L28.9455 40.2854L30.001 41.2648L38.4899 32.1166L37.4343 31.1371L38.9035 29.5538L40.6804 31.2026L38.9137 33.4594L30.8983 42.0974ZM42.6052 35.8337C42.3891 35.6432 42.2658 35.396 42.2353 35.0918C42.2168 34.7982 42.3081 34.5374 42.5091 34.3094C42.6995 34.0933 42.9415 33.976 43.2351 33.9575C43.5406 33.9496 43.8015 34.0408 44.0175 34.2313C44.2336 34.4217 44.3509 34.6637 44.3694 34.9573C44.3999 35.2614 44.3199 35.5215 44.1295 35.7376C43.9285 35.9657 43.6752 36.0836 43.3696 36.0916C43.076 36.1101 42.8212 36.0241 42.6052 35.8337ZM40.4476 37.4831L41.2578 38.1972L33.3231 47.1995L32.5129 46.4854L40.4476 37.4831ZM44.296 40.7213L39.8477 50.9454L40.483 51.4575L49.5657 44.9682L50.9672 46.0977L40.2792 52.896L38.504 51.4654L42.8944 39.5918L44.296 40.7213ZM54.7179 45.5956C54.4859 45.4248 54.3414 45.1893 54.2844 44.889C54.2402 44.5982 54.3082 44.3304 54.4884 44.0856C54.6591 43.8536 54.8899 43.7156 55.1807 43.6714C55.4844 43.6367 55.7522 43.7047 55.9842 43.8754C56.2161 44.0461 56.3542 44.2769 56.3984 44.5677C56.4555 44.868 56.3986 45.1342 56.2279 45.3661C56.0477 45.6109 55.8057 45.7507 55.502 45.7854C55.2112 45.8296 54.9498 45.7663 54.7179 45.5956ZM52.7134 47.4279L53.5831 48.0682L46.4691 57.7321L45.5993 57.0918L52.7134 47.4279ZM59.8679 52.3594C61.3024 53.3229 62.0864 54.3796 62.2199 55.5294C62.3624 56.6659 61.8716 58.0709 60.7475 59.7444L57.2012 65.024L56.2051 64.3548L59.7514 59.0753C60.2867 58.2784 60.5664 57.5893 60.5906 57.0081C60.6237 56.4136 60.4702 55.896 60.1301 55.4555C59.8032 55.0239 59.3143 54.5896 58.6635 54.1524C57.9197 53.6528 57.262 53.2977 56.6903 53.0872C56.1318 52.8855 55.5505 52.8902 54.9462 53.1011C54.3553 53.3209 53.7788 53.8492 53.2167 54.6859L49.6704 59.9655L48.6544 59.283L55.3588 49.3017L56.1757 49.8504L54.7824 52.355L54.6754 52.5144C56.2643 51.1531 57.9952 51.1014 59.8679 52.3594ZM74.5879 61.3058L69.4174 70.2371C68.6077 71.6356 67.8072 72.6512 67.0157 73.2838C66.2243 73.9164 65.396 74.2134 64.531 74.1748C63.6579 74.15 62.6744 73.821 61.5805 73.1877C60.2235 72.4021 59.3653 71.4893 59.006 70.4494C58.6387 69.4232 58.5778 68.251 58.8234 66.9326L59.7504 67.2474C59.5434 68.052 59.6863 68.7633 60.179 69.3813C60.6716 69.9993 61.4995 70.645 62.6627 71.3183C63.5212 71.8154 64.2409 72.1211 64.8217 72.2355C65.3945 72.3637 65.9688 72.234 66.5445 71.8463C67.1123 71.4724 67.7168 70.7316 68.3581 69.6238L68.8992 68.6891C67.3709 70.1154 65.6929 70.2995 63.8651 69.2413C62.2312 68.2954 61.2564 67.121 60.9408 65.7181C60.6471 64.3093 61.0093 62.7257 62.0273 60.9671C63.0454 59.2086 64.2344 58.1128 65.5943 57.6799C66.9761 57.2411 68.4839 57.4947 70.1178 58.4407C71.9456 59.4988 72.6216 61.0456 72.1458 63.0811L72.1578 63.0603L73.7363 60.8128L74.5879 61.3058ZM64.9473 67.372C65.6951 67.8048 66.3663 68.0825 66.961 68.2049C67.5637 68.3135 68.1656 68.1998 68.7669 67.8638C69.3681 67.5278 69.9533 66.8683 70.5225 65.8851C71.0916 64.902 71.3722 64.0661 71.3642 63.3774C71.3561 62.6887 71.151 62.117 70.7487 61.6622C70.3544 61.1936 69.7834 60.7429 69.0356 60.31C67.7756 59.5805 66.6292 59.2774 65.5965 59.4005C64.5777 59.5317 63.6995 60.2343 62.962 61.5082C62.2245 62.7822 62.0525 63.8935 62.4461 64.8424C62.8535 65.7993 63.6873 66.6425 64.9473 67.372ZM74.2603 71.9832L75.2392 73.1816L69.5508 77.6382L68.5719 76.4398L74.2603 71.9832ZM101.865 74.0559C101.99 72.5314 101.66 71.3324 100.876 70.4591C100.092 69.5857 98.9505 68.8693 97.4515 68.3098C96.3123 67.8845 95.1912 67.7308 94.0884 67.8486C93.0062 67.957 92.0246 68.3676 91.1437 69.0806C90.2777 69.7991 89.6013 70.8104 89.1146 72.1146C88.6278 73.4187 88.476 74.6258 88.6594 75.736C88.8577 76.8518 89.3273 77.8127 90.0682 78.6187C90.8297 79.4153 91.7801 80.0262 92.9193 80.4515C94.4483 81.0222 95.8081 81.2224 96.9989 81.052C98.1952 80.8667 99.2447 80.1142 100.147 78.7945L101.159 79.1721C100.031 81.0053 98.6954 82.1806 97.1531 82.6979C95.6258 83.2208 93.9627 83.1465 92.164 82.4751C90.7849 81.9603 89.6788 81.1718 88.8458 80.1093C88.0333 79.0375 87.5539 77.7827 87.4075 76.3447C87.2667 74.8917 87.4985 73.3558 88.1027 71.7369C88.707 70.118 89.5356 68.8133 90.5884 67.823C91.6468 66.8176 92.8312 66.1838 94.1417 65.9215C95.4727 65.6499 96.8278 65.7714 98.2068 66.2862C99.9756 66.9464 101.266 67.9491 102.079 69.2943C102.907 70.6451 103.173 72.3582 102.877 74.4336L101.865 74.0559ZM106.703 87.279C104.901 86.7736 103.658 85.8434 102.974 84.4885C102.291 83.1336 102.208 81.5318 102.726 79.6832C103.245 77.8345 104.148 76.5092 105.437 75.7072C106.725 74.9053 108.27 74.7571 110.073 75.2625C111.875 75.768 113.118 76.6982 113.802 78.053C114.485 79.4079 114.568 81.0097 114.05 82.8584C113.531 84.7071 112.628 86.0324 111.339 86.8343C110.051 87.6362 108.506 87.7845 106.703 87.279ZM107.286 85.1992C108.734 85.6053 109.949 85.6302 110.93 85.2737C111.91 84.9172 112.604 84.0149 113.01 82.5668C113.416 81.1187 113.293 79.9874 112.64 79.173C111.988 78.3586 110.938 77.7484 109.49 77.3423C108.057 76.9406 106.842 76.9157 105.846 77.2679C104.866 77.6243 104.172 78.5266 103.766 79.9748C103.36 81.4229 103.483 82.5542 104.136 83.3685C104.788 84.1829 105.838 84.7932 107.286 85.1992ZM116.263 80.8819L124.037 82.5167L123.593 84.6305L115.819 82.9956L116.263 80.8819ZM141.076 81.2375L142.861 81.4727L137.747 92.9026L135.487 92.6047L134.019 83.3575L130.205 91.9085L127.944 91.6106L125.991 79.2494L127.775 79.4845L128.818 90.4912L129.627 90.5978L133.533 80.2434L135.318 80.4786L136.361 91.4852L137.17 91.5918L141.076 81.2375ZM148.343 93.9204C146.472 93.8406 145.05 93.2193 144.074 92.0567C143.099 90.8941 142.652 89.3536 142.734 87.4354C142.816 85.5171 143.392 84.0203 144.463 82.945C145.534 81.8697 147.005 81.3719 148.875 81.4517C150.745 81.5315 152.168 82.1528 153.143 83.3154C154.119 84.478 154.565 86.0185 154.483 87.9367C154.402 89.855 153.825 91.3518 152.754 92.4271C151.684 93.5024 150.213 94.0002 148.343 93.9204ZM148.435 91.7623C149.937 91.8265 151.125 91.5729 151.999 91.0016C152.872 90.4303 153.34 89.3933 153.404 87.8907C153.469 86.3881 153.09 85.3149 152.269 84.6713C151.447 84.0277 150.285 83.6739 148.783 83.6098C147.296 83.5463 146.108 83.7999 145.219 84.3705C144.346 84.9418 143.877 85.9788 143.813 87.4814C143.749 88.984 144.128 90.0571 144.949 90.7007C145.77 91.3443 146.932 91.6982 148.435 91.7623ZM161.762 81.8517C163.313 81.8186 164.106 82.6018 164.14 84.2014C164.161 85.1932 163.908 86.4549 163.381 87.9865L162.301 88.0096C162.662 86.9456 162.837 86.1097 162.824 85.5018C162.812 84.958 162.66 84.5691 162.367 84.3353C162.074 84.1015 161.647 83.9906 161.087 84.0026C160.287 84.0196 159.622 84.3379 159.091 84.9574C158.576 85.5765 158.193 86.3449 157.94 87.2625C157.704 88.1797 157.595 89.0862 157.614 89.982L157.699 93.9411L156.619 93.9642L156.363 81.9669L157.179 81.9495L157.527 85.903L157.534 86.2149C158.081 83.3546 159.49 81.9002 161.762 81.8517ZM174.301 93.0517L169.717 88.2247L167.51 90.9814L167.722 93.5887L166.502 93.6883L165.136 76.944L166.116 76.864L166.588 79.691L167.348 88.996L173.181 81.1032L175.525 80.9119L170.546 87.1698L176.645 92.8604L174.301 93.0517ZM178.019 77.9544C177.733 77.9904 177.466 77.9192 177.218 77.7409C176.986 77.5605 176.85 77.3196 176.812 77.018C176.776 76.7322 176.848 76.4732 177.029 76.2408C177.225 76.0064 177.466 75.8712 177.752 75.8351C178.038 75.7991 178.297 75.8713 178.529 76.0516C178.777 76.2299 178.919 76.462 178.955 76.7477C178.993 77.0493 178.914 77.3173 178.718 77.5517C178.538 77.7841 178.305 77.9183 178.019 77.9544ZM177.828 80.6635L178.9 80.5284L180.401 92.4341L179.33 92.5692L177.828 80.6635ZM186.368 79.2941C188.07 78.9985 189.367 79.2199 190.259 79.9583C191.148 80.6809 191.764 82.0354 192.109 84.0217L193.197 90.2879L192.015 90.4932L190.927 84.227C190.763 83.2811 190.488 82.5898 190.104 82.1531C189.717 81.7007 189.248 81.4329 188.698 81.3498C188.163 81.264 187.51 81.2882 186.737 81.4223C185.855 81.5755 185.134 81.7737 184.575 82.0169C184.032 82.2573 183.616 82.6626 183.325 83.2327C183.05 83.8001 182.999 84.5804 183.171 85.5735L184.259 91.8398L183.053 92.0491L180.996 80.2024L181.966 80.034L182.691 82.8069L182.723 82.9961C182.93 80.914 184.145 79.68 186.368 79.2941ZM203.139 75.5503L205.612 85.5695C206 87.1384 206.128 88.4252 205.997 89.4298C205.866 90.4345 205.475 91.2231 204.826 91.7955C204.18 92.3835 203.243 92.8289 202.016 93.1319C200.494 93.5077 199.242 93.4458 198.262 92.9462C197.286 92.4621 196.428 91.6602 195.691 90.5405L196.577 90.124C196.986 90.8469 197.582 91.26 198.366 91.3632C199.149 91.4664 200.193 91.357 201.498 91.0348C202.461 90.7971 203.192 90.5179 203.689 90.1972C204.191 89.8922 204.514 89.4003 204.66 88.7216C204.809 88.0585 204.731 87.1055 204.424 85.8628L204.165 84.8143C204.054 86.9018 202.974 88.1986 200.923 88.7048C199.09 89.1573 197.573 88.9879 196.373 88.1966C195.184 87.386 194.346 85.9943 193.859 84.0215C193.372 82.0487 193.468 80.4347 194.146 79.1794C194.837 77.9047 196.099 77.0411 197.932 76.5886C199.982 76.0824 201.542 76.7272 202.612 78.5232L202.606 78.4999L202.183 75.7861L203.139 75.5503ZM200.405 86.6078C201.244 86.4007 201.92 86.1349 202.433 85.8104C202.943 85.4704 203.297 84.9709 203.497 84.3118C203.697 83.6527 203.661 82.7717 203.389 81.6688C203.116 80.5659 202.738 79.7693 202.255 79.2789C201.771 78.7885 201.227 78.5191 200.621 78.4708C200.012 78.4069 199.288 78.4785 198.45 78.6856C197.036 79.0346 196 79.6117 195.342 80.4169C194.699 81.2183 194.554 82.3336 194.907 83.7626C195.26 85.1917 195.907 86.1114 196.849 86.5216C197.806 86.928 198.992 86.9567 200.405 86.6078ZM210.318 83.4735L211.854 83.6605L210.835 90.8146L209.299 90.6276L210.318 83.4735ZM231.589 65.7856C230.618 64.6034 229.548 63.9713 228.377 63.8893C227.206 63.8073 225.887 64.0866 224.421 64.7274C223.307 65.2143 222.395 65.8837 221.684 66.7354C220.982 67.5661 220.563 68.5439 220.426 69.6689C220.304 70.7875 220.521 71.9845 221.079 73.26C221.636 74.5356 222.367 75.5083 223.271 76.1784C224.189 76.8421 225.195 77.2057 226.288 77.2694C227.389 77.312 228.497 77.0898 229.611 76.6028C231.107 75.9493 232.223 75.1472 232.96 74.1965C233.69 73.2312 233.921 71.9605 233.651 70.3846L234.641 69.9521C235.105 72.054 234.964 73.8272 234.215 75.2716C233.482 76.7097 232.236 77.8132 230.476 78.5821C229.127 79.1715 227.784 79.3744 226.447 79.1906C225.117 78.9858 223.9 78.4178 222.795 77.4865C221.683 76.5406 220.781 75.2759 220.089 73.6925C219.397 72.1091 219.085 70.5955 219.152 69.1517C219.213 67.6932 219.623 66.4139 220.382 65.3139C221.15 64.1929 222.208 63.3376 223.556 62.7481C225.286 61.9921 226.911 61.8145 228.431 62.2155C229.965 62.61 231.348 63.6559 232.579 65.3531L231.589 65.7856ZM244.27 71.9325C242.622 72.8198 241.081 73.013 239.649 72.5121C238.216 72.0112 237.045 70.9155 236.135 69.2248C235.225 67.5342 234.955 65.9531 235.326 64.4815C235.697 63.01 236.707 61.8306 238.355 60.9433C240.003 60.056 241.544 59.8628 242.976 60.3637C244.409 60.8646 245.58 61.9603 246.49 63.651C247.4 65.3416 247.67 66.9227 247.299 68.3943C246.928 69.8658 245.918 71.0452 244.27 71.9325ZM243.246 70.0305C244.571 69.3177 245.462 68.4926 245.921 67.5553C246.379 66.618 246.252 65.4872 245.539 64.1629C244.826 62.8385 243.952 62.1096 242.918 61.9762C241.883 61.8427 240.703 62.1324 239.379 62.8453C238.068 63.5505 237.177 64.3756 236.704 65.3205C236.246 66.2578 236.373 67.3886 237.086 68.7129C237.799 70.0373 238.673 70.7662 239.707 70.8996C240.742 71.0331 241.922 70.7434 243.246 70.0305ZM246.734 60.6815L253.477 56.4817L254.619 58.3152L247.876 62.5149L246.734 60.6815ZM258.153 58.5334C258.597 59.0818 259.197 59.3247 259.955 59.2618C260.703 59.1858 261.595 58.7846 262.629 58.058C263.742 57.2762 264.477 56.6524 264.834 56.1865C265.191 55.7206 265.204 55.2519 264.873 54.7806C264.578 54.3617 264.195 54.1912 263.722 54.2694C263.262 54.3383 262.585 54.6278 261.692 55.1378L260.201 55.9799C258.901 56.7174 257.834 57.0075 257 56.8503C256.179 56.6839 255.456 56.1555 254.83 55.2652C254.223 54.4011 254.083 53.4635 254.409 52.4524C254.739 51.4189 255.506 50.4791 256.71 49.633C257.902 48.7961 259.042 48.4842 260.13 48.6973C261.218 48.9105 262.092 49.5972 262.75 50.7574L262.061 51.4467C261.444 50.7072 260.808 50.372 260.153 50.4413C259.51 50.5013 258.777 50.8211 257.952 51.4005C256.813 52.2006 256.085 52.8487 255.769 53.3447C255.443 53.8276 255.419 54.2654 255.694 54.6582C255.961 55.0379 256.347 55.1972 256.851 55.136C257.36 55.0526 258.062 54.7447 258.959 54.2124L260.397 53.3783C261.548 52.7066 262.579 52.4617 263.489 52.6437C264.403 52.8034 265.159 53.3088 265.756 54.1598C266.437 55.1286 266.612 56.1009 266.28 57.0767C265.953 58.0302 265.154 58.953 263.884 59.8451C262.496 60.82 261.283 61.2225 260.245 61.0525C259.206 60.8825 258.279 60.2726 257.464 59.2227L258.153 58.5334ZM272.029 50.9853C272.815 50.3546 273.364 49.7092 273.676 49.0492C274 48.3791 274.026 47.6194 273.755 46.7702L274.609 46.3006C275.41 47.4016 275.705 48.4982 275.494 49.5904C275.283 50.6826 274.579 51.7093 273.38 52.6703C272.07 53.7214 270.7 54.1229 269.27 53.8748C267.841 53.6268 266.505 52.7289 265.264 51.1812C264.022 49.6335 263.436 48.1349 263.504 46.6856C263.572 45.2362 264.262 43.9859 265.572 42.9348C266.521 42.174 267.422 41.7381 268.277 41.6271C269.134 41.4935 270.02 41.7161 270.935 42.2947C271.84 42.8607 272.843 43.8303 273.945 45.2032L266.624 51.0745C267.467 51.8956 268.36 52.2668 269.302 52.1881C270.234 52.097 271.143 51.6961 272.029 50.9853ZM266.924 44.6198C266.012 45.3506 265.42 46.1847 265.146 47.122C264.863 48.0469 265.079 49.0324 265.795 50.0785L272.4 44.8116C271.694 44.0853 271.032 43.6426 270.412 43.4835C269.782 43.3118 269.198 43.3388 268.661 43.5644C268.127 43.7674 267.548 44.1193 266.924 44.6198ZM274.859 35.3498C276.013 34.312 277.125 34.388 278.195 35.5777C278.858 36.3153 279.49 37.4365 280.09 38.9411L279.287 39.6633C278.866 38.6213 278.453 37.8743 278.046 37.4222C277.682 37.0177 277.313 36.8225 276.939 36.8366C276.564 36.8508 276.168 37.0451 275.752 37.4195C275.157 37.9544 274.861 38.6298 274.863 39.4457C274.877 40.2508 275.088 41.0834 275.495 41.9434C275.915 42.7927 276.424 43.5505 277.023 44.2167L279.671 47.1612L278.868 47.8834L270.844 38.9606L271.451 38.415L274.295 41.183L274.503 41.415C273.051 38.8907 273.17 36.869 274.859 35.3498ZM278.755 31.6523L288.466 37.131L289.041 36.5518L283.523 26.8485L284.791 25.5709L290.451 36.9029L288.845 38.5211L277.487 32.9299L278.755 31.6523ZM284.7 21.7703C284.506 21.983 284.257 22.1019 283.952 22.1272C283.658 22.1406 283.399 22.0448 283.175 21.8398C282.962 21.6457 282.849 21.4017 282.835 21.1078C282.833 20.8022 282.929 20.543 283.123 20.3303C283.317 20.1175 283.561 20.0045 283.855 19.9911C284.159 19.9659 284.418 20.0503 284.631 20.2445C284.855 20.4494 284.969 20.7047 284.972 21.0104C284.985 21.3043 284.895 21.5575 284.7 21.7703ZM286.312 23.9562L287.04 23.1585L295.903 31.2483L295.175 32.046L286.312 23.9562ZM291.993 17.3495C293.104 16.0264 294.239 15.36 295.396 15.3502C296.541 15.3301 297.886 15.9684 299.429 17.2652L304.299 21.3559L303.527 22.2748L298.657 18.184C297.922 17.5665 297.267 17.2146 296.692 17.1284C296.104 17.0318 295.573 17.1291 295.099 17.4202C294.635 17.699 294.151 18.1386 293.646 18.7389C293.07 19.4249 292.647 20.0409 292.376 20.5868C292.116 21.1205 292.058 21.699 292.203 22.3223C292.359 22.9334 292.822 23.5632 293.594 24.2115L298.464 28.3023L297.677 29.2395L288.47 21.5056L289.103 20.7522L291.444 22.4054L291.591 22.5289C290.408 20.8034 290.541 19.077 291.993 17.3495ZM302.486 3.66728L310.804 9.77488C312.107 10.7313 313.03 11.6371 313.573 12.4924C314.116 13.3477 314.322 14.2033 314.19 15.0591C314.07 15.9243 313.637 16.8664 312.889 17.8853C311.961 19.1492 310.96 19.9034 309.888 20.148C308.828 20.402 307.656 20.3355 306.372 19.9485L306.785 19.0611C307.563 19.354 308.285 19.289 308.953 18.8662C309.621 18.4434 310.352 17.6903 311.148 16.6069C311.735 15.8073 312.116 15.125 312.293 14.56C312.483 14.0044 312.416 13.4195 312.093 12.8051C311.783 12.2002 311.112 11.519 310.08 10.7615L309.209 10.1223C310.462 11.7961 310.463 13.4841 309.213 15.1866C308.096 16.7084 306.823 17.5502 305.394 17.712C303.961 17.8514 302.426 17.3198 300.788 16.1172C299.15 14.9146 298.19 13.6139 297.907 12.2152C297.62 10.794 298.036 9.32249 299.153 7.80064C300.403 6.09822 302.014 5.59378 303.986 6.28734L303.967 6.27313L301.903 4.46045L302.486 3.66728ZM307.472 13.9082C307.983 13.2118 308.332 12.5746 308.518 11.9967C308.691 11.4093 308.643 10.7985 308.375 10.1644C308.106 9.53035 307.513 8.87715 306.598 8.20484C305.682 7.53253 304.881 7.16306 304.196 7.09644C303.51 7.02982 302.92 7.17184 302.424 7.52251C301.916 7.86371 301.406 8.38253 300.894 9.07897C300.033 10.2526 299.607 11.3594 299.618 12.3993C299.638 13.4264 300.241 14.3755 301.428 15.2467C302.614 16.1178 303.7 16.4092 304.686 16.1207C305.682 15.8194 306.61 15.0819 307.472 13.9082Z" fill="white"/>
</svg>
