<svg width="325" height="431" viewBox="0 0 325 431" fill="none" xmlns="http://www.w3.org/2000/svg">
<path d="M12.4527 367.107L19.1101 373.163L18.0065 374.376L12.7398 369.585L9.68468 372.943L14.5076 377.331L13.404 378.544L8.58108 374.156L4.42239 378.728L3.03174 377.463L12.4527 367.107Z" fill="white"/>
<path d="M18.0874 390.431C17.4527 389.944 16.9203 389.368 16.4902 388.702C16.0683 388.025 15.8044 387.285 15.6985 386.481C15.5926 385.677 15.674 384.815 15.9428 383.895C16.2115 382.976 16.7273 382.019 17.4903 381.024L17.7337 380.707C18.4642 379.755 19.2307 379.04 20.0333 378.564C20.8359 378.087 21.6351 377.801 22.4309 377.706C23.2347 377.6 24.014 377.669 24.7687 377.912C25.5235 378.155 26.2182 378.52 26.8529 379.006C27.4876 379.493 28.02 380.07 28.4501 380.736C28.8801 381.402 29.1481 382.137 29.254 382.941C29.368 383.734 29.2987 384.58 29.0462 385.479C28.7937 386.377 28.3022 387.303 27.5718 388.255L27.3283 388.572C26.5654 389.567 25.7745 390.313 24.9557 390.81C24.1368 391.308 23.3255 391.61 22.5216 391.716C21.7177 391.822 20.9344 391.759 20.1716 391.526C19.4168 391.283 18.7221 390.918 18.0874 390.431ZM19.11 389.098C19.5438 389.431 20.0225 389.672 20.5462 389.822C21.0699 389.972 21.6151 389.995 22.1816 389.892C22.7562 389.778 23.3403 389.521 23.9341 389.119C24.5466 388.715 25.149 388.127 25.7415 387.355L25.985 387.037C26.545 386.308 26.9287 385.61 27.1359 384.946C27.3619 384.279 27.4473 383.664 27.3921 383.101C27.3451 382.527 27.1814 382.006 26.9012 381.539C26.621 381.072 26.264 380.672 25.8303 380.339C25.3965 380.007 24.9178 379.765 24.3941 379.616C23.8704 379.466 23.3252 379.443 22.7587 379.546C22.2004 379.638 21.6231 379.876 21.0268 380.259C20.4493 380.639 19.8805 381.194 19.3205 381.924L19.077 382.242C18.4846 383.014 18.0672 383.744 17.825 384.432C17.6015 385.118 17.5092 385.753 17.5482 386.337C17.5952 386.911 17.7589 387.432 18.0391 387.899C18.3193 388.366 18.6763 388.766 19.11 389.098Z" fill="white"/>
<path d="M35.8877 385.699L37.4701 386.714L30.7969 397.117L36.7899 400.961L35.9045 402.342L28.329 397.483L35.8877 385.699Z" fill="white"/>
<path d="M47.5681 392.817L49.2242 393.707L43.3745 404.595L49.6466 407.965L48.8704 409.409L40.9422 405.15L47.5681 392.817Z" fill="white"/>
<path d="M58.5375 413.972C57.803 413.655 57.1459 413.226 56.5661 412.685C55.9916 412.132 55.5548 411.479 55.2557 410.725C54.9567 409.972 54.8251 409.116 54.8609 408.158C54.8968 407.201 55.1632 406.147 55.66 404.996L55.8186 404.629C56.2943 403.527 56.863 402.647 57.5249 401.989C58.1867 401.331 58.8918 400.858 59.6401 400.571C60.3938 400.272 61.1662 400.148 61.9574 400.199C62.7486 400.251 63.5114 400.435 64.2459 400.752C64.9803 401.069 65.6375 401.498 66.2172 402.039C66.797 402.58 67.2364 403.227 67.5355 403.981C67.8399 404.722 67.9794 405.559 67.9541 406.492C67.9288 407.425 67.6783 408.443 67.2026 409.544L67.0441 409.912C66.5472 411.062 65.9626 411.979 65.2902 412.662C64.6178 413.344 63.9048 413.835 63.1512 414.134C62.3975 414.433 61.6225 414.564 60.826 414.525C60.0348 414.473 59.2719 414.289 58.5375 413.972ZM59.2035 412.43C59.7053 412.646 60.2285 412.763 60.7729 412.781C61.3174 412.798 61.8516 412.687 62.3758 412.449C62.9052 412.198 63.4087 411.806 63.8864 411.271C64.3816 410.73 64.8221 410.012 65.2079 409.119L65.3665 408.752C65.7312 407.907 65.9329 407.137 65.9715 406.442C66.0277 405.74 65.9602 405.123 65.7691 404.59C65.5833 404.045 65.2974 403.581 64.9115 403.196C64.5257 402.812 64.0818 402.511 63.5799 402.294C63.078 402.078 62.5549 401.961 62.0104 401.943C61.466 401.926 60.9317 402.037 60.4076 402.275C59.8887 402.501 59.387 402.873 58.9024 403.39C58.4353 403.9 58.0194 404.577 57.6547 405.422L57.4961 405.789C57.1103 406.682 56.884 407.492 56.8172 408.219C56.768 408.938 56.8337 409.577 57.0142 410.134C57.2001 410.679 57.486 411.144 57.8718 411.528C58.2577 411.912 58.7016 412.213 59.2035 412.43Z" fill="white"/>
<path d="M73.9363 404.943L75.8478 405.532L75.363 416.892L81.735 407.345L83.3406 407.839L83.2955 419.335L89.3043 409.676L91.1392 410.241L83.4257 422.514L81.6289 421.961L81.6167 410.447L75.2065 419.983L73.4098 419.43L73.9363 404.943Z" fill="white"/>
<path d="M95.3555 410.913L97.1922 411.314L94.2026 424.991L92.366 424.59L95.3555 410.913Z" fill="white"/>
<path d="M104.406 412.703L106.228 412.957L112.169 424.792L113.676 413.997L115.499 414.251L113.563 428.116L111.741 427.862L105.8 416.027L104.293 426.823L102.471 426.568L104.406 412.703Z" fill="white"/>
<path d="M126.781 429.102C125.956 429.067 125.175 428.901 124.441 428.602C123.72 428.292 123.092 427.838 122.557 427.241C122.035 426.632 121.627 425.874 121.332 424.967C121.05 424.061 120.936 422.989 120.988 421.75L121.005 421.35C121.056 420.151 121.26 419.126 121.616 418.273C121.986 417.422 122.456 416.728 123.026 416.191C123.609 415.656 124.273 415.27 125.017 415.035C125.775 414.787 126.567 414.68 127.393 414.715C128.072 414.744 128.7 414.871 129.278 415.096C129.856 415.307 130.371 415.602 130.822 415.982C131.273 416.361 131.647 416.818 131.945 417.351C132.256 417.884 132.477 418.481 132.609 419.141L130.611 419.056C130.356 418.164 129.923 417.505 129.314 417.079C128.705 416.653 128.041 416.424 127.321 416.394C126.775 416.371 126.252 416.442 125.751 416.607C125.25 416.773 124.798 417.054 124.394 417.45C124.004 417.834 123.681 418.354 123.427 419.011C123.185 419.668 123.044 420.476 123.003 421.435L122.986 421.835C122.943 422.847 123.027 423.705 123.237 424.408C123.448 425.097 123.738 425.663 124.106 426.106C124.488 426.549 124.914 426.874 125.386 427.081C125.871 427.289 126.36 427.403 126.853 427.424C127.958 427.471 128.871 427.196 129.59 426.599C130.309 426.003 130.753 424.994 130.92 423.573L127.423 423.424L127.491 421.826L132.786 422.051L132.761 422.65C132.715 423.729 132.541 424.683 132.239 425.511C131.937 426.325 131.528 427.008 131.011 427.56C130.507 428.099 129.896 428.501 129.178 428.764C128.459 429.027 127.661 429.14 126.781 429.102Z" fill="white"/>
<path d="M146.136 414.546L148.011 414.416L148.982 428.382L147.107 428.512L146.136 414.546Z" fill="white"/>
<path d="M154.296 413.823L156.117 413.562L165.109 423.283L163.561 412.494L165.383 412.232L167.371 426.09L165.55 426.352L156.558 416.63L158.106 427.42L156.285 427.681L154.296 413.823Z" fill="white"/>
<path d="M181.507 410.043L176.826 411.349L176.385 409.77L187.558 406.651L187.999 408.23L183.317 409.537L186.641 421.442L184.83 421.947L181.507 410.043Z" fill="white"/>
<path d="M191.726 405.159L193.483 404.492L195.605 410.083L202.561 407.443L200.439 401.852L202.197 401.185L207.164 414.274L205.407 414.941L203.143 408.976L196.187 411.616L198.451 417.581L196.693 418.248L191.726 405.159Z" fill="white"/>
<path d="M207.417 398.756L215.512 394.823L216.229 396.298L209.825 399.409L211.721 403.313L217.586 400.464L218.302 401.939L212.438 404.788L214.509 409.051L220.913 405.94L221.63 407.415L213.535 411.348L207.417 398.756Z" fill="white"/>
<path d="M225.572 389.008L233.147 384.148L234.033 385.529L228.04 389.373L230.491 393.194L235.979 389.674L236.864 391.055L231.376 394.575L234.713 399.777L233.13 400.792L225.572 389.008Z" fill="white"/>
<path d="M249.648 389.573C249.014 390.06 248.319 390.425 247.564 390.668C246.801 390.9 246.018 390.963 245.214 390.857C244.41 390.751 243.599 390.45 242.78 389.952C241.961 389.454 241.17 388.708 240.407 387.714L240.164 387.396C239.433 386.444 238.942 385.519 238.689 384.62C238.437 383.722 238.368 382.876 238.482 382.082C238.588 381.279 238.856 380.544 239.286 379.877C239.716 379.211 240.248 378.635 240.883 378.148C241.517 377.661 242.212 377.296 242.967 377.053C243.722 376.81 244.501 376.742 245.305 376.847C246.101 376.943 246.9 377.229 247.702 377.705C248.505 378.182 249.271 378.896 250.002 379.848L250.245 380.166C251.008 381.16 251.524 382.117 251.793 383.037C252.062 383.957 252.143 384.818 252.037 385.622C251.931 386.426 251.667 387.167 251.245 387.843C250.815 388.509 250.283 389.086 249.648 389.573ZM248.626 388.24C249.059 387.907 249.416 387.507 249.697 387.04C249.977 386.573 250.14 386.052 250.188 385.479C250.226 384.894 250.129 384.263 249.895 383.586C249.663 382.89 249.251 382.155 248.659 381.383L248.415 381.066C247.855 380.336 247.281 379.785 246.693 379.412C246.107 379.021 245.535 378.78 244.977 378.687C244.41 378.584 243.865 378.607 243.342 378.757C242.818 378.907 242.339 379.148 241.905 379.481C241.472 379.814 241.115 380.214 240.834 380.681C240.554 381.148 240.391 381.668 240.344 382.242C240.288 382.805 240.368 383.425 240.584 384.1C240.802 384.756 241.191 385.449 241.751 386.179L241.994 386.496C242.587 387.268 243.184 387.861 243.786 388.273C244.39 388.666 244.98 388.92 245.554 389.033C246.121 389.137 246.666 389.113 247.189 388.964C247.713 388.814 248.192 388.573 248.626 388.24Z" fill="white"/>
<path d="M263.657 377.639C263.072 378.184 262.414 378.613 261.686 378.926C260.949 379.229 260.175 379.366 259.364 379.337C258.554 379.307 257.718 379.083 256.856 378.665C255.994 378.247 255.136 377.579 254.282 376.661L254.01 376.368C253.193 375.489 252.616 374.615 252.28 373.744C251.943 372.873 251.795 372.038 251.833 371.237C251.863 370.427 252.06 369.67 252.425 368.966C252.79 368.262 253.266 367.638 253.852 367.093C254.438 366.549 255.095 366.12 255.823 365.806C256.552 365.493 257.321 365.351 258.131 365.381C258.932 365.401 259.755 365.61 260.599 366.008C261.443 366.407 262.274 367.046 263.091 367.924L263.363 368.217C264.217 369.135 264.821 370.039 265.175 370.93C265.529 371.82 265.692 372.67 265.662 373.48C265.633 374.291 265.44 375.053 265.084 375.766C264.719 376.47 264.243 377.094 263.657 377.639ZM262.513 376.409C262.914 376.036 263.231 375.604 263.466 375.113C263.701 374.621 263.815 374.088 263.807 373.512C263.791 372.927 263.634 372.308 263.337 371.655C263.041 370.984 262.561 370.292 261.898 369.579L261.626 369.286C261 368.613 260.376 368.118 259.755 367.803C259.135 367.469 258.543 367.283 257.979 367.243C257.405 367.194 256.864 367.269 256.357 367.467C255.85 367.666 255.396 367.951 254.996 368.324C254.595 368.696 254.278 369.128 254.043 369.619C253.808 370.111 253.694 370.644 253.702 371.22C253.7 371.786 253.838 372.395 254.116 373.047C254.395 373.679 254.848 374.333 255.475 375.006L255.747 375.299C256.41 376.012 257.06 376.545 257.698 376.899C258.337 377.233 258.948 377.43 259.531 377.489C260.104 377.538 260.645 377.463 261.152 377.265C261.659 377.066 262.113 376.781 262.513 376.409Z" fill="white"/>
<path d="M265.53 357.801L262.272 361.408L261.055 360.308L268.83 351.699L270.047 352.799L266.79 356.405L275.963 364.69L274.703 366.085L265.53 357.801Z" fill="white"/>
<path d="M285 353.979C284.489 354.645 283.963 355.166 283.423 355.542C282.883 355.917 282.345 356.169 281.811 356.296C281.265 356.416 280.73 356.434 280.206 356.351C279.679 356.249 279.17 356.069 278.68 355.81L279.824 354.318C280.108 354.452 280.41 354.541 280.729 354.584C281.038 354.62 281.353 354.592 281.674 354.503C282.003 354.402 282.337 354.23 282.676 353.985C283.004 353.733 283.334 353.39 283.667 352.956C284.349 352.068 284.695 351.266 284.706 350.551C284.724 349.826 284.485 349.273 283.988 348.892C283.681 348.656 283.381 348.51 283.088 348.454C282.804 348.387 282.489 348.414 282.143 348.535C281.806 348.646 281.424 348.849 280.997 349.143C280.578 349.426 280.09 349.8 279.532 350.263C278.916 350.782 278.354 351.207 277.846 351.541C277.336 351.855 276.846 352.067 276.375 352.176C275.902 352.267 275.434 352.253 274.972 352.133C274.517 352.003 274.036 351.743 273.528 351.353C273.116 351.037 272.804 350.655 272.593 350.207C272.371 349.751 272.254 349.258 272.241 348.727C272.236 348.186 272.342 347.62 272.559 347.03C272.774 346.422 273.113 345.816 273.575 345.213C274.03 344.621 274.507 344.164 275.006 343.841C275.495 343.51 275.99 343.293 276.49 343.189C276.998 343.075 277.5 343.066 277.998 343.162C278.485 343.25 278.963 343.415 279.433 343.657L278.288 345.149C278.026 345.031 277.758 344.952 277.487 344.912C277.205 344.864 276.922 344.882 276.638 344.967C276.352 345.033 276.061 345.171 275.766 345.381C275.478 345.581 275.192 345.866 274.908 346.236C274.324 346.998 274.028 347.712 274.021 348.378C274.011 349.026 274.228 349.521 274.673 349.862C274.958 350.081 275.247 350.219 275.54 350.275C275.822 350.324 276.128 350.298 276.457 350.197C276.776 350.089 277.123 349.91 277.499 349.661C277.873 349.393 278.295 349.061 278.766 348.666C279.442 348.092 280.061 347.635 280.625 347.295C281.186 346.935 281.717 346.704 282.217 346.6C282.725 346.486 283.211 346.498 283.676 346.636C284.15 346.764 284.635 347.019 285.132 347.4C285.566 347.733 285.9 348.14 286.135 348.623C286.359 349.097 286.476 349.624 286.486 350.203C286.485 350.774 286.365 351.379 286.126 352.019C285.887 352.659 285.511 353.312 285 353.979Z" fill="white"/>
<path d="M283.338 334.444L280.714 338.535L279.333 337.649L285.596 327.885L286.977 328.771L284.353 332.861L294.756 339.535L293.741 341.117L283.338 334.444Z" fill="white"/>
<path d="M287.668 324.027L291.898 316.083L293.346 316.854L289.999 323.139L293.83 325.179L296.894 319.424L298.342 320.195L295.277 325.95L299.461 328.177L302.808 321.893L304.255 322.664L300.025 330.608L287.668 324.027Z" fill="white"/>
<path d="M294.228 310.943L296.115 306.529C296.476 305.683 296.889 304.989 297.352 304.448C297.815 303.906 298.311 303.509 298.84 303.257C299.361 302.986 299.909 302.858 300.483 302.871C301.045 302.88 301.614 303.007 302.191 303.253C302.767 303.499 303.258 303.825 303.665 304.231C304.059 304.632 304.345 305.116 304.523 305.685C304.693 306.236 304.743 306.867 304.672 307.576C304.6 308.285 304.384 309.063 304.023 309.908L302.875 312.594L307.841 314.716L307.102 316.444L294.228 310.943ZM302.475 309.356C302.737 308.743 302.902 308.204 302.97 307.74C303.031 307.259 303.012 306.845 302.914 306.498C302.82 306.139 302.644 305.839 302.385 305.598C302.131 305.344 301.82 305.139 301.452 304.982C301.084 304.825 300.721 304.742 300.362 304.733C300.008 304.713 299.669 304.793 299.346 304.973C299.027 305.142 298.721 305.417 298.427 305.799C298.127 306.163 297.845 306.652 297.583 307.265L296.475 309.858L301.367 311.949L302.475 309.356Z" fill="white"/>
<path d="M314.653 297.277C314.391 298.075 314.067 298.741 313.681 299.273C313.295 299.806 312.871 300.221 312.409 300.518C311.933 300.811 311.435 301.005 310.912 301.1C310.381 301.178 309.842 301.176 309.293 301.094L309.88 299.308C310.192 299.341 310.506 299.325 310.822 299.26C311.126 299.191 311.414 299.062 311.687 298.871C311.965 298.667 312.223 298.394 312.462 298.052C312.688 297.705 312.886 297.272 313.057 296.753C313.407 295.689 313.469 294.818 313.242 294.14C313.02 293.449 312.611 293.006 312.016 292.81C311.649 292.69 311.318 292.651 311.023 292.694C310.732 292.725 310.444 292.855 310.158 293.084C309.876 293.3 309.582 293.617 309.276 294.036C308.974 294.442 308.637 294.956 308.264 295.577C307.854 296.27 307.464 296.858 307.095 297.34C306.718 297.806 306.325 298.168 305.917 298.427C305.501 298.669 305.054 298.81 304.578 298.85C304.106 298.877 303.566 298.791 302.958 298.591C302.464 298.428 302.043 298.171 301.696 297.818C301.336 297.461 301.063 297.034 300.875 296.538C300.692 296.028 300.605 295.459 300.615 294.831C300.616 294.186 300.736 293.502 300.973 292.78C301.206 292.071 301.505 291.482 301.87 291.012C302.222 290.538 302.617 290.17 303.055 289.907C303.496 289.631 303.968 289.456 304.469 289.382C304.958 289.304 305.464 289.302 305.987 289.376L305.4 291.162C305.113 291.138 304.835 291.152 304.565 291.203C304.283 291.251 304.022 291.362 303.782 291.535C303.534 291.692 303.305 291.919 303.096 292.215C302.89 292.498 302.715 292.862 302.569 293.305C302.269 294.217 302.226 294.989 302.44 295.62C302.645 296.235 303.013 296.63 303.545 296.805C303.887 296.917 304.206 296.952 304.501 296.908C304.783 296.861 305.063 296.735 305.34 296.532C305.605 296.324 305.874 296.04 306.146 295.681C306.41 295.304 306.699 294.852 307.013 294.324C307.461 293.559 307.895 292.922 308.315 292.415C308.726 291.89 309.15 291.496 309.587 291.233C310.029 290.957 310.492 290.808 310.977 290.784C311.466 290.749 312.008 290.829 312.603 291.024C313.122 291.195 313.573 291.469 313.954 291.847C314.322 292.221 314.607 292.679 314.807 293.222C314.995 293.761 315.082 294.372 315.068 295.055C315.054 295.739 314.915 296.479 314.653 297.277Z" fill="white"/>
<path d="M320.502 274.345C320.35 275.131 320.071 275.864 319.666 276.546C319.249 277.226 318.704 277.792 318.032 278.245C317.359 278.698 316.552 279.01 315.608 279.179C314.665 279.349 313.579 279.314 312.348 279.074L311.956 278.998C310.778 278.769 309.797 278.401 309.012 277.895C308.228 277.389 307.616 276.801 307.176 276.131C306.722 275.459 306.436 274.731 306.317 273.947C306.198 273.163 306.215 272.379 306.368 271.593C306.521 270.808 306.799 270.075 307.204 269.393C307.608 268.711 308.147 268.143 308.819 267.69C309.478 267.234 310.266 266.919 311.183 266.744C312.1 266.57 313.148 266.597 314.326 266.826L314.718 266.903C315.948 267.142 316.969 267.518 317.78 268.029C318.59 268.54 319.222 269.131 319.675 269.804C320.128 270.476 320.421 271.205 320.553 271.992C320.672 272.776 320.655 273.56 320.502 274.345ZM318.853 274.024C318.958 273.488 318.96 272.952 318.861 272.416C318.761 271.881 318.539 271.382 318.194 270.921C317.836 270.458 317.345 270.05 316.721 269.697C316.086 269.329 315.291 269.052 314.336 268.866L313.943 268.79C313.04 268.614 312.245 268.581 311.558 268.692C310.86 268.787 310.272 268.985 309.792 269.285C309.299 269.583 308.907 269.962 308.613 270.421C308.32 270.88 308.121 271.378 308.017 271.915C307.912 272.451 307.91 272.987 308.009 273.523C308.109 274.058 308.331 274.557 308.676 275.018C309.008 275.476 309.478 275.887 310.087 276.25C310.685 276.597 311.435 276.859 312.338 277.035L312.731 277.111C313.686 277.297 314.526 277.345 315.25 277.255C315.963 277.15 316.572 276.949 317.078 276.654C317.571 276.356 317.964 275.977 318.257 275.518C318.55 275.059 318.749 274.561 318.853 274.024Z" fill="white"/>
<path d="M308.367 260.114L309.302 251.163L310.933 251.333L310.193 258.415L314.708 258.886L315.386 252.402L317.017 252.572L316.34 259.057L322.486 259.699L322.291 261.569L308.367 260.114Z" fill="white"/>
<path d="M323.833 234.65C323.833 235.49 323.733 236.223 323.533 236.85C323.333 237.476 323.059 238.003 322.713 238.43C322.353 238.856 321.939 239.196 321.473 239.45C320.993 239.69 320.479 239.856 319.933 239.95V238.07C320.239 238.003 320.533 237.89 320.813 237.73C321.079 237.57 321.313 237.356 321.513 237.09C321.713 236.81 321.873 236.47 321.993 236.07C322.099 235.67 322.153 235.196 322.153 234.65C322.153 233.53 321.939 232.683 321.513 232.11C321.086 231.523 320.559 231.23 319.933 231.23C319.546 231.23 319.219 231.296 318.953 231.43C318.686 231.55 318.453 231.763 318.253 232.07C318.053 232.363 317.873 232.756 317.713 233.25C317.553 233.73 317.393 234.323 317.233 235.03C317.059 235.816 316.873 236.496 316.673 237.07C316.459 237.63 316.199 238.096 315.893 238.47C315.573 238.83 315.193 239.103 314.753 239.29C314.313 239.463 313.773 239.55 313.133 239.55C312.613 239.55 312.133 239.436 311.693 239.21C311.239 238.983 310.846 238.663 310.513 238.25C310.179 237.823 309.919 237.31 309.733 236.71C309.533 236.096 309.433 235.41 309.433 234.65C309.433 233.903 309.533 233.25 309.733 232.69C309.919 232.13 310.179 231.656 310.513 231.27C310.846 230.87 311.239 230.556 311.693 230.33C312.133 230.103 312.613 229.943 313.133 229.85V231.73C312.853 231.796 312.593 231.896 312.353 232.03C312.099 232.163 311.886 232.35 311.713 232.59C311.526 232.816 311.379 233.103 311.273 233.45C311.166 233.783 311.113 234.183 311.113 234.65C311.113 235.61 311.313 236.356 311.713 236.89C312.099 237.41 312.573 237.67 313.133 237.67C313.493 237.67 313.806 237.603 314.073 237.47C314.326 237.336 314.553 237.13 314.753 236.85C314.939 236.57 315.106 236.216 315.253 235.79C315.386 235.35 315.519 234.83 315.653 234.23C315.839 233.363 316.053 232.623 316.293 232.01C316.519 231.383 316.799 230.876 317.133 230.49C317.466 230.09 317.859 229.803 318.313 229.63C318.766 229.443 319.306 229.35 319.933 229.35C320.479 229.35 320.993 229.47 321.473 229.71C321.939 229.95 322.353 230.296 322.713 230.75C323.059 231.203 323.333 231.756 323.533 232.41C323.733 233.063 323.833 233.81 323.833 234.65Z" fill="white"/>
<path d="M309.633 223.903V219.003C309.633 218.123 309.739 217.356 309.953 216.703C310.166 216.036 310.459 215.483 310.833 215.043C311.206 214.603 311.653 214.269 312.173 214.043C312.679 213.816 313.233 213.703 313.833 213.703C314.766 213.703 315.586 213.983 316.293 214.543C316.986 215.089 317.473 215.903 317.753 216.983L323.633 213.303V215.523L317.993 218.863V222.023H323.633V223.903H309.633ZM316.393 219.203C316.393 217.909 316.159 216.983 315.693 216.423C315.213 215.863 314.593 215.583 313.833 215.583C313.073 215.583 312.459 215.863 311.993 216.423C311.513 216.983 311.273 217.909 311.273 219.203V222.023H316.393V219.203Z" fill="white"/>
<path d="M309.633 207.373V205.493H323.633V207.373H309.633Z" fill="white"/>
<path d="M309.633 198.5V196.62H321.993V189.5H323.633V198.5H309.633Z" fill="white"/>
<path d="M320.153 176.842V182.762L323.633 184.102V186.062L309.633 180.702V178.822L323.633 173.462V175.502L320.153 176.842ZM318.513 182.142V177.462L312.033 179.802L318.513 182.142Z" fill="white"/>
<path d="M309.633 161.207V156.407C309.633 155.487 309.739 154.687 309.953 154.007C310.166 153.327 310.466 152.767 310.853 152.327C311.226 151.874 311.679 151.54 312.213 151.327C312.733 151.114 313.306 151.007 313.933 151.007C314.559 151.007 315.139 151.114 315.673 151.327C316.193 151.54 316.646 151.874 317.033 152.327C317.406 152.767 317.699 153.327 317.913 154.007C318.126 154.687 318.233 155.487 318.233 156.407V159.327H323.633V161.207H309.633ZM316.593 156.507C316.593 155.84 316.533 155.28 316.413 154.827C316.279 154.36 316.099 153.987 315.873 153.707C315.646 153.414 315.366 153.207 315.033 153.087C314.699 152.954 314.333 152.887 313.933 152.887C313.533 152.887 313.166 152.954 312.833 153.087C312.499 153.207 312.219 153.414 311.993 153.707C311.766 153.987 311.593 154.36 311.473 154.827C311.339 155.28 311.273 155.84 311.273 156.507V159.327H316.593V156.507Z" fill="white"/>
<path d="M309.633 145.83V140.93C309.633 140.05 309.739 139.283 309.953 138.63C310.166 137.963 310.459 137.41 310.833 136.97C311.206 136.53 311.653 136.197 312.173 135.97C312.679 135.743 313.233 135.63 313.833 135.63C314.766 135.63 315.586 135.91 316.293 136.47C316.986 137.017 317.473 137.83 317.753 138.91L323.633 135.23V137.45L317.993 140.79V143.95H323.633V145.83H309.633ZM316.393 141.13C316.393 139.837 316.159 138.91 315.693 138.35C315.213 137.79 314.593 137.51 313.833 137.51C313.073 137.51 312.459 137.79 311.993 138.35C311.513 138.91 311.273 139.837 311.273 141.13V143.95H316.393V141.13Z" fill="white"/>
<path d="M320.153 122.15V128.07L323.633 129.41V131.37L309.633 126.01V124.13L323.633 118.77V120.81L320.153 122.15ZM318.513 127.45V122.77L312.033 125.11L318.513 127.45Z" fill="white"/>
<path d="M309.633 113.487V108.487C309.633 107.647 309.726 106.927 309.913 106.327C310.099 105.727 310.359 105.234 310.693 104.847C311.013 104.447 311.406 104.154 311.873 103.967C312.326 103.781 312.826 103.687 313.373 103.687C314.093 103.687 314.713 103.887 315.233 104.287C315.739 104.687 316.106 105.181 316.333 105.767C316.519 104.941 316.899 104.287 317.473 103.807C318.033 103.327 318.766 103.087 319.673 103.087C320.246 103.087 320.773 103.181 321.253 103.367C321.733 103.554 322.153 103.847 322.513 104.247C322.859 104.647 323.133 105.167 323.333 105.807C323.533 106.434 323.633 107.194 323.633 108.087V113.487H309.633ZM321.993 108.087C321.993 107.487 321.939 106.987 321.833 106.587C321.713 106.187 321.553 105.867 321.353 105.627C321.139 105.387 320.886 105.221 320.593 105.127C320.299 105.021 319.973 104.967 319.613 104.967C319.253 104.967 318.926 105.021 318.633 105.127C318.326 105.221 318.073 105.387 317.873 105.627C317.659 105.867 317.499 106.194 317.393 106.607C317.273 107.007 317.213 107.507 317.213 108.107V111.607H321.993V108.087ZM315.653 108.487C315.653 107.927 315.599 107.461 315.493 107.087C315.386 106.714 315.233 106.414 315.033 106.187C314.833 105.961 314.599 105.801 314.333 105.707C314.066 105.614 313.773 105.567 313.453 105.567C313.133 105.567 312.839 105.614 312.573 105.707C312.293 105.801 312.059 105.961 311.873 106.187C311.686 106.414 311.539 106.714 311.433 107.087C311.326 107.461 311.273 107.927 311.273 108.487V111.607H315.653V108.487Z" fill="white"/>
<path d="M309.633 97.584V95.704H315.613V88.264H309.633V86.384H323.633V88.264H317.253V95.704H323.633V97.584H309.633Z" fill="white"/>
<path d="M323.833 74.6634C323.833 75.5034 323.713 76.2634 323.473 76.9434C323.233 77.61 322.866 78.1834 322.373 78.6634C321.879 79.1434 321.259 79.5167 320.513 79.7834C319.753 80.0367 318.859 80.1634 317.833 80.1634H309.633V78.2834H317.833C319.353 78.2834 320.453 77.9634 321.133 77.3234C321.813 76.6834 322.153 75.7967 322.153 74.6634C322.153 73.53 321.813 72.6434 321.133 72.0034C320.453 71.3634 319.353 71.0434 317.833 71.0434H309.633V69.1634H317.833C318.859 69.1634 319.753 69.2967 320.513 69.5634C321.259 69.8167 321.879 70.1834 322.373 70.6634C322.866 71.1434 323.233 71.7234 323.473 72.4034C323.713 73.07 323.833 73.8234 323.833 74.6634Z" fill="white"/>
<path d="M309.655 62.2594L309.544 57.4607C309.522 56.541 309.61 55.7387 309.808 55.054C310.006 54.3692 310.292 53.8024 310.669 53.3536C311.032 52.8917 311.477 52.548 312.005 52.3223C312.52 52.097 313.091 51.9771 313.717 51.9626C314.344 51.9481 314.926 52.0413 315.464 52.2422C315.989 52.4434 316.45 52.7662 316.847 53.2104C317.231 53.6417 317.537 54.1947 317.766 54.8696C317.995 55.5445 318.12 56.3418 318.141 57.2616L318.209 60.1808L323.608 60.0557L323.651 61.9352L309.655 62.2594ZM316.504 57.3995C316.489 56.733 316.416 56.1746 316.285 55.7241C316.141 55.2607 315.953 54.8916 315.719 54.6169C315.486 54.3289 315.201 54.1288 314.865 54.0166C314.529 53.891 314.161 53.8328 313.761 53.8421C313.361 53.8513 312.996 53.9265 312.666 54.0675C312.335 54.1952 312.06 54.4083 311.841 54.7068C311.62 54.992 311.456 55.3692 311.347 55.8385C311.224 56.2948 311.17 56.8562 311.186 57.5227L311.251 60.342L316.569 60.2188L316.504 57.3995Z" fill="white"/>
<path d="M318.506 38.0538L319.167 43.9368L322.774 44.8802L322.993 46.828L308.483 43.0632L308.273 41.1949L321.588 34.3067L321.815 36.3339L318.506 38.0538ZM317.468 43.5036L316.946 38.8528L310.767 41.9011L317.468 43.5036Z" fill="white"/>
<path d="M306.791 31.4409L305.976 27.4226C305.767 26.3902 305.724 25.4398 305.847 24.5714C305.958 23.7056 306.23 22.9361 306.665 22.263C307.1 21.5898 307.699 21.0196 308.461 20.5522C309.224 20.0848 310.141 19.7425 311.212 19.5254L311.604 19.446C312.702 19.2235 313.707 19.1831 314.62 19.3246C315.517 19.4556 316.313 19.7569 317.007 20.2285C317.686 20.6896 318.26 21.3079 318.73 22.0833C319.187 22.8614 319.523 23.7797 319.737 24.8381L320.512 28.6605L306.791 31.4409ZM318.169 25.3599C318.013 24.5889 317.775 23.9161 317.454 23.3417C317.131 22.7542 316.723 22.2858 316.231 21.9367C315.725 21.5902 315.123 21.372 314.425 21.2823C313.724 21.1795 312.916 21.2208 312.001 21.4061L311.609 21.4856C310.734 21.663 310.005 21.9263 309.423 22.2756C308.84 22.6248 308.396 23.0483 308.088 23.5459C307.768 24.0461 307.577 24.6154 307.516 25.2536C307.439 25.8813 307.475 26.5611 307.623 27.2929L308.024 29.2727L318.531 27.1436L318.169 25.3599Z" fill="white"/>
<path d="M311.06 5.41991L312.759 11.0908L316.477 11.3754L317.04 13.2529L302.091 12.1373L301.551 10.3364L313.423 1.1832L314.009 3.13735L311.06 5.41991ZM311.01 10.9676L309.667 6.48459L304.131 10.5862L311.01 10.9676Z" fill="white"/>
</svg>
