<svg width="398" height="547" viewBox="0 0 398 547" fill="none" xmlns="http://www.w3.org/2000/svg">
<path d="M110.097 284.251L106.008 286.306L103.629 281.557L107.719 279.502L110.097 284.251Z" fill="white"/>
<path d="M123.668 153.54C124.866 153.137 126.163 153.783 126.565 154.983C126.968 156.182 126.323 157.481 125.125 157.884L125.118 157.887C125.111 157.889 125.099 157.893 125.082 157.899C125.049 157.911 124.997 157.929 124.928 157.953C124.79 158.001 124.582 158.076 124.314 158.175C123.777 158.373 122.998 158.671 122.046 159.062C120.138 159.847 117.554 161.002 114.836 162.485C112.111 163.971 109.301 165.76 106.915 167.801C104.515 169.854 102.661 172.063 101.683 174.359C100.869 176.266 100.75 177.831 101.02 179.177C101.296 180.547 102.017 181.886 103.194 183.253C105.624 186.075 109.588 188.583 114.117 191.368C118.483 194.053 123.34 196.978 126.847 200.527C130.442 204.165 132.865 208.711 131.892 214.547C130.647 222.008 124.819 225.862 120.299 229.089C115.496 232.519 112.026 235.296 111.843 240.484C111.718 244.023 113.532 246.492 115.885 249.688C118.127 252.732 120.891 256.496 120.228 261.926C119.729 266.01 117.249 270.341 115.132 273.445C114.043 275.044 112.983 276.41 112.197 277.378C111.802 277.862 111.475 278.25 111.243 278.518C111.127 278.652 111.035 278.756 110.971 278.829C110.939 278.865 110.914 278.894 110.896 278.914C110.887 278.924 110.88 278.931 110.874 278.937C110.872 278.94 110.87 278.942 110.868 278.944C110.867 278.945 110.867 278.946 110.866 278.947L110.865 278.948C110.861 278.945 110.787 278.877 109.17 277.409L110.865 278.949C110.016 279.886 108.569 279.957 107.633 279.107C106.698 278.257 106.627 276.809 107.475 275.871C107.475 275.871 107.476 275.87 107.477 275.869C107.479 275.866 107.484 275.861 107.49 275.855C107.502 275.841 107.521 275.819 107.547 275.789C107.6 275.73 107.679 275.64 107.782 275.521C107.987 275.283 108.286 274.93 108.649 274.484C109.376 273.589 110.354 272.327 111.354 270.861C113.418 267.833 115.331 264.283 115.687 261.37C116.105 257.942 114.511 255.542 112.203 252.408C110.007 249.426 107.081 245.7 107.271 240.322C107.543 232.61 113.052 228.636 117.643 225.358C122.518 221.877 126.5 219.064 127.379 213.792C128.032 209.877 126.542 206.733 123.595 203.75C120.56 200.679 116.247 198.055 111.723 195.273C107.362 192.592 102.717 189.715 99.7297 186.246C98.1989 184.468 97.0084 182.435 96.5351 180.083C96.057 177.706 96.3498 175.198 97.4747 172.56C98.8341 169.371 101.252 166.619 103.944 164.317C106.65 162.002 109.753 160.039 112.648 158.46C115.55 156.877 118.293 155.652 120.308 154.823C121.317 154.408 122.148 154.091 122.731 153.876C123.023 153.768 123.252 153.685 123.412 153.629C123.491 153.602 123.553 153.58 123.596 153.565C123.617 153.558 123.634 153.552 123.647 153.548C123.652 153.546 123.658 153.544 123.661 153.543C123.663 153.542 123.665 153.542 123.666 153.541C123.666 153.541 123.667 153.541 123.668 153.541C123.669 153.543 123.691 153.609 124.346 155.56L123.668 153.54Z" fill="white"/>
<path d="M240.611 219.844C241.62 219.082 243.054 219.283 243.815 220.292L242.268 221.462C243.756 220.337 243.813 220.294 243.816 220.293L243.816 220.294C243.817 220.295 243.817 220.296 243.818 220.296C243.819 220.298 243.821 220.3 243.822 220.302C243.826 220.307 243.831 220.314 243.837 220.322C243.848 220.337 243.865 220.359 243.885 220.386C243.926 220.442 243.983 220.521 244.055 220.621C244.198 220.821 244.4 221.108 244.64 221.466C245.119 222.179 245.761 223.183 246.408 224.351C247.645 226.584 249.123 229.796 249.178 232.777C249.265 237.51 245.977 240.154 243.68 242.049C241.113 244.166 239.52 245.555 239.336 247.906C239.168 250.037 240.031 252.925 241.131 255.53C241.659 256.779 242.202 257.873 242.612 258.654C242.817 259.044 242.988 259.353 243.106 259.561C243.164 259.665 243.21 259.744 243.239 259.795C243.254 259.821 243.265 259.839 243.272 259.851C243.275 259.856 243.277 259.86 243.279 259.862L243.279 259.863L243.279 259.863C243.926 260.95 243.571 262.356 242.486 263.004C241.401 263.652 239.996 263.297 239.349 262.21L241.314 261.036C239.43 262.161 239.352 262.208 239.349 262.209L239.347 262.206C239.346 262.204 239.344 262.202 239.343 262.199C239.339 262.194 239.335 262.186 239.329 262.176C239.318 262.158 239.303 262.131 239.284 262.098C239.245 262.031 239.19 261.935 239.122 261.814C238.985 261.571 238.792 261.223 238.564 260.79C238.11 259.925 237.508 258.712 236.918 257.315C235.782 254.625 234.515 250.857 234.775 247.548C235.136 242.942 238.525 240.365 240.772 238.512C243.288 236.437 244.645 235.105 244.604 232.861C244.571 231.087 243.599 228.726 242.407 226.574C241.84 225.55 241.271 224.659 240.845 224.026C240.633 223.71 240.457 223.46 240.337 223.292C240.277 223.208 240.231 223.145 240.201 223.105C240.187 223.084 240.175 223.069 240.169 223.061C240.166 223.057 240.164 223.054 240.163 223.052C239.402 222.042 239.603 220.606 240.611 219.844Z" fill="white"/>
<path d="M289.371 220.069C290.469 219.443 291.866 219.827 292.491 220.927L290.806 221.887C292.476 220.935 292.491 220.927 292.491 220.927L292.491 220.928C292.492 220.929 292.492 220.93 292.493 220.931C292.494 220.932 292.495 220.934 292.496 220.937C292.499 220.942 292.503 220.949 292.508 220.958C292.518 220.975 292.531 220.999 292.547 221.029C292.581 221.089 292.628 221.174 292.686 221.283C292.802 221.5 292.966 221.811 293.158 222.196C293.542 222.965 294.049 224.044 294.541 225.285C295.481 227.658 296.536 231.034 296.207 233.998C295.687 238.702 292.087 240.902 289.565 242.485C286.748 244.255 284.99 245.427 284.506 247.735C284.067 249.827 284.552 252.802 285.309 255.526C285.672 256.833 286.07 257.988 286.377 258.815C286.53 259.228 286.659 259.556 286.749 259.778C286.794 259.889 286.829 259.973 286.852 260.027C286.864 260.055 286.872 260.075 286.877 260.087C286.88 260.093 286.882 260.097 286.882 260.099L286.883 260.1C287.385 261.261 286.852 262.61 285.693 263.113C284.534 263.616 283.187 263.083 282.684 261.922L284.783 261.011C282.779 261.881 282.689 261.919 282.684 261.921L282.683 261.917C282.682 261.915 282.681 261.913 282.679 261.91C282.677 261.904 282.673 261.896 282.669 261.886C282.661 261.866 282.649 261.838 282.634 261.802C282.604 261.731 282.562 261.629 282.509 261.5C282.405 261.241 282.259 260.871 282.088 260.412C281.749 259.497 281.307 258.216 280.901 256.754C280.12 253.94 279.347 250.041 280.029 246.792C280.978 242.271 284.669 240.152 287.135 238.603C289.896 236.869 291.413 235.724 291.66 233.493C291.855 231.729 291.194 229.262 290.288 226.975C289.857 225.886 289.408 224.93 289.066 224.246C288.896 223.906 288.754 223.635 288.657 223.454C288.608 223.363 288.57 223.294 288.546 223.25C288.534 223.228 288.525 223.212 288.52 223.203C288.517 223.198 288.515 223.195 288.514 223.193C287.89 222.094 288.273 220.695 289.371 220.069Z" fill="white"/>
<path d="M263.815 201.872C264.821 201.107 266.256 201.303 267.021 202.31L265.288 203.629C267.02 202.311 267.021 202.311 267.021 202.311L267.022 202.312C267.022 202.313 267.023 202.314 267.024 202.315C267.025 202.316 267.027 202.319 267.029 202.323C267.034 202.329 267.04 202.337 267.048 202.348C267.064 202.369 267.087 202.399 267.115 202.437C267.172 202.514 267.253 202.624 267.355 202.766C267.559 203.048 267.846 203.455 268.19 203.963C268.876 204.976 269.792 206.404 270.716 208.06C272.507 211.272 274.547 215.73 274.619 219.78C274.731 226.078 270.37 229.616 266.975 232.4C263.302 235.411 260.575 237.69 260.264 241.594C259.998 244.938 261.342 249.309 262.95 253.095C263.732 254.936 264.535 256.544 265.142 257.692C265.446 258.265 265.698 258.721 265.874 259.03C265.961 259.184 266.03 259.303 266.075 259.38C266.098 259.418 266.115 259.447 266.125 259.465C266.131 259.474 266.135 259.481 266.137 259.484C266.138 259.485 266.138 259.486 266.139 259.487L266.196 259.589C266.766 260.659 266.403 262 265.354 262.631C264.271 263.282 262.866 262.93 262.216 261.845L264.177 260.666C262.299 261.795 262.219 261.843 262.215 261.844L262.215 261.844L262.208 261.832C262.204 261.825 262.197 261.814 262.19 261.802C262.175 261.776 262.153 261.74 262.126 261.693C262.072 261.6 261.993 261.466 261.896 261.294C261.701 260.95 261.426 260.455 261.1 259.838C260.448 258.606 259.585 256.878 258.74 254.889C257.095 251.017 255.343 245.76 255.703 241.229C256.194 235.064 260.731 231.596 264.077 228.854C267.7 225.883 270.112 223.659 270.044 219.861C269.994 217.028 268.467 213.425 266.722 210.295C265.878 208.781 265.035 207.468 264.403 206.534C264.088 206.068 263.826 205.699 263.646 205.449C263.556 205.324 263.486 205.229 263.441 205.167C263.418 205.136 263.4 205.114 263.39 205.099C263.384 205.092 263.381 205.087 263.379 205.085C263.378 205.083 263.377 205.083 263.377 205.082C262.613 204.075 262.809 202.638 263.815 201.872Z" fill="white"/>
<path fill-rule="evenodd" clip-rule="evenodd" d="M199 64.1958C276.32 64.1958 339 126.975 339 204.418V340.974C339 418.416 276.32 481.196 199 481.196C121.982 481.196 59.4896 418.906 59.0027 341.88L59 340.974V204.418C59 126.975 121.68 64.1958 199 64.1958ZM208.15 363.924C209.117 361.629 210.397 359.321 212.091 357.177C216.031 352.191 221.351 349.184 225.571 347.431C227.696 346.548 229.583 345.965 230.946 345.602C231.628 345.421 232.182 345.294 232.572 345.21C232.766 345.169 232.921 345.138 233.03 345.117C233.084 345.106 233.127 345.099 233.158 345.093C233.174 345.09 233.187 345.088 233.197 345.086C233.201 345.086 233.205 345.085 233.209 345.085C233.21 345.084 233.212 345.083 233.213 345.083C233.214 345.083 233.215 345.083 233.215 345.083C233.216 345.084 233.222 345.114 233.571 347.171L233.216 345.083L235.722 344.657L235.883 347.197L233.6 347.342C235.804 347.202 235.88 347.198 235.883 347.198C235.883 347.198 235.883 347.199 235.883 347.2C235.883 347.201 235.883 347.203 235.883 347.205C235.883 347.208 235.884 347.212 235.884 347.217C235.885 347.227 235.886 347.24 235.886 347.256C235.888 347.288 235.89 347.332 235.893 347.387C235.897 347.498 235.903 347.655 235.907 347.855C235.916 348.253 235.919 348.823 235.899 349.53C235.86 350.941 235.727 352.915 235.357 355.189C234.622 359.706 232.922 365.581 228.982 370.567C225.041 375.553 219.722 378.56 215.501 380.314C213.376 381.197 211.489 381.779 210.127 382.142C209.445 382.323 208.891 382.451 208.501 382.534C208.363 382.564 208.245 382.586 208.15 382.605C208.15 389.531 208.15 396.056 208.15 402.033C208.15 404.303 207.379 406.088 205.837 407.385C204.614 408.413 202.97 409.021 200.907 409.212C201.048 409.27 201.2 409.333 201.366 409.402C204.061 410.522 205.331 412.01 205.143 413.824C204.993 415.265 202.441 419.501 200.041 422.291C199.218 423.248 199.13 423.245 198.262 422.222C195.745 419.257 193.287 415.121 193.21 413.723C193.111 411.886 194.356 410.485 197.083 409.366C197.285 409.298 197.467 409.236 197.632 409.179C195.713 408.957 194.157 408.359 192.967 407.385C191.465 406.088 190.714 404.303 190.714 402.033L190.708 399.311C190.45 399.316 190.161 399.319 189.845 399.317C188.435 399.311 186.463 399.226 184.184 398.909C179.658 398.281 173.752 396.718 168.682 392.891C163.612 389.064 160.484 383.809 158.634 379.625C157.702 377.518 157.076 375.642 156.681 374.287C156.484 373.608 156.343 373.056 156.251 372.668C156.205 372.474 156.17 372.321 156.147 372.212C156.136 372.158 156.127 372.115 156.12 372.084C156.117 372.068 156.115 372.055 156.113 372.045C156.112 372.04 156.111 372.036 156.111 372.033C156.11 372.031 156.109 372.03 156.109 372.029C156.109 372.028 156.109 372.027 156.109 372.027C156.113 372.025 156.199 372.008 158.185 371.621L156.109 372.026L155.624 369.527L158.155 369.306L158.354 371.588C158.165 369.415 158.156 369.311 158.156 369.306C158.157 369.306 158.158 369.305 158.159 369.305C158.16 369.305 158.162 369.305 158.163 369.305C158.166 369.304 158.17 369.304 158.175 369.304C158.185 369.303 158.198 369.302 158.214 369.301C158.246 369.298 158.29 369.295 158.345 369.291C158.455 369.283 158.612 369.274 158.811 369.265C159.209 369.247 159.777 369.23 160.483 369.234C161.893 369.24 163.866 369.326 166.145 369.642C170.671 370.271 176.576 371.833 181.646 375.66C185.888 378.862 188.77 383.064 190.682 386.802L190.632 361.952C190.264 361.593 189.822 361.167 189.313 360.69C187.699 359.178 185.436 357.167 182.839 355.161C180.235 353.15 177.338 351.18 174.454 349.721C171.538 348.247 168.817 347.389 166.516 347.389H63.7244C67.0332 418.565 125.113 475.405 196.712 476.593C196.545 476.03 196.317 475.288 196.042 474.464C195.426 472.614 194.624 470.496 193.802 469.028C190.959 463.953 188.07 462.371 183.071 457.937C178.912 454.249 176.145 452.623 171.96 449.619L171.111 450.085L170.123 448.275C171.068 450.007 171.109 450.082 171.11 450.085L171.105 450.087C171.103 450.089 171.1 450.091 171.096 450.093C171.089 450.096 171.08 450.102 171.068 450.108C171.045 450.121 171.012 450.138 170.97 450.16C170.886 450.204 170.766 450.266 170.613 450.344C170.308 450.499 169.867 450.717 169.313 450.973C168.205 451.485 166.633 452.157 164.759 452.808C161.05 454.095 155.978 455.361 150.917 454.989C145.701 454.606 139.825 451.569 135.49 448.88C133.27 447.502 131.35 446.149 129.987 445.141C129.304 444.636 128.757 444.216 128.379 443.92C128.19 443.772 128.043 443.654 127.942 443.573C127.891 443.532 127.852 443.501 127.824 443.479C127.811 443.468 127.8 443.459 127.793 443.453C127.789 443.45 127.786 443.447 127.783 443.445C127.782 443.444 127.781 443.443 127.781 443.443L127.78 443.442C127.781 443.44 127.825 443.385 129.229 441.668L127.779 443.441L124.564 440.803L128.509 439.494L129.229 441.668C128.539 439.585 128.511 439.497 128.51 439.494H128.511C128.512 439.493 128.512 439.493 128.513 439.492C128.516 439.491 128.519 439.491 128.523 439.49C128.53 439.487 128.541 439.484 128.554 439.479C128.58 439.471 128.618 439.458 128.668 439.442C128.766 439.41 128.909 439.365 129.092 439.308C129.459 439.194 129.989 439.033 130.651 438.843C131.974 438.464 133.835 437.966 135.993 437.49C140.263 436.548 145.882 435.646 150.833 436.01C151.969 436.093 153.106 436.287 154.23 436.565C152.521 435.223 150.732 433.757 148.777 432.064C146.595 430.175 144.809 428.512 143.139 426.9L142.558 427.089L142.203 425.991L142.202 425.99L142.557 427.09L142.545 427.093C142.538 427.095 142.529 427.099 142.518 427.102C142.496 427.109 142.465 427.119 142.425 427.131C142.347 427.156 142.234 427.19 142.091 427.232C141.803 427.317 141.391 427.434 140.872 427.569C139.836 427.839 138.371 428.181 136.632 428.48C133.184 429.072 128.527 429.515 123.978 428.784C119.306 428.033 114.124 425.306 110.282 422.939C108.323 421.731 106.636 420.569 105.439 419.708C104.84 419.277 104.361 418.92 104.03 418.67C103.864 418.544 103.735 418.445 103.646 418.376C103.602 418.342 103.567 418.315 103.543 418.296L103.507 418.268C103.506 418.267 103.505 418.266 103.504 418.266L103.503 418.265C103.504 418.263 103.546 418.21 104.919 416.466L103.502 418.265L99.4035 415.027L104.558 414.203L104.919 416.466C104.558 414.203 104.559 414.203 104.559 414.203L104.571 414.201C104.578 414.2 104.587 414.198 104.599 414.196C104.624 414.192 104.659 414.187 104.705 414.18C104.796 414.166 104.928 414.146 105.098 414.122C105.437 414.073 105.928 414.006 106.54 413.929C107.765 413.776 109.484 413.587 111.473 413.441C115.415 413.152 120.56 413.021 125.022 413.738C127.268 414.099 129.504 414.851 131.591 415.768C126.59 411.174 122.551 407.736 117.632 402.933L115.915 403.274L115.471 401.027L115.914 403.275L115.91 403.275C115.908 403.275 115.906 403.276 115.903 403.277C115.897 403.278 115.889 403.279 115.879 403.281C115.86 403.285 115.834 403.29 115.801 403.296C115.735 403.308 115.642 403.325 115.524 403.345C115.289 403.385 114.953 403.438 114.534 403.494C113.697 403.606 112.519 403.732 111.137 403.791C108.407 403.909 104.725 403.774 101.27 402.647C97.6853 401.478 94.0529 398.591 91.4703 396.227C90.141 395.011 89.0152 393.862 88.2216 393.018C87.8242 392.595 87.508 392.246 87.2892 392.001C87.1797 391.878 87.0944 391.781 87.0354 391.713C87.0059 391.68 86.9827 391.653 86.9666 391.634C86.9586 391.625 86.9524 391.617 86.9478 391.612C86.9455 391.609 86.943 391.607 86.9416 391.606C86.9409 391.605 86.9407 391.604 86.9402 391.603L86.9393 391.603C86.939 391.603 86.939 391.602 88.6769 390.112L86.9384 391.602L83.8346 387.969L88.6068 387.822L88.6769 390.112C88.6093 387.912 88.6065 387.825 88.6068 387.822H88.6081C88.6087 387.822 88.6095 387.821 88.6103 387.821C88.6121 387.821 88.6147 387.822 88.6175 387.821C88.6232 387.821 88.6313 387.821 88.6412 387.821C88.6612 387.82 88.6898 387.82 88.7261 387.819C88.7988 387.817 88.9036 387.815 89.0375 387.813C89.3054 387.81 89.6905 387.806 90.1701 387.809C91.1284 387.815 92.4702 387.845 94.0121 387.94C97.0557 388.127 101.041 388.577 104.404 389.674C104.47 389.695 104.535 389.718 104.6 389.74C103.003 387.95 101.401 385.972 99.6814 383.54C97.4612 380.399 95.1146 376.161 93.3499 372.772C92.4608 371.064 91.7067 369.547 91.1745 368.457C90.9083 367.912 90.6971 367.472 90.5521 367.168C90.4796 367.016 90.4236 366.898 90.3854 366.817C90.3664 366.777 90.3517 366.745 90.3417 366.724C90.3367 366.713 90.3331 366.705 90.3305 366.699C90.3292 366.697 90.3281 366.695 90.3274 366.693C90.327 366.692 90.3267 366.691 90.3265 366.691L90.326 366.69C90.3263 366.69 90.3527 366.678 92.3978 365.719L90.326 366.69C89.7905 365.544 90.284 364.18 91.4283 363.644C92.5724 363.108 93.934 363.602 94.4696 364.747C94.4697 364.748 94.4698 364.748 94.47 364.749C94.4705 364.75 94.4712 364.751 94.4723 364.754C94.4743 364.758 94.4777 364.765 94.4821 364.774C94.4909 364.793 94.5045 364.821 94.5223 364.859C94.558 364.935 94.6112 365.048 94.6809 365.194C94.8204 365.487 95.0252 365.913 95.2845 366.444C95.8036 367.507 96.5399 368.987 97.4068 370.652C99.1541 374.008 101.383 378.017 103.415 380.891C106.381 385.087 108.878 387.743 111.829 390.681C110.758 388.701 109.798 386.502 109.176 384.186C107.935 379.569 108.541 373.636 109.337 369.123C109.744 366.814 110.222 364.774 110.597 363.31C110.785 362.577 110.948 361.986 111.065 361.575C111.124 361.37 111.171 361.209 111.204 361.098C111.22 361.043 111.233 360.999 111.242 360.969C111.247 360.954 111.251 360.942 111.253 360.934L111.257 360.919C111.258 360.919 111.3 360.932 113.444 361.595L111.258 360.919L112.623 356.49L115.307 360.266L113.444 361.595C115.278 360.286 115.307 360.266 115.308 360.266L115.308 360.267C115.308 360.268 115.309 360.268 115.31 360.269C115.311 360.271 115.313 360.273 115.315 360.276C115.319 360.282 115.325 360.291 115.332 360.301C115.347 360.322 115.368 360.351 115.394 360.389C115.448 360.466 115.525 360.578 115.623 360.721C115.819 361.007 116.099 361.422 116.441 361.943C117.123 362.986 118.057 364.46 119.06 366.199C121.046 369.639 123.396 374.256 124.574 378.641C125.811 383.245 125.273 388.53 124.522 392.474C124.139 394.482 123.686 396.221 123.328 397.459C123.148 398.079 122.991 398.576 122.878 398.923C122.822 399.096 122.776 399.232 122.744 399.327C122.727 399.374 122.715 399.411 122.706 399.437C122.701 399.45 122.697 399.461 122.694 399.469C122.693 399.472 122.692 399.476 122.691 399.478L122.689 399.483L120.535 398.712L122.689 399.483L122.165 400.95C125.966 404.592 129.244 407.435 133.221 411.053C132.857 410.164 132.539 409.244 132.287 408.3C131.132 403.983 131.886 398.437 132.778 394.27C133.236 392.128 133.759 390.232 134.166 388.873C134.37 388.192 134.546 387.642 134.672 387.26C134.735 387.069 134.786 386.919 134.822 386.815C134.839 386.763 134.853 386.723 134.863 386.695C134.868 386.681 134.872 386.669 134.875 386.661C134.876 386.657 134.877 386.654 134.878 386.651C134.878 386.65 134.879 386.649 134.879 386.649L134.88 386.647C134.882 386.647 134.942 386.669 136.789 387.326L134.88 386.646L136.301 382.643L138.86 386.032L137.036 387.414C138.791 386.084 138.858 386.033 138.86 386.032L138.861 386.033C138.861 386.033 138.862 386.035 138.863 386.035C138.864 386.037 138.865 386.039 138.867 386.042C138.872 386.047 138.877 386.055 138.884 386.065C138.899 386.084 138.919 386.111 138.945 386.146C138.997 386.216 139.072 386.318 139.167 386.449C139.357 386.71 139.628 387.088 139.957 387.563C140.616 388.513 141.514 389.858 142.477 391.445C144.379 394.58 146.634 398.819 147.721 402.884C148.872 407.187 148.201 412.132 147.365 415.784C146.937 417.651 146.445 419.268 146.059 420.42C145.866 420.997 145.698 421.461 145.577 421.784C145.517 421.946 145.468 422.073 145.434 422.161C145.416 422.206 145.402 422.24 145.392 422.265C145.387 422.278 145.383 422.288 145.38 422.295C145.379 422.299 145.378 422.302 145.377 422.304C145.376 422.305 145.376 422.307 145.375 422.308L145.375 422.309L144.712 422.038C144.713 422.039 144.713 422.039 144.713 422.04L145.375 422.309L145.264 422.581C147.179 424.458 149.144 426.324 151.77 428.598C154.629 431.074 157.081 433.02 159.465 434.814C158.658 433.35 157.94 431.795 157.383 430.173C155.623 425.046 156.028 418.216 156.749 412.971C157.117 410.289 157.585 407.906 157.962 406.194C158.15 405.336 158.316 404.644 158.435 404.162C158.495 403.922 158.543 403.734 158.577 403.604C158.594 403.54 158.607 403.489 158.617 403.454C158.621 403.437 158.625 403.423 158.628 403.413C158.629 403.408 158.63 403.404 158.631 403.401C158.631 403.4 158.632 403.399 158.632 403.398L158.632 403.397C158.636 403.397 158.715 403.419 160.391 403.876L158.632 403.396L159.762 399.248L162.57 402.5L160.839 403.999C162.515 402.548 162.568 402.502 162.57 402.501L162.571 402.502C162.571 402.502 162.572 402.503 162.573 402.504C162.575 402.506 162.577 402.508 162.579 402.511C162.584 402.517 162.592 402.526 162.602 402.537C162.62 402.559 162.647 402.59 162.682 402.631C162.751 402.713 162.851 402.832 162.978 402.985C163.233 403.291 163.597 403.736 164.043 404.296C164.933 405.415 166.152 407.003 167.472 408.885C170.086 412.611 173.203 417.639 174.88 422.522C176.635 427.634 176.275 433.716 175.579 438.3C175.225 440.633 174.769 442.664 174.402 444.114C174.267 444.647 174.142 445.103 174.039 445.468C178.255 448.519 181.656 450.562 186.104 454.506C190.565 458.463 194.451 460.822 197.791 466.786C198.526 468.097 199.195 469.703 199.747 471.2C200.207 470.052 200.724 468.901 201.279 467.915C204.657 461.912 208.585 459.539 213.101 455.552C217.652 451.535 221.116 449.479 225.451 446.347C225.354 446.001 225.241 445.584 225.12 445.106C224.749 443.642 224.289 441.59 223.932 439.234C223.228 434.604 222.865 428.463 224.637 423.303C226.33 418.373 229.478 413.296 232.119 409.532C233.452 407.631 234.683 406.027 235.582 404.896C236.032 404.331 236.4 403.882 236.657 403.573C236.786 403.418 236.887 403.298 236.956 403.215C236.991 403.174 237.019 403.142 237.038 403.12C237.048 403.109 237.055 403.1 237.06 403.094C237.063 403.091 237.065 403.089 237.066 403.087L237.069 403.084C237.074 403.087 237.154 403.156 238.8 404.582L237.069 403.084L239.877 399.831L241.008 403.979L238.8 404.582C241.007 403.979 241.007 403.979 241.008 403.98V403.981C241.008 403.982 241.008 403.983 241.009 403.984C241.01 403.987 241.01 403.992 241.012 403.996C241.014 404.006 241.018 404.02 241.023 404.038C241.033 404.073 241.046 404.124 241.063 404.189C241.097 404.32 241.146 404.51 241.206 404.753C241.327 405.239 241.495 405.938 241.685 406.804C242.065 408.534 242.538 410.941 242.91 413.649C243.638 418.949 244.046 425.845 242.27 431.019C241.723 432.612 241.022 434.141 240.233 435.586C242.59 433.815 245.02 431.89 247.842 429.458C250.549 427.124 252.562 425.218 254.535 423.29L254.446 423.072L254.981 422.854L254.982 422.853L254.446 423.072L254.444 423.068C254.443 423.065 254.442 423.062 254.44 423.058C254.437 423.051 254.433 423.04 254.428 423.028C254.418 423.003 254.405 422.968 254.387 422.923C254.352 422.834 254.303 422.705 254.242 422.542C254.12 422.216 253.95 421.748 253.755 421.165C253.366 420.002 252.868 418.368 252.436 416.483C251.592 412.795 250.915 407.804 252.076 403.462C253.174 399.358 255.451 395.078 257.373 391.911C258.345 390.308 259.252 388.949 259.917 387.99C260.25 387.51 260.523 387.128 260.715 386.864C260.811 386.732 260.886 386.63 260.939 386.559C260.965 386.524 260.986 386.496 261.001 386.476C261.008 386.467 261.013 386.459 261.018 386.453C261.02 386.451 261.021 386.449 261.023 386.447C261.023 386.446 261.024 386.446 261.024 386.445L261.025 386.444C261.026 386.445 261.075 386.482 262.85 387.826L261.025 386.444L263.584 383.055L265.005 387.058L263.078 387.744C264.927 387.086 265.002 387.06 265.005 387.059L265.006 387.06C265.006 387.061 265.007 387.062 265.007 387.063C265.008 387.066 265.009 387.069 265.01 387.073C265.013 387.081 265.017 387.093 265.022 387.107C265.032 387.135 265.046 387.176 265.064 387.228C265.1 387.333 265.151 387.484 265.215 387.677C265.343 388.063 265.52 388.619 265.726 389.306C266.138 390.679 266.665 392.593 267.128 394.758C268.029 398.967 268.79 404.565 267.625 408.921C267.366 409.887 267.039 410.828 266.665 411.738C270.7 408.085 274.029 405.212 277.902 401.513L277.367 400.012L279.52 399.241L277.366 400.011L277.366 400.01C277.365 400.009 277.365 400.008 277.364 400.006C277.364 400.004 277.362 400.001 277.361 399.997C277.358 399.989 277.355 399.979 277.35 399.966C277.341 399.939 277.328 399.901 277.311 399.853C277.279 399.758 277.232 399.621 277.175 399.446C277.061 399.096 276.904 398.594 276.722 397.968C276.36 396.717 275.902 394.962 275.516 392.934C274.757 388.949 274.214 383.615 275.462 378.969C276.652 374.541 279.025 369.879 281.031 366.403C282.045 364.647 282.987 363.158 283.677 362.105C284.022 361.578 284.305 361.159 284.503 360.87C284.602 360.726 284.68 360.613 284.734 360.536C284.761 360.497 284.782 360.467 284.797 360.446C284.804 360.436 284.81 360.427 284.814 360.421L284.821 360.412L284.821 360.412C284.824 360.413 284.892 360.461 286.685 361.74L284.822 360.411L287.505 356.636L288.871 361.064L287.172 361.589C288.816 361.081 288.869 361.065 288.871 361.064L288.872 361.069C288.873 361.071 288.875 361.075 288.876 361.08C288.879 361.088 288.882 361.1 288.887 361.115C288.896 361.145 288.909 361.189 288.925 361.245C288.958 361.357 289.006 361.519 289.065 361.727C289.184 362.142 289.348 362.739 289.538 363.479C289.917 364.957 290.4 367.019 290.812 369.351C291.616 373.909 292.226 379.898 290.974 384.558C290.32 386.994 289.295 389.302 288.158 391.366C291.188 388.367 293.738 385.679 296.774 381.406C298.83 378.511 301.086 374.472 302.854 371.092C303.732 369.416 304.476 367.925 305.002 366.854C305.264 366.319 305.471 365.889 305.612 365.594C305.683 365.447 305.737 365.334 305.773 365.258C305.791 365.219 305.805 365.19 305.814 365.172C305.818 365.162 305.821 365.155 305.823 365.151C305.824 365.148 305.826 365.147 305.826 365.146L305.826 365.145C306.364 364 307.727 363.508 308.87 364.047C310.013 364.585 310.504 365.95 309.966 367.095L309.965 367.098C309.964 367.099 309.963 367.102 309.962 367.104C309.959 367.11 309.955 367.118 309.95 367.129C309.94 367.15 309.925 367.182 309.906 367.222C309.868 367.304 309.811 367.423 309.738 367.576C309.591 367.883 309.377 368.325 309.108 368.874C308.57 369.972 307.806 371.499 306.907 373.219C305.121 376.632 302.748 380.901 300.502 384.063C298.796 386.465 297.204 388.427 295.62 390.201C295.689 390.177 295.757 390.154 295.825 390.131C299.221 389.024 303.244 388.57 306.319 388.381C307.876 388.286 309.231 388.255 310.199 388.249C310.683 388.246 311.073 388.249 311.343 388.253C311.479 388.255 311.584 388.257 311.658 388.259C311.694 388.259 311.723 388.26 311.743 388.26C311.753 388.261 311.761 388.261 311.767 388.261H311.776L311.778 388.262C311.778 388.267 311.775 388.372 311.708 390.552L311.778 388.261L316.55 388.409L313.446 392.042L311.708 390.552C313.364 391.971 313.442 392.038 313.445 392.042L313.444 392.043C313.444 392.044 313.444 392.044 313.443 392.045C313.442 392.047 313.439 392.049 313.437 392.052C313.432 392.057 313.426 392.065 313.418 392.074C313.401 392.093 313.378 392.12 313.348 392.154C313.289 392.222 313.202 392.32 313.092 392.444C312.871 392.692 312.552 393.044 312.15 393.471C311.349 394.324 310.212 395.484 308.87 396.712C306.261 399.1 302.594 402.014 298.978 403.194C295.491 404.331 291.774 404.468 289.017 404.349C287.621 404.289 286.432 404.162 285.587 404.048C285.164 403.992 284.825 403.938 284.587 403.897C284.468 403.877 284.374 403.861 284.308 403.848C284.275 403.842 284.248 403.837 284.229 403.833C284.219 403.832 284.211 403.83 284.205 403.829L284.195 403.827L284.193 403.826L284.637 401.579L284.192 403.826L282.455 403.481C277.399 408.403 273.273 411.893 268.135 416.594C270.306 415.622 272.643 414.823 274.991 414.445C279.496 413.721 284.692 413.853 288.674 414.145C290.683 414.293 292.42 414.484 293.657 414.638C294.276 414.715 294.771 414.784 295.114 414.833C295.285 414.858 295.419 414.878 295.511 414.892C295.557 414.899 295.593 414.904 295.617 414.908C295.63 414.91 295.639 414.912 295.646 414.913L295.657 414.915C295.657 414.918 295.644 415.005 295.298 417.177L295.659 414.915L300.813 415.739L296.714 418.977L295.539 417.483C296.714 418.976 296.714 418.977 296.713 418.977L296.713 418.977C296.712 418.978 296.711 418.979 296.71 418.98C296.708 418.981 296.705 418.983 296.702 418.986C296.695 418.991 296.685 418.999 296.673 419.008C296.649 419.027 296.614 419.055 296.569 419.089C296.48 419.159 296.349 419.259 296.182 419.386C295.847 419.639 295.364 419.999 294.759 420.434C293.549 421.304 291.846 422.478 289.867 423.697C285.986 426.089 280.754 428.841 276.038 429.599C271.446 430.338 266.744 429.891 263.261 429.293C261.505 428.991 260.025 428.645 258.979 428.373C258.456 428.236 258.039 428.118 257.749 428.033C257.604 427.99 257.49 427.955 257.411 427.931L257.282 427.89C257.281 427.889 257.28 427.889 257.279 427.889L257.278 427.889C257.278 427.887 257.292 427.842 257.692 426.606L257.692 426.607L257.277 427.888L256.597 427.667C254.889 429.31 253.064 431.003 250.827 432.931C248.784 434.692 246.92 436.209 245.139 437.596C246.385 437.269 247.649 437.04 248.912 436.947C253.91 436.58 259.585 437.49 263.898 438.442C266.078 438.923 267.957 439.426 269.294 439.809C269.963 440.001 270.498 440.163 270.868 440.278C271.053 440.336 271.198 440.382 271.297 440.414C271.346 440.43 271.385 440.442 271.412 440.451C271.425 440.456 271.436 440.459 271.443 440.462C271.447 440.463 271.45 440.463 271.452 440.464C271.454 440.465 271.454 440.465 271.455 440.466H271.456C271.456 440.468 271.432 440.541 270.737 442.64L271.457 440.466L275.402 441.775L272.187 444.413L270.737 442.64C272.14 444.356 272.185 444.412 272.186 444.414C272.186 444.414 272.186 444.414 272.185 444.415C272.184 444.415 272.183 444.416 272.182 444.417C272.18 444.419 272.177 444.422 272.173 444.425C272.165 444.431 272.155 444.44 272.141 444.451C272.113 444.473 272.074 444.505 272.023 444.546C271.92 444.628 271.771 444.747 271.58 444.897C271.198 445.196 270.647 445.62 269.957 446.13C268.58 447.148 266.641 448.515 264.398 449.906C260.019 452.623 254.087 455.688 248.824 456.075C243.714 456.45 238.593 455.173 234.847 453.873C232.955 453.216 231.367 452.537 230.249 452.02C229.689 451.761 229.244 451.542 228.936 451.385C228.781 451.307 228.661 451.243 228.576 451.199C228.534 451.177 228.501 451.159 228.477 451.146C228.465 451.14 228.456 451.134 228.449 451.13C228.445 451.128 228.442 451.127 228.439 451.126L228.435 451.123L229.531 449.112L228.434 451.123L227.426 450.571C223.162 453.621 220.353 455.259 216.126 458.99C211.07 463.454 208.142 465.05 205.264 470.164C204.432 471.644 203.62 473.779 202.996 475.642C202.889 475.964 202.788 476.272 202.696 476.563C275.78 474.602 334.425 414.648 334.425 340.974V333.642H208.15C208.15 343.979 208.15 354.181 208.15 363.924ZM262.913 442.917C258.729 441.993 253.574 441.199 249.246 441.517C245.169 441.817 240.679 444.028 237.04 446.359C235.824 447.138 234.737 447.91 233.832 448.587C234.574 448.894 235.42 449.222 236.346 449.543C239.831 450.753 244.273 451.815 248.489 451.505C252.552 451.206 257.66 448.697 261.989 446.011C263.355 445.163 264.604 444.323 265.67 443.575C264.833 443.361 263.906 443.136 262.913 442.917ZM150.498 440.58C146.219 440.266 141.119 441.051 136.978 441.965C136.015 442.178 135.114 442.395 134.299 442.603C135.344 443.337 136.566 444.157 137.9 444.984C142.185 447.643 147.236 450.124 151.251 450.419C155.42 450.725 159.812 449.676 163.261 448.479C164.161 448.166 164.985 447.847 165.709 447.548C164.82 446.884 163.757 446.13 162.568 445.369C158.968 443.062 154.528 440.876 150.498 440.58ZM237.622 409.745C237.075 410.472 236.48 411.286 235.862 412.166C233.296 415.825 230.444 420.481 228.963 424.794C227.561 428.877 227.781 434.111 228.454 438.544C228.68 440.029 228.951 441.386 229.209 442.53C229.8 441.936 230.454 441.249 231.136 440.48C233.684 437.606 236.497 433.74 237.943 429.529C239.341 425.459 239.096 419.51 238.377 414.274C238.149 412.615 237.881 411.072 237.622 409.745ZM162.018 409.165C161.765 410.467 161.503 411.975 161.281 413.595C160.569 418.777 160.328 424.661 161.709 428.683C163.139 432.847 165.922 436.671 168.443 439.515C169.106 440.262 169.742 440.932 170.319 441.513C170.571 440.39 170.836 439.062 171.056 437.611C171.722 433.224 171.939 428.048 170.554 424.012C169.089 419.747 166.268 415.14 163.728 411.519C163.129 410.665 162.551 409.874 162.018 409.165ZM288.34 418.716C284.471 418.432 279.694 418.33 275.716 418.969C271.936 419.577 267.908 421.629 264.71 423.656C264.187 423.987 263.692 424.316 263.23 424.631C263.49 424.68 263.759 424.729 264.035 424.776C267.278 425.333 271.422 425.701 275.313 425.075C279.08 424.469 283.66 422.141 287.469 419.794C288.031 419.448 288.569 419.105 289.078 418.773C288.837 418.754 288.591 418.734 288.34 418.716ZM124.297 418.262C120.362 417.63 115.637 417.731 111.808 418.012C111.583 418.028 111.362 418.045 111.145 418.063C111.632 418.38 112.146 418.706 112.68 419.036C116.45 421.359 120.979 423.661 124.703 424.259C128.551 424.878 132.65 424.515 135.859 423.963C136.112 423.92 136.359 423.875 136.6 423.83C136.156 423.528 135.682 423.214 135.182 422.898C132.017 420.892 128.034 418.863 124.297 418.262ZM144.809 419.763L144.809 419.762H144.808L144.809 419.763ZM262.03 393.085C261.788 393.467 261.537 393.871 261.282 394.291C259.428 397.347 257.423 401.181 256.496 404.648C255.633 407.876 256.095 411.963 256.896 415.458C257.092 416.314 257.304 417.115 257.51 417.833C257.804 417.483 258.111 417.105 258.425 416.701C260.301 414.285 262.307 411.097 263.206 407.736C264.065 404.521 263.543 399.867 262.655 395.718C262.455 394.783 262.24 393.896 262.03 393.085ZM137.855 392.678C137.652 393.466 137.445 394.326 137.251 395.231C136.373 399.337 135.857 403.939 136.706 407.115C137.594 410.437 139.578 413.59 141.433 415.98C141.734 416.366 142.028 416.729 142.31 417.066C142.51 416.366 142.716 415.589 142.906 414.759C143.698 411.3 144.155 407.26 143.302 404.07C142.385 400.642 140.402 396.849 138.567 393.826C138.325 393.426 138.086 393.043 137.855 392.678ZM225.966 133.527C220.623 142.76 210.65 148.971 199.229 148.971C191.694 148.971 184.791 146.268 179.43 141.778L167.943 155.046C169.994 156.246 172.113 157.37 174.615 158.599C177.063 159.801 178.921 161.031 180.679 162.242C182.444 163.457 184.061 164.616 186.179 165.827C186.869 166.221 187.374 166.802 187.739 167.324C188.119 167.867 188.45 168.496 188.744 169.153C189.331 170.467 189.862 172.11 190.345 173.904C191.313 177.505 192.162 182.007 192.86 186.363C193.561 190.733 194.12 195.015 194.504 198.202C194.697 199.796 194.845 201.118 194.946 202.043C194.996 202.506 195.034 202.869 195.06 203.117C195.061 203.128 195.062 203.138 195.063 203.147L195.342 203.146C195.342 203.196 195.34 336.821 195.34 402.033C195.34 403.294 195.696 404.267 196.407 404.952C197.158 405.601 198.167 405.926 199.432 405.926C200.697 405.926 201.686 405.601 202.397 404.952C203.149 404.267 203.524 403.294 203.524 402.033V204.606L203.472 204.587C203.456 204.633 203.487 204.547 203.523 204.225C203.524 204.221 203.524 204.216 203.524 204.211L203.525 203.043H203.6C203.634 202.077 203.632 200.827 203.607 199.357C203.556 196.341 203.419 192.738 203.337 188.871C203.256 185.083 203.231 181.182 203.418 177.916C203.511 176.284 203.66 174.76 203.895 173.461C204.117 172.227 204.459 170.94 205.075 169.968L212.624 158.053C214.199 155.567 215.798 153.682 217.716 152.091C219.619 150.512 221.756 149.291 224.312 148.054C227.173 146.669 229.669 146.409 231.908 146.24C234.153 146.07 236.035 145.988 238.279 145.204C239.577 144.75 240.747 144.282 241.832 143.791L225.966 133.527ZM306.156 392.984C303.294 393.18 299.941 393.608 297.242 394.489C294.61 395.347 291.934 397.384 289.813 399.378C289.67 399.512 289.531 399.646 289.395 399.778C291.863 399.871 294.879 399.711 297.561 398.837C300.179 397.983 303.232 395.665 305.784 393.33C305.91 393.214 306.034 393.098 306.156 392.984ZM94.5567 392.844C97.0819 395.155 100.1 397.447 102.687 398.29C105.318 399.148 108.275 399.31 110.706 399.222C110.584 399.104 110.459 398.985 110.332 398.865C108.233 396.892 105.587 394.879 102.988 394.031C100.34 393.167 97.0531 392.744 94.2355 392.548C94.341 392.646 94.4482 392.745 94.5567 392.844ZM161.325 373.831C161.673 374.927 162.16 376.284 162.817 377.769C164.498 381.569 167.222 386.051 171.436 389.231C175.649 392.411 180.701 393.799 184.812 394.37C186.418 394.593 187.854 394.687 189.002 394.72C188.654 393.624 188.168 392.267 187.512 390.782C185.831 386.982 183.106 382.5 178.893 379.32C174.679 376.14 169.627 374.752 165.516 374.181C163.91 373.958 162.473 373.864 161.325 373.831ZM285.762 367.392C285.513 367.806 285.255 368.242 284.992 368.697C283.047 372.066 280.913 376.316 279.88 380.16C278.906 383.786 279.289 388.289 280.01 392.075C280.18 392.968 280.366 393.803 280.549 394.558C280.843 394.184 281.15 393.78 281.463 393.351C283.42 390.671 285.549 387.115 286.556 383.367C287.527 379.755 287.097 374.633 286.306 370.148C286.133 369.172 285.947 368.244 285.762 367.392ZM114.368 367.251C114.189 368.078 114.009 368.976 113.842 369.921C113.059 374.36 112.635 379.425 113.594 382.995C114.589 386.7 116.696 390.218 118.631 392.869C118.93 393.279 119.224 393.665 119.505 394.024C119.683 393.29 119.863 392.479 120.028 391.615C120.742 387.869 121.119 383.416 120.156 379.832C119.135 376.031 117.023 371.827 115.099 368.493C114.85 368.061 114.605 367.646 114.368 367.251ZM231.29 350.264C230.188 350.586 228.822 351.041 227.324 351.663C223.491 353.256 218.953 355.878 215.679 360.021C212.404 364.164 210.899 369.19 210.231 373.293C209.971 374.896 209.843 376.331 209.782 377.48C210.885 377.157 212.251 376.703 213.749 376.081C217.582 374.488 222.12 371.866 225.394 367.723C228.669 363.58 230.174 358.554 230.842 354.451C231.102 352.848 231.23 351.412 231.29 350.264ZM130.566 137.461C128.152 136.927 126.825 136.82 124.41 137.046C120.821 137.383 118.512 138.937 116.185 141.218C114.961 142.416 113.842 143.703 112.454 145.192C111.107 146.637 109.595 148.17 107.777 149.619C105.107 151.746 103.342 153.719 101.252 155.803C99.1742 157.875 96.908 159.906 93.4848 161.756C90.1172 163.576 87.0054 163.95 84.3895 164.34C81.7576 164.732 79.5497 165.141 77.1827 166.696C75.6572 167.698 73.8559 169.381 72.3676 170.907C71.6401 171.652 71.0164 172.33 70.5755 172.821C70.3554 173.066 70.1819 173.264 70.0644 173.398C70.0057 173.466 69.961 173.517 69.9317 173.551C69.9171 173.568 69.9063 173.581 69.8995 173.589C69.8963 173.593 69.8938 173.595 69.8924 173.597L69.891 173.599L67.5637 171.611C64.9584 182.116 63.5752 193.105 63.5752 204.418V340.974C63.5752 341.586 63.5796 342.197 63.5877 342.807H87.5206C81.4533 340.636 77.3007 335.898 77.3007 328.601V326.31H126.213L107.325 288.594L111.415 286.54L131.331 326.31H164.686V328.601C164.686 335.898 160.534 340.636 154.466 342.807H166.516C169.846 342.807 173.314 344.011 176.516 345.63C179.748 347.265 182.897 349.419 185.633 351.532C187.499 352.973 189.194 354.412 190.619 355.682L190.477 286.171C190.042 286.139 189.546 286.097 188.996 286.041C186.833 285.822 183.819 285.395 180.392 284.563C173.576 282.908 164.931 279.601 158.17 272.941C151.408 266.281 147.963 257.678 146.197 250.879C145.309 247.462 144.833 244.45 144.578 242.288C144.45 241.205 144.378 240.332 144.337 239.723C144.317 239.418 144.304 239.179 144.297 239.012C144.293 238.929 144.29 238.864 144.289 238.818C144.288 238.795 144.287 238.776 144.287 238.763C144.287 238.756 144.287 238.751 144.287 238.747C144.287 238.744 144.286 238.743 144.286 238.741C144.286 238.74 144.287 238.739 144.287 238.739C144.291 238.738 144.389 238.735 146.533 238.681L144.286 238.737L144.227 236.369L146.592 236.389L146.573 238.68C146.591 236.489 146.593 236.393 146.594 236.389H146.601C146.606 236.389 146.611 236.389 146.618 236.39C146.631 236.39 146.65 236.39 146.672 236.39C146.718 236.391 146.784 236.393 146.867 236.395C147.033 236.4 147.272 236.408 147.576 236.424C148.185 236.454 149.059 236.512 150.141 236.622C152.305 236.841 155.319 237.268 158.745 238.1C165.562 239.755 174.207 243.062 180.968 249.722C185.387 254.075 188.389 259.257 190.432 264.223L190.351 224.403C190.03 224.375 189.682 224.343 189.309 224.304C187.147 224.076 184.134 223.638 180.711 222.793C173.901 221.111 165.269 217.771 158.533 211.085C151.797 204.399 148.385 195.783 146.645 188.977C145.77 185.556 145.306 182.543 145.059 180.38C144.936 179.297 144.867 178.423 144.828 177.813C144.809 177.509 144.797 177.27 144.791 177.103C144.787 177.02 144.785 176.955 144.783 176.909C144.783 176.886 144.782 176.867 144.782 176.854C144.781 176.847 144.781 176.842 144.781 176.837V176.83C144.786 176.829 144.884 176.826 147.028 176.781L144.781 176.828L144.731 174.46L147.096 174.488L147.068 176.78C147.095 174.588 147.097 174.493 147.097 174.489C147.098 174.489 147.099 174.488 147.1 174.488C147.101 174.488 147.103 174.489 147.105 174.489C147.109 174.489 147.115 174.489 147.121 174.489C147.135 174.49 147.153 174.49 147.176 174.49C147.222 174.491 147.288 174.493 147.371 174.496C147.537 174.501 147.776 174.51 148.08 174.527C148.689 174.56 149.562 174.622 150.644 174.735C152.806 174.963 155.819 175.401 159.242 176.246C166.052 177.928 174.685 181.268 181.42 187.954C185.411 191.915 188.235 196.554 190.236 201.092C190.158 200.408 190.067 199.62 189.962 198.751C189.582 195.6 189.031 191.38 188.343 187.089C187.652 182.785 186.834 178.467 185.927 175.096C185.472 173.404 185.014 172.023 184.568 171.025C184.345 170.527 184.149 170.178 183.992 169.953C183.918 169.847 183.867 169.791 183.845 169.768C181.552 168.452 179.765 167.173 178.087 166.018C176.386 164.847 174.747 163.767 172.601 162.713C167.119 160.021 163.346 157.786 158.344 154.286C152.254 150.025 148.609 148.232 142.012 144.295C139.556 142.829 137.582 141.145 136.027 140.025C134.407 138.859 132.84 137.964 130.566 137.461ZM82.0603 330.893C83.1542 337.648 89.0046 339.599 96.0588 339.599H145.928C152.982 339.599 158.833 337.648 159.927 330.893H82.0603ZM291.138 129.266C288.25 129.2 286.187 130.104 283.866 131.413C281.578 132.702 278.813 134.557 275.107 135.597C271.107 136.719 268.205 135.458 266.565 135.206C265.7 135.074 264.799 135.064 263.585 135.443C262.315 135.84 260.613 136.692 258.23 138.445C251.796 143.178 247.87 146.706 239.786 149.53C236.869 150.55 234.349 150.651 232.252 150.809C230.149 150.968 228.363 151.182 226.303 152.18C223.895 153.345 222.13 154.379 220.635 155.62C219.156 156.846 217.86 158.342 216.487 160.509L208.938 172.423C208.817 172.614 208.597 173.168 208.397 174.276C208.209 175.319 208.074 176.639 207.985 178.179C207.809 181.254 207.83 185.004 207.911 188.773C207.99 192.463 208.131 196.324 208.181 199.28C208.181 199.3 208.181 199.32 208.182 199.34C209.806 194.989 212.089 190.544 215.299 186.482C221.572 178.544 230.079 173.718 236.904 170.882C240.331 169.458 243.375 168.519 245.568 167.935C246.666 167.642 247.553 167.438 248.173 167.306C248.483 167.24 248.726 167.192 248.895 167.159C248.98 167.143 249.046 167.131 249.093 167.123C249.116 167.118 249.135 167.115 249.149 167.112C249.155 167.111 249.161 167.11 249.166 167.11C249.167 167.109 249.169 167.109 249.17 167.109C249.171 167.109 249.172 167.108 249.173 167.108C249.173 167.108 249.175 167.108 249.558 169.367L249.174 167.108L251.68 166.681L251.84 169.222L249.558 169.367C251.785 169.225 251.84 169.222 251.841 169.223V169.231C251.841 169.235 251.842 169.241 251.842 169.248C251.843 169.262 251.844 169.281 251.845 169.305C251.848 169.352 251.851 169.419 251.855 169.505C251.862 169.678 251.872 169.926 251.878 170.243C251.892 170.877 251.897 171.79 251.865 172.927C251.802 175.199 251.588 178.382 250.991 182.05C249.803 189.354 247.066 198.755 240.793 206.693C234.52 214.632 226.012 219.458 219.187 222.294C215.76 223.718 212.717 224.657 210.524 225.241C209.556 225.499 208.751 225.687 208.15 225.819C208.15 250.046 208.15 290.165 208.15 329.06H250.21C231.568 322.445 218.216 304.631 218.216 283.694V269.03H314.294V273.158C324.432 273.342 332.594 281.629 332.594 291.827C332.594 302.14 324.247 310.501 313.951 310.501H306.153C300.447 319.002 292.105 325.58 282.3 329.06H334.425V204.418C334.425 190.374 332.294 176.829 328.338 164.089C327.921 164.46 327.911 164.469 327.911 164.469C327.911 164.469 327.91 164.468 327.91 164.468C327.909 164.466 327.907 164.465 327.905 164.462C327.9 164.457 327.894 164.45 327.885 164.44C327.868 164.421 327.842 164.391 327.807 164.353C327.738 164.275 327.636 164.16 327.504 164.012C327.238 163.715 326.851 163.283 326.366 162.745C325.396 161.668 324.036 160.168 322.474 158.475C319.343 155.078 315.435 150.938 312.251 147.873C310.024 145.729 308.199 143.417 306.567 141.225C304.897 138.981 303.501 136.971 301.975 135.153C299.03 131.645 296.021 129.376 291.138 129.266ZM222.791 283.694C222.791 307.736 242.25 327.227 266.255 327.227C290.259 327.227 309.719 307.736 309.719 283.694V273.612H222.791V283.694ZM315.152 277.788C315.119 278.821 315.068 280.138 314.988 281.602C314.8 285.044 314.451 289.411 313.795 292.832C313.158 296.156 311.917 300.227 310.862 303.404C310.558 304.321 310.265 305.171 310.004 305.918H313.951C321.72 305.918 328.019 299.61 328.019 291.827C328.019 284.451 322.359 278.399 315.152 277.788ZM149.121 241.75C149.357 243.75 149.8 246.55 150.625 249.726C152.284 256.112 155.439 263.824 161.378 269.674C167.316 275.524 175.067 278.554 181.471 280.109C184.654 280.882 187.456 281.279 189.457 281.482C189.676 281.504 189.886 281.523 190.086 281.541C190.065 281.342 190.042 281.132 190.016 280.913C189.78 278.913 189.337 276.113 188.512 272.937C186.853 266.551 183.699 258.839 177.76 252.99C171.821 247.14 164.07 244.108 157.667 242.553C154.483 241.78 151.681 241.384 149.68 241.181C149.461 241.159 149.251 241.139 149.052 241.121C149.073 241.321 149.095 241.531 149.121 241.75ZM246.743 172.363C244.706 172.906 241.86 173.783 238.656 175.114C232.219 177.789 224.493 182.231 218.886 189.326C213.279 196.422 210.736 204.973 209.615 211.863C209.058 215.292 208.858 218.267 208.799 220.378C208.793 220.579 208.79 220.773 208.787 220.958C208.966 220.912 209.153 220.865 209.348 220.813C211.385 220.27 214.231 219.393 217.435 218.062C223.872 215.387 231.598 210.945 237.205 203.849C242.813 196.754 245.355 188.203 246.476 181.313C247.034 177.884 247.233 174.909 247.292 172.798C247.298 172.597 247.301 172.403 247.304 172.218C247.125 172.264 246.938 172.311 246.743 172.363ZM149.605 179.86C149.833 181.861 150.265 184.662 151.077 187.841C152.712 194.234 155.837 201.957 161.754 207.83C167.67 213.703 175.408 216.763 181.806 218.343C184.987 219.128 187.787 219.536 189.787 219.746C189.979 219.766 190.164 219.784 190.341 219.8L190.339 219.109C190.109 217.113 189.679 214.34 188.876 211.198C187.241 204.805 184.116 197.082 178.2 191.209C172.284 185.336 164.545 182.275 158.147 180.696C154.967 179.91 152.166 179.503 150.166 179.292C149.946 179.269 149.736 179.249 149.537 179.231C149.557 179.43 149.58 179.64 149.605 179.86ZM103.027 108.721C86.7777 125.068 74.6646 145.542 68.3916 168.437C68.613 168.203 68.8481 167.957 69.0948 167.704C70.6235 166.137 72.7111 164.153 74.6735 162.864C77.9305 160.725 80.9986 160.213 83.7162 159.808C86.4496 159.4 88.7611 159.102 91.3125 157.723C94.1916 156.168 96.101 154.474 98.0238 152.556C99.9338 150.652 101.995 148.37 104.929 146.032C106.488 144.79 107.821 143.446 109.11 142.064C110.358 140.725 111.666 139.235 112.985 137.942C115.743 135.24 118.978 132.954 123.983 132.484C126.916 132.209 128.721 132.36 131.552 132.986C134.619 133.665 136.752 134.907 138.67 136.284L169.526 126.537C168.762 123.853 168.351 121.019 168.346 118.09L102.922 109.523L103.027 108.721ZM230.111 118.039C230.111 122.039 229.353 125.861 227.973 129.37L246.432 141.311C249.25 139.536 251.882 137.429 255.522 134.752C258.143 132.823 260.303 131.669 262.223 131.069C264.198 130.452 265.813 130.455 267.258 130.677C270.241 131.134 271.141 131.951 273.873 131.185C276.893 130.337 278.986 128.905 281.621 127.419C284.223 125.953 287.146 124.592 291.241 124.685C297.954 124.837 302.087 128.166 305.477 132.203C307.117 134.157 308.686 136.406 310.235 138.485C311.821 140.616 313.468 142.689 315.422 144.569C318.391 147.428 321.929 151.151 324.902 154.358C319.806 141.51 312.806 129.627 304.251 119.058L230.11 117.861C230.11 117.92 230.111 117.98 230.111 118.039ZM143.229 139.649C143.583 139.883 143.955 140.12 144.354 140.358C150.709 144.15 154.694 146.143 160.964 150.53C162.028 151.274 163.032 151.957 164.006 152.598L176.141 138.582C174.1 136.283 172.397 133.677 171.108 130.843L143.229 139.649ZM199.229 91.6903C184.7 91.6903 172.922 103.487 172.922 118.039C172.922 132.591 184.7 144.388 199.229 144.388C213.758 144.388 225.536 132.591 225.536 118.039C225.536 103.487 213.758 91.6903 199.229 91.6903ZM226.533 103.576C228.108 106.552 229.213 109.818 229.746 113.272L300.315 114.411C289.043 101.692 275.42 91.111 260.129 83.3502L226.533 103.576ZM137.438 83.5704C126.1 89.3758 115.688 96.7353 106.48 105.367L168.675 113.512C169.243 109.634 170.529 105.99 172.394 102.72L137.438 83.5704ZM227.362 71.9165L216.81 92.6063C219.611 94.5524 222.075 96.9511 224.096 99.6961L255.198 80.9726C246.226 76.8687 236.729 73.717 226.835 71.6467L227.362 71.9165ZM170.765 71.7304C160.901 73.8258 151.433 76.9967 142.49 81.1149L174.963 98.904C176.814 96.5524 178.999 94.4766 181.445 92.7478L170.634 71.7989L170.765 71.7304ZM197.223 68.7894C189.752 68.8856 182.427 69.5884 175.294 70.8497L185.377 90.3867C188.843 88.6415 192.682 87.5312 196.743 87.2072L197.223 68.7894ZM201.32 87.1781C205.441 87.4541 209.34 88.5396 212.86 90.2771L222.763 70.86C215.938 69.6501 208.937 68.9518 201.8 68.8069L201.32 87.1781Z" fill="white"/>
<path d="M122.077 71.2262C119.564 72.7593 116.957 73.5249 114.257 73.5228C111.567 73.4767 109.001 72.6805 106.559 71.1344C104.099 69.5609 101.97 67.2989 100.17 64.3486C98.3702 61.3982 97.3417 58.4834 97.0846 55.604C96.8108 52.6973 97.277 50.0514 98.4834 47.6662C99.7003 45.237 101.565 43.2558 104.079 41.7226C106.565 40.2061 109.152 39.4709 111.842 39.517C114.542 39.5191 117.122 40.3069 119.581 41.8804C122.024 43.4266 124.145 45.6748 125.945 48.6252C127.744 51.5755 128.781 54.5041 129.055 57.4107C129.312 60.2901 128.832 62.9444 127.615 65.3736C126.409 67.7588 124.563 69.7097 122.077 71.2262ZM119.827 67.5382C121.903 66.2717 123.525 64.7204 124.691 62.8843C125.841 61.0208 126.386 58.9643 126.325 56.7146C126.292 54.4483 125.551 52.1267 124.101 49.7501C122.651 47.3734 120.926 45.6518 118.926 44.5854C116.953 43.5022 114.884 43.0592 112.717 43.2562C110.534 43.4259 108.405 44.144 106.329 45.4106C104.252 46.6771 102.626 48.2504 101.449 50.1305C100.282 51.9666 99.7155 54.0178 99.7486 56.2842C99.809 58.5339 100.564 60.847 102.014 63.2237C103.464 65.6004 105.175 67.3303 107.148 68.4134C109.148 69.4799 111.239 69.9283 113.422 69.7586C115.616 69.5449 117.751 68.8048 119.827 67.5382ZM156.975 30.5095C160.065 29.5634 162.556 29.721 164.449 30.9824C166.371 32.2344 167.918 34.7728 169.089 38.5976L172.812 50.7604L170.472 51.477L166.748 39.3142C166.177 37.4477 165.44 36.1339 164.538 35.3727C163.656 34.5715 162.679 34.1678 161.607 34.1616C160.555 34.1154 159.31 34.3124 157.872 34.7527C155.822 35.3803 154.306 36.3298 153.323 37.6012C152.361 38.8326 152.292 40.7947 153.117 43.4873L156.84 55.6501L154.545 56.3527L150.822 44.1899C150.25 42.3234 149.513 41.0095 148.611 40.2483C147.73 39.4471 146.753 39.0434 145.68 39.0372C144.598 39.0004 143.338 39.2021 141.9 39.6424C139.85 40.27 138.333 41.2195 137.35 42.4909C136.389 43.7223 136.32 45.6844 137.144 48.377L140.868 60.5398L138.527 61.2564L131.488 38.2618L133.369 37.6857L135.5 43.007L135.599 43.3283C135.531 41.1402 135.989 39.4104 136.972 38.139C137.945 36.837 139.289 35.9237 141.002 35.3992C143.542 34.6217 145.669 34.573 147.383 35.253C149.097 35.933 150.528 37.436 151.675 39.7621C151.385 37.1738 151.713 35.1321 152.661 33.6371C153.64 32.1328 155.078 31.0903 156.975 30.5095ZM198.307 15.0413L200.463 14.9076L202.542 48.4433L200.386 48.5769L199.48 33.965L178.161 35.2865L179.067 49.8984L176.911 50.032L174.832 16.4964L176.988 16.3628L177.894 30.9747L199.213 29.6532L198.307 15.0413ZM218.384 50.6097C214.673 50.1199 211.948 48.6307 210.211 46.142C208.473 43.6533 207.856 40.5055 208.358 36.6985C208.86 32.8915 210.273 30.0116 212.597 28.0587C214.92 26.1059 217.938 25.3744 221.65 25.8642C225.361 26.354 228.086 27.8432 229.823 30.3319C231.561 32.8205 232.178 35.9684 231.676 39.7754C231.174 43.5824 229.761 46.4623 227.437 48.4151C225.114 50.3679 222.096 51.0995 218.384 50.6097ZM218.949 46.3268C221.932 46.7203 224.343 46.4252 226.183 45.4415C228.024 44.4579 229.141 42.475 229.534 39.4928C229.928 36.5107 229.364 34.3059 227.841 32.8784C226.319 31.451 224.067 30.5406 221.084 30.1471C218.134 29.7577 215.723 30.0528 213.85 31.0323C212.01 32.016 210.893 33.9989 210.499 36.9811C210.106 39.9632 210.67 42.168 212.193 43.5954C213.715 45.0228 215.967 45.9333 218.949 46.3268ZM268.087 39.7096C271.111 40.8494 272.987 42.4967 273.714 44.6514C274.47 46.8175 274.144 49.772 272.733 53.515L268.247 65.4178L265.956 64.5545L270.442 52.6517C271.131 50.8251 271.35 49.3348 271.101 48.1809C270.893 47.0082 270.367 46.0916 269.521 45.4311C268.717 44.7519 267.612 44.147 266.204 43.6166C264.198 42.8605 262.417 42.6853 260.862 43.091C259.349 43.478 258.095 44.9891 257.102 47.6242L252.616 59.5269L250.37 58.6805L254.856 46.7778C255.545 44.9512 255.764 43.4609 255.515 42.307C255.307 41.1343 254.781 40.2177 253.936 39.5572C253.101 38.8667 251.981 38.2562 250.573 37.7258C248.567 36.9697 246.787 36.7945 245.232 37.2002C243.718 37.5872 242.464 39.0983 241.471 41.7333L236.985 53.6361L234.695 52.7728L243.175 30.2698L245.017 30.9639L243.452 36.4781L243.333 36.7926C244.617 35.0194 246.037 33.93 247.592 33.5243C249.158 33.0886 250.779 33.1868 252.456 33.8188C254.942 34.7554 256.655 36.0167 257.596 37.6025C258.537 39.1883 258.751 41.2523 258.238 43.7946C259.59 41.5683 261.097 40.1532 262.761 39.5492C264.455 38.9565 266.23 39.0099 268.087 39.7096ZM282.667 69.8393C284.355 70.9413 285.923 71.5828 287.372 71.764C288.847 71.9627 290.307 71.5403 291.753 70.4967L293.177 71.8275C291.583 74.0353 289.682 75.2785 287.475 75.5574C285.268 75.8362 282.878 75.136 280.305 73.4569C277.492 71.6203 275.876 69.2662 275.457 66.3945C275.039 63.5229 275.914 60.4257 278.083 57.1029C280.252 53.7801 282.735 51.7324 285.532 50.9597C288.329 50.187 291.135 50.7189 293.948 52.5555C295.985 53.8848 297.375 55.3269 298.117 56.8818C298.905 58.4274 299.033 60.2501 298.503 62.3499C297.991 64.4229 296.773 66.9332 294.849 69.8808L279.132 59.6223C278.097 61.7358 277.947 63.6633 278.683 65.4047C279.436 67.1192 280.764 68.5974 282.667 69.8393ZM291.587 56.173C289.631 54.8962 287.677 54.2894 285.725 54.3527C283.79 54.3893 282.052 55.4135 280.509 57.4255L294.631 66.701C295.573 64.9079 296.001 63.3727 295.918 62.0954C295.852 60.7913 295.438 59.6992 294.675 58.8191C293.956 57.9296 292.927 57.0476 291.587 56.173Z" fill="white"/>
<path d="M140.902 491.446C141.261 489.439 140.976 487.806 140.046 486.547C139.117 485.288 137.693 484.192 135.774 483.259C134.316 482.55 132.848 482.204 131.369 482.22C129.919 482.226 128.564 482.647 127.304 483.481C126.063 484.325 125.037 485.581 124.225 487.25C123.414 488.919 123.059 490.502 123.161 491.999C123.283 493.505 123.784 494.84 124.665 496.004C125.575 497.158 126.758 498.09 128.216 498.799C130.173 499.751 131.953 500.189 133.555 500.114C135.166 500.02 136.655 499.155 138.02 497.518L139.315 498.147C137.585 500.437 135.663 501.827 133.55 502.318C131.457 502.818 129.259 502.508 126.957 501.389C125.192 500.53 123.824 499.343 122.853 497.827C121.911 496.301 121.434 494.575 121.422 492.648C121.42 490.701 121.923 488.692 122.93 486.62C123.938 484.548 125.204 482.922 126.727 481.741C128.259 480.541 129.912 479.851 131.684 479.669C133.486 479.477 135.269 479.811 137.034 480.669C139.298 481.77 140.883 483.265 141.792 485.154C142.719 487.052 142.854 489.359 142.197 492.076L140.902 491.446ZM151.82 494.228C154.005 494.957 155.388 496.037 155.968 497.467C156.555 498.877 156.423 500.857 155.572 503.407L152.889 511.451L151.341 510.935L154.024 502.89C154.429 501.676 154.544 500.691 154.369 499.936C154.2 499.16 153.819 498.549 153.225 498.104C152.652 497.665 151.88 497.284 150.908 496.96C149.775 496.582 148.804 496.359 147.994 496.291C147.205 496.231 146.459 496.443 145.758 496.929C145.076 497.421 144.523 498.305 144.098 499.579L141.414 507.624L139.897 507.118L146.984 485.868L148.198 486.273L147.297 489.987L145.201 496.271C146.76 493.957 148.966 493.276 151.82 494.228ZM163.278 494.132C162.905 494.039 162.608 493.822 162.385 493.481C162.183 493.145 162.131 492.78 162.229 492.387C162.322 492.014 162.537 491.727 162.873 491.525C163.23 491.328 163.595 491.276 163.967 491.369C164.34 491.462 164.627 491.677 164.829 492.013C165.052 492.354 165.117 492.711 165.024 493.084C164.926 493.477 164.698 493.772 164.341 493.969C164.005 494.171 163.651 494.225 163.278 494.132ZM161.735 497.408L163.132 497.757L159.259 513.281L157.862 512.932L161.735 497.408ZM177.183 511.595C177.097 512.121 177.119 512.514 177.249 512.773C177.401 513.036 177.65 513.228 177.998 513.35C178.349 513.45 178.925 513.566 179.725 513.697L179.208 516.855C178.092 516.672 177.255 516.373 176.696 515.958C176.141 515.521 175.792 514.945 175.649 514.23C175.531 513.497 175.569 512.541 175.761 511.362L175.849 510.826C175.185 512.641 174.312 513.946 173.231 514.742C172.171 515.542 170.988 515.835 169.682 515.621C168.061 515.356 166.821 514.678 165.962 513.586C165.124 512.498 164.826 511.217 165.067 509.743C165.311 508.248 166.011 507.141 167.166 506.422C168.342 505.707 169.816 505.483 171.588 505.751L176.557 506.499C176.68 505.482 176.632 504.717 176.413 504.206C176.219 503.677 175.9 503.311 175.458 503.109C175.015 502.907 174.341 502.732 173.436 502.584C172.194 502.381 171.131 502.402 170.248 502.646C169.365 502.891 168.722 503.586 168.318 504.73L167.091 504.303C167.559 502.498 168.373 501.226 169.531 500.486C170.714 499.729 172.169 499.491 173.895 499.773C175.264 499.997 176.27 500.389 176.913 500.948C177.581 501.489 177.973 502.267 178.088 503.28C178.225 504.297 178.152 505.668 177.869 507.395L177.183 511.595ZM170.147 512.779C171.579 513.013 172.795 512.845 173.797 512.273C174.801 511.681 175.563 510.53 176.08 508.821L171.217 508.025C169.911 507.812 168.831 507.873 167.976 508.209C167.125 508.523 166.629 509.112 166.488 509.976C166.36 510.755 166.638 511.373 167.319 511.83C168.026 512.27 168.968 512.586 170.147 512.779ZM191.613 501.759C193.915 501.865 195.539 502.527 196.487 503.746C197.436 504.942 197.848 506.884 197.724 509.569L197.334 518.04L195.735 517.966L196.126 509.495C196.185 508.216 196.027 507.237 195.653 506.558C195.279 505.857 194.746 505.374 194.054 505.107C193.383 504.841 192.525 504.684 191.481 504.636C190.287 504.581 189.292 504.631 188.495 504.787C187.719 504.943 187.059 505.35 186.516 506.009C185.995 506.668 185.703 507.669 185.641 509.012L185.25 517.483L183.62 517.407L184.359 501.392L185.669 501.453L185.813 505.272L185.802 505.527C186.671 502.877 188.609 501.62 191.613 501.759ZM215.422 501.152L216.325 514.883C216.466 517.033 216.334 518.752 215.927 520.04C215.52 521.328 214.823 522.272 213.836 522.871C212.851 523.492 211.517 523.858 209.835 523.968C207.749 524.105 206.121 523.732 204.951 522.846C203.783 521.983 202.845 520.729 202.138 519.087L203.399 518.747C203.767 519.792 204.453 520.474 205.457 520.793C206.462 521.111 207.858 521.212 209.646 521.094C210.966 521.008 211.99 520.812 212.718 520.507C213.448 520.224 213.988 519.654 214.338 518.797C214.689 517.962 214.808 516.693 214.696 514.99L214.602 513.553C213.968 516.267 212.246 517.716 209.436 517.901C206.924 518.067 204.973 517.489 203.582 516.17C202.211 514.828 201.436 512.805 201.258 510.101C201.081 507.398 201.584 505.302 202.769 503.813C203.974 502.301 205.832 501.462 208.344 501.297C211.154 501.112 213.051 502.324 214.035 504.931L214.033 504.899L214.112 501.238L215.422 501.152ZM209.247 515.027C210.397 514.952 211.346 514.761 212.096 514.455C212.844 514.128 213.426 513.555 213.843 512.737C214.259 511.918 214.418 510.753 214.318 509.242C214.219 507.731 213.909 506.597 213.389 505.84C212.869 505.083 212.217 504.602 211.434 504.397C210.649 504.171 209.682 504.095 208.533 504.171C206.596 504.298 205.101 504.814 204.049 505.717C203.018 506.618 202.567 508.048 202.695 510.007C202.824 511.965 203.459 513.324 204.599 514.083C205.761 514.84 207.31 515.155 209.247 515.027ZM249.148 486.457L255.601 507.908L254.222 508.323L248.756 490.151L246.561 510.627L243.803 511.457L231.019 495.62L236.448 513.669L235.069 514.084L228.617 492.633L230.762 491.988L244.832 509.877L247.003 487.102L249.148 486.457ZM268.88 496.892C269.103 497.376 269.341 497.689 269.594 497.831C269.867 497.964 270.181 497.983 270.537 497.89C270.885 497.776 271.426 497.55 272.163 497.211L273.502 500.117C272.475 500.59 271.614 500.811 270.918 500.78C270.213 500.729 269.602 500.447 269.084 499.934C268.576 499.393 268.072 498.58 267.572 497.495L267.344 497.001C267.81 498.877 267.817 500.447 267.366 501.712C266.935 502.968 266.119 503.873 264.918 504.426C263.426 505.114 262.018 505.246 260.696 504.822C259.392 504.389 258.428 503.495 257.803 502.139C257.169 500.763 257.129 499.454 257.684 498.212C258.258 496.96 259.355 495.95 260.973 495.18L265.509 493.019C265.042 492.107 264.574 491.5 264.106 491.199C263.649 490.87 263.181 490.745 262.701 490.825C262.221 490.906 261.564 491.138 260.731 491.522C259.588 492.048 258.719 492.66 258.124 493.357C257.53 494.054 257.385 494.99 257.692 496.164L256.435 496.497C255.814 494.74 255.776 493.23 256.322 491.969C256.878 490.679 257.951 489.667 259.539 488.935C260.799 488.355 261.851 488.116 262.698 488.219C263.554 488.294 264.314 488.719 264.977 489.494C265.659 490.261 266.366 491.438 267.098 493.027L268.88 496.892ZM263.712 501.811C265.03 501.203 265.943 500.383 266.453 499.349C266.955 498.296 266.941 496.916 266.413 495.21L261.938 497.273C260.736 497.826 259.876 498.482 259.355 499.238C258.826 499.976 258.744 500.741 259.11 501.536C259.441 502.253 260.017 502.61 260.838 502.607C261.669 502.576 262.627 502.311 263.712 501.811ZM269.255 480.368C268.919 480.555 268.553 480.599 268.158 480.502C267.781 480.394 267.494 480.163 267.297 479.809C267.11 479.473 267.071 479.117 267.178 478.74C267.304 478.352 267.535 478.065 267.871 477.879C268.207 477.692 268.563 477.653 268.94 477.76C269.336 477.858 269.627 478.074 269.814 478.41C270.011 478.764 270.046 479.135 269.92 479.522C269.812 479.9 269.59 480.181 269.255 480.368ZM270.365 483.815L271.624 483.115L279.398 497.099L278.14 497.799L270.365 483.815Z" fill="white"/>
</svg>
