<svg width="280" height="418" viewBox="0 0 280 418" fill="none" xmlns="http://www.w3.org/2000/svg">
<path d="M51.0971 220.251L47.0076 222.306L44.6293 217.557L48.7188 215.502L51.0971 220.251Z" fill="white"/>
<path d="M64.6684 89.5404C65.866 89.1374 67.163 89.7833 67.5654 90.9827C67.9678 92.1822 67.323 93.4813 66.1254 93.8843L66.1183 93.887C66.111 93.8895 66.0986 93.8934 66.0821 93.8991C66.0488 93.9105 65.9969 93.9285 65.9279 93.9528C65.7897 94.0014 65.5823 94.0761 65.314 94.1752C64.7771 94.3735 63.9977 94.6705 63.0457 95.0621C61.1382 95.8468 58.5536 97.0021 55.8358 98.4846C53.1108 99.971 50.301 101.76 47.9155 103.801C45.5152 105.854 43.6615 108.063 42.6826 110.359C41.8695 112.266 41.7496 113.831 42.0205 115.177C42.2962 116.547 43.0165 117.886 44.1941 119.253C46.6242 122.075 50.5877 124.583 55.1169 127.368C59.4826 130.053 64.3401 132.978 67.8469 136.527C71.4417 140.165 73.8649 144.711 72.8916 150.547C71.6474 158.008 65.8187 161.862 61.2991 165.089C56.4961 168.519 53.0262 171.296 52.8427 176.484C52.7176 180.023 54.5317 182.492 56.8853 185.688C59.1268 188.732 61.8911 192.496 61.2281 197.926C60.7294 202.01 58.2487 206.341 56.1324 209.445C55.0425 211.044 53.9831 212.41 53.1966 213.378C52.8025 213.862 52.4746 214.25 52.2431 214.518C52.1274 214.652 52.0352 214.756 51.971 214.829C51.9389 214.865 51.9138 214.894 51.8959 214.914C51.8871 214.924 51.8797 214.931 51.8745 214.937C51.8719 214.94 51.8699 214.942 51.8682 214.944C51.8674 214.945 51.8666 214.946 51.866 214.947L51.8651 214.948C51.8614 214.945 51.7867 214.877 50.17 213.409L51.8647 214.949C51.0161 215.886 49.5694 215.957 48.6335 215.107C47.6978 214.257 47.627 212.809 48.4748 211.871C48.4751 211.871 48.4757 211.87 48.4766 211.869C48.479 211.866 48.4835 211.861 48.4896 211.855C48.5018 211.841 48.5211 211.819 48.5472 211.789C48.5995 211.73 48.6791 211.64 48.7818 211.521C48.9874 211.283 49.2861 210.93 49.649 210.484C50.3765 209.589 51.3544 208.327 52.3543 206.861C54.418 203.833 56.3311 200.283 56.6869 197.37C57.1054 193.942 55.5112 191.542 53.2033 188.408C51.0075 185.426 48.0806 181.7 48.2707 176.322C48.5434 168.61 54.0516 164.636 58.643 161.358C63.5177 157.877 67.4999 155.064 68.379 149.792C69.032 145.877 67.5424 142.733 64.5951 139.75C61.56 136.679 57.2468 134.055 52.723 131.273C48.3624 128.592 43.7166 125.715 40.7297 122.246C39.1989 120.468 38.0084 118.435 37.5351 116.083C37.057 113.706 37.3498 111.198 38.4747 108.56C39.8341 105.371 42.2524 102.619 44.9438 100.317C47.6501 98.0016 50.7529 96.0394 53.6478 94.4602C56.5497 92.8773 59.2925 91.6523 61.3076 90.8234C62.3169 90.4083 63.1483 90.0908 63.731 89.8756C64.0225 89.768 64.2524 89.6854 64.4115 89.6295C64.4909 89.6015 64.5529 89.5803 64.596 89.5655C64.6175 89.5581 64.6344 89.5521 64.6465 89.548C64.6525 89.546 64.6577 89.5443 64.6613 89.5431C64.663 89.5425 64.6646 89.5417 64.6657 89.5413C64.6663 89.5411 64.6672 89.541 64.6675 89.5409C64.6688 89.5429 64.6913 89.6089 65.3458 91.56L64.6684 89.5404Z" fill="white"/>
<path d="M181.611 155.844C182.62 155.082 184.054 155.283 184.815 156.292L183.268 157.462C184.756 156.337 184.813 156.294 184.816 156.293L184.816 156.294C184.817 156.295 184.817 156.296 184.818 156.296C184.819 156.298 184.821 156.3 184.822 156.302C184.826 156.307 184.831 156.314 184.837 156.322C184.848 156.337 184.865 156.359 184.885 156.386C184.926 156.442 184.983 156.521 185.055 156.621C185.198 156.821 185.4 157.108 185.64 157.466C186.119 158.179 186.761 159.183 187.408 160.351C188.645 162.584 190.123 165.796 190.178 168.777C190.265 173.51 186.977 176.154 184.68 178.049C182.113 180.166 180.52 181.555 180.336 183.906C180.168 186.037 181.031 188.925 182.131 191.53C182.659 192.779 183.202 193.873 183.612 194.654C183.817 195.044 183.988 195.353 184.106 195.561C184.164 195.665 184.21 195.744 184.239 195.795C184.254 195.821 184.265 195.839 184.272 195.851C184.275 195.856 184.277 195.86 184.279 195.862L184.279 195.863L184.279 195.863C184.926 196.95 184.571 198.356 183.486 199.004C182.401 199.652 180.996 199.297 180.349 198.21L182.314 197.036C180.43 198.161 180.352 198.208 180.349 198.209L180.347 198.206C180.346 198.204 180.344 198.202 180.343 198.199C180.339 198.194 180.335 198.186 180.329 198.176C180.318 198.158 180.303 198.131 180.284 198.098C180.245 198.031 180.19 197.935 180.122 197.814C179.985 197.571 179.792 197.223 179.564 196.79C179.11 195.925 178.508 194.712 177.918 193.315C176.782 190.625 175.515 186.857 175.775 183.548C176.136 178.942 179.525 176.365 181.772 174.512C184.288 172.437 185.645 171.105 185.604 168.861C185.571 167.087 184.599 164.726 183.407 162.574C182.84 161.55 182.271 160.659 181.845 160.026C181.633 159.71 181.457 159.46 181.337 159.292C181.277 159.208 181.231 159.145 181.201 159.105C181.187 159.084 181.175 159.069 181.169 159.061C181.166 159.057 181.164 159.054 181.163 159.052C180.402 158.042 180.603 156.606 181.611 155.844Z" fill="white"/>
<path d="M230.371 156.069C231.469 155.443 232.866 155.827 233.491 156.927L231.806 157.887C233.476 156.935 233.491 156.927 233.491 156.927L233.491 156.928C233.492 156.929 233.492 156.93 233.493 156.931C233.494 156.932 233.495 156.934 233.496 156.937C233.499 156.942 233.503 156.949 233.508 156.958C233.518 156.975 233.531 156.999 233.547 157.029C233.581 157.089 233.628 157.174 233.686 157.283C233.802 157.5 233.966 157.811 234.158 158.196C234.542 158.965 235.049 160.044 235.541 161.285C236.481 163.658 237.536 167.034 237.207 169.998C236.687 174.702 233.087 176.902 230.565 178.485C227.748 180.255 225.99 181.427 225.506 183.735C225.067 185.827 225.552 188.802 226.309 191.526C226.672 192.833 227.07 193.988 227.377 194.815C227.53 195.228 227.659 195.556 227.749 195.778C227.794 195.889 227.829 195.973 227.852 196.027C227.864 196.055 227.872 196.075 227.877 196.087C227.88 196.093 227.882 196.097 227.882 196.099L227.883 196.1C228.385 197.261 227.852 198.61 226.693 199.113C225.534 199.616 224.187 199.083 223.684 197.922L225.783 197.011C223.779 197.881 223.689 197.919 223.684 197.921L223.683 197.917C223.682 197.915 223.681 197.913 223.679 197.91C223.677 197.904 223.673 197.896 223.669 197.886C223.661 197.866 223.649 197.838 223.634 197.802C223.604 197.731 223.562 197.629 223.509 197.5C223.405 197.241 223.259 196.871 223.088 196.412C222.749 195.497 222.307 194.216 221.901 192.754C221.12 189.94 220.347 186.041 221.029 182.792C221.978 178.271 225.669 176.152 228.135 174.603C230.896 172.869 232.413 171.724 232.66 169.493C232.855 167.729 232.194 165.262 231.288 162.975C230.857 161.886 230.408 160.93 230.066 160.246C229.896 159.906 229.754 159.635 229.657 159.454C229.608 159.363 229.57 159.294 229.546 159.25C229.534 159.228 229.525 159.212 229.52 159.203C229.517 159.198 229.515 159.195 229.514 159.193C228.89 158.094 229.273 156.695 230.371 156.069Z" fill="white"/>
<path d="M204.815 137.872C205.821 137.107 207.256 137.303 208.021 138.31L206.288 139.629C208.02 138.311 208.021 138.311 208.021 138.311L208.022 138.312C208.022 138.313 208.023 138.314 208.024 138.315C208.025 138.316 208.027 138.319 208.029 138.323C208.034 138.329 208.04 138.337 208.048 138.348C208.064 138.369 208.087 138.399 208.115 138.437C208.172 138.514 208.253 138.624 208.355 138.766C208.559 139.048 208.846 139.455 209.19 139.963C209.876 140.976 210.792 142.404 211.716 144.06C213.507 147.272 215.547 151.73 215.619 155.78C215.731 162.078 211.37 165.616 207.975 168.4C204.302 171.411 201.575 173.69 201.264 177.594C200.998 180.938 202.342 185.309 203.95 189.095C204.732 190.936 205.535 192.544 206.142 193.692C206.446 194.265 206.698 194.721 206.874 195.03C206.961 195.184 207.03 195.303 207.075 195.38C207.098 195.418 207.115 195.447 207.125 195.465C207.131 195.474 207.135 195.481 207.137 195.484C207.138 195.485 207.138 195.486 207.139 195.487L207.196 195.589C207.766 196.659 207.403 198 206.354 198.631C205.271 199.282 203.866 198.93 203.216 197.845L205.177 196.666C203.299 197.795 203.219 197.843 203.215 197.844L203.215 197.844L203.208 197.832C203.204 197.825 203.197 197.814 203.19 197.802C203.175 197.776 203.153 197.74 203.126 197.693C203.072 197.6 202.993 197.466 202.896 197.294C202.701 196.95 202.426 196.455 202.1 195.838C201.448 194.606 200.585 192.878 199.74 190.889C198.095 187.017 196.343 181.76 196.703 177.229C197.194 171.064 201.731 167.596 205.077 164.854C208.7 161.883 211.112 159.659 211.044 155.861C210.994 153.028 209.467 149.425 207.722 146.295C206.878 144.781 206.035 143.468 205.403 142.534C205.088 142.068 204.826 141.699 204.646 141.449C204.556 141.324 204.486 141.229 204.441 141.167C204.418 141.136 204.4 141.114 204.39 141.099C204.384 141.092 204.381 141.087 204.379 141.085C204.378 141.083 204.377 141.083 204.377 141.082C203.613 140.075 203.809 138.638 204.815 137.872Z" fill="white"/>
<path fill-rule="evenodd" clip-rule="evenodd" d="M140 0.195801C217.32 0.195801 280 62.9753 280 140.418V276.974C280 354.416 217.32 417.196 140 417.196C62.9821 417.196 0.489612 354.906 0.00268076 277.88L0 276.974V140.418C0 62.9753 62.6801 0.195801 140 0.195801ZM149.15 299.924C150.117 297.629 151.397 295.321 153.091 293.177C157.031 288.191 162.351 285.184 166.571 283.431C168.696 282.548 170.583 281.965 171.946 281.602C172.628 281.421 173.182 281.294 173.572 281.21C173.766 281.169 173.921 281.138 174.03 281.117C174.084 281.106 174.127 281.099 174.158 281.093C174.174 281.09 174.187 281.088 174.197 281.086C174.201 281.086 174.205 281.085 174.209 281.085C174.21 281.084 174.212 281.083 174.213 281.083C174.214 281.083 174.215 281.083 174.215 281.083C174.216 281.084 174.222 281.114 174.571 283.171L174.216 281.083L176.722 280.657L176.883 283.197L174.6 283.342C176.804 283.202 176.88 283.198 176.883 283.198C176.883 283.198 176.883 283.199 176.883 283.2C176.883 283.201 176.883 283.203 176.883 283.205C176.883 283.208 176.884 283.212 176.884 283.217C176.885 283.227 176.886 283.24 176.886 283.256C176.888 283.288 176.89 283.332 176.893 283.387C176.897 283.498 176.903 283.655 176.907 283.855C176.916 284.253 176.919 284.823 176.899 285.53C176.86 286.941 176.727 288.915 176.357 291.189C175.622 295.706 173.922 301.581 169.982 306.567C166.041 311.553 160.722 314.56 156.501 316.314C154.376 317.197 152.489 317.779 151.127 318.142C150.445 318.323 149.891 318.451 149.501 318.534C149.363 318.564 149.245 318.586 149.15 318.605C149.15 325.531 149.15 332.056 149.15 338.033C149.15 340.303 148.379 342.088 146.837 343.385C145.614 344.413 143.97 345.021 141.907 345.212C142.048 345.27 142.2 345.333 142.366 345.402C145.061 346.522 146.331 348.01 146.143 349.824C145.993 351.265 143.441 355.501 141.041 358.291C140.218 359.248 140.13 359.245 139.262 358.222C136.745 355.257 134.287 351.121 134.21 349.723C134.111 347.886 135.356 346.485 138.083 345.366C138.285 345.298 138.467 345.236 138.632 345.179C136.713 344.957 135.157 344.359 133.967 343.385C132.465 342.088 131.714 340.303 131.714 338.033L131.708 335.311C131.45 335.316 131.161 335.319 130.845 335.317C129.435 335.311 127.463 335.226 125.184 334.909C120.658 334.281 114.752 332.718 109.682 328.891C104.612 325.064 101.484 319.809 99.6336 315.625C98.7018 313.518 98.0756 311.642 97.6811 310.287C97.4835 309.608 97.3431 309.056 97.2508 308.668C97.2047 308.474 97.1705 308.321 97.1472 308.212C97.1355 308.158 97.1267 308.115 97.1204 308.084C97.1172 308.068 97.1147 308.055 97.1128 308.045C97.1118 308.04 97.1112 308.036 97.1105 308.033C97.1102 308.031 97.1094 308.03 97.1092 308.029C97.1091 308.028 97.1092 308.027 97.1092 308.027C97.1128 308.025 97.1994 308.008 99.1845 307.621L97.1087 308.026L96.6235 305.527L99.1555 305.306L99.3543 307.588C99.1648 305.415 99.1561 305.311 99.1564 305.306C99.1567 305.306 99.158 305.305 99.1586 305.305C99.1599 305.305 99.1615 305.305 99.1631 305.305C99.1664 305.304 99.1705 305.304 99.1752 305.304C99.185 305.303 99.1981 305.302 99.214 305.301C99.2458 305.298 99.2897 305.295 99.3449 305.291C99.4555 305.283 99.6122 305.274 99.8109 305.265C100.209 305.247 100.777 305.23 101.483 305.234C102.893 305.24 104.866 305.326 107.145 305.642C111.671 306.271 117.576 307.833 122.646 311.66C126.888 314.862 129.77 319.064 131.682 322.802L131.632 297.952C131.264 297.593 130.822 297.167 130.313 296.69C128.699 295.178 126.436 293.167 123.839 291.161C121.235 289.15 118.338 287.18 115.454 285.721C112.538 284.247 109.817 283.389 107.516 283.389H4.72439C8.03325 354.565 66.1127 411.405 137.712 412.593C137.545 412.03 137.317 411.288 137.042 410.464C136.426 408.614 135.624 406.496 134.802 405.028C131.959 399.953 129.07 398.371 124.071 393.937C119.912 390.249 117.145 388.623 112.96 385.619L112.111 386.085L111.123 384.275C112.068 386.007 112.109 386.082 112.11 386.085L112.105 386.087C112.103 386.089 112.1 386.091 112.096 386.093C112.089 386.096 112.08 386.102 112.068 386.108C112.045 386.121 112.012 386.138 111.97 386.16C111.886 386.204 111.766 386.266 111.613 386.344C111.308 386.499 110.867 386.717 110.313 386.973C109.205 387.485 107.633 388.157 105.759 388.808C102.05 390.095 96.9781 391.361 91.9166 390.989C86.7009 390.606 80.8247 387.569 76.4901 384.88C74.2696 383.502 72.3502 382.149 70.9865 381.141C70.3038 380.636 69.7574 380.216 69.3794 379.92C69.1905 379.772 69.0433 379.654 68.942 379.573C68.8914 379.532 68.8518 379.501 68.8245 379.479C68.811 379.468 68.8004 379.459 68.7928 379.453C68.789 379.45 68.7857 379.447 68.7834 379.445C68.7823 379.444 68.7814 379.443 68.7807 379.443L68.7798 379.442C68.7808 379.44 68.825 379.385 70.2288 377.668L68.7789 379.441L65.5638 376.803L69.509 375.494L70.2288 377.668C69.5393 375.585 69.5107 375.497 69.5099 375.494H69.5108C69.5115 375.493 69.5123 375.493 69.5134 375.492C69.5157 375.491 69.5191 375.491 69.5228 375.49C69.5303 375.487 69.5406 375.484 69.5537 375.479C69.5803 375.471 69.6185 375.458 69.6676 375.442C69.766 375.41 69.9091 375.365 70.0925 375.308C70.4591 375.194 70.9886 375.033 71.6509 374.843C72.9743 374.464 74.8351 373.966 76.9932 373.49C81.2629 372.548 86.8819 371.646 91.833 372.01C92.9687 372.093 94.1062 372.287 95.2295 372.565C93.5205 371.223 91.7321 369.757 89.7773 368.064C87.5953 366.175 85.809 364.512 84.1388 362.9L83.5584 363.089L83.2027 361.991L83.2018 361.99L83.5575 363.09L83.545 363.093C83.5383 363.095 83.5293 363.099 83.5182 363.102C83.4959 363.109 83.4646 363.119 83.4252 363.131C83.3465 363.156 83.2341 363.19 83.0906 363.232C82.8035 363.317 82.3906 363.434 81.8722 363.569C80.8364 363.839 79.3709 364.181 77.6321 364.48C74.1838 365.072 69.5266 365.515 64.978 364.784C60.3056 364.033 55.1243 361.306 51.2825 358.939C49.3228 357.731 47.6364 356.569 46.4392 355.708C45.8399 355.277 45.361 354.92 45.0296 354.67C44.8641 354.544 44.7351 354.445 44.6463 354.376C44.6019 354.342 44.5671 354.315 44.5431 354.296L44.5069 354.268C44.5059 354.267 44.5049 354.266 44.5042 354.266L44.5033 354.265C44.5042 354.263 44.5462 354.21 45.9192 352.466L44.5024 354.265L40.4035 351.027L45.5582 350.203L45.9192 352.466C45.5583 350.203 45.5587 350.203 45.5591 350.203L45.5707 350.201C45.5775 350.2 45.5871 350.198 45.5993 350.196C45.6238 350.192 45.6593 350.187 45.7047 350.18C45.7958 350.166 45.9282 350.146 46.0979 350.122C46.4373 350.073 46.9276 350.006 47.5401 349.929C48.7647 349.776 50.4843 349.587 52.4732 349.441C56.4151 349.152 61.5598 349.021 66.0218 349.738C68.2685 350.099 70.5045 350.851 72.5914 351.768C67.5897 347.174 63.5514 343.736 58.6318 338.933L56.9152 339.274L56.4707 337.027L56.9143 339.275L56.9103 339.275C56.9082 339.275 56.9056 339.276 56.9027 339.277C56.8967 339.278 56.8889 339.279 56.8795 339.281C56.8603 339.285 56.8338 339.29 56.8008 339.296C56.735 339.308 56.642 339.325 56.5243 339.345C56.2888 339.385 55.9528 339.438 55.5337 339.494C54.6967 339.606 53.5191 339.732 52.1372 339.791C49.4073 339.909 45.7248 339.774 42.2698 338.647C38.6853 337.478 35.0529 334.591 32.4703 332.227C31.141 331.011 30.0152 329.862 29.2216 329.018C28.8242 328.595 28.508 328.246 28.2892 328.001C28.1797 327.878 28.0944 327.781 28.0354 327.713C28.0059 327.68 27.9827 327.653 27.9666 327.634C27.9586 327.625 27.9524 327.617 27.9478 327.612C27.9455 327.609 27.943 327.607 27.9416 327.606C27.9409 327.605 27.9407 327.604 27.9402 327.603L27.9393 327.603C27.939 327.603 27.939 327.602 29.6769 326.112L27.9384 327.602L24.8346 323.969L29.6068 323.822L29.6769 326.112C29.6093 323.912 29.6065 323.825 29.6068 323.822H29.6081C29.6087 323.822 29.6095 323.821 29.6103 323.821C29.6121 323.821 29.6147 323.822 29.6175 323.821C29.6232 323.821 29.6313 323.821 29.6412 323.821C29.6612 323.82 29.6898 323.82 29.7261 323.819C29.7988 323.817 29.9036 323.815 30.0375 323.813C30.3054 323.81 30.6905 323.806 31.1701 323.809C32.1284 323.815 33.4702 323.845 35.0121 323.94C38.0557 324.127 42.0408 324.577 45.4045 325.674C45.4698 325.695 45.5347 325.718 45.5997 325.74C44.0033 323.95 42.4011 321.972 40.6814 319.54C38.4612 316.399 36.1146 312.161 34.3499 308.772C33.4608 307.064 32.7067 305.547 32.1745 304.457C31.9083 303.912 31.6971 303.472 31.5521 303.168C31.4796 303.016 31.4236 302.898 31.3854 302.817C31.3664 302.777 31.3517 302.745 31.3417 302.724C31.3367 302.713 31.3331 302.705 31.3305 302.699C31.3292 302.697 31.3281 302.695 31.3274 302.693C31.327 302.692 31.3267 302.691 31.3265 302.691L31.326 302.69C31.3263 302.69 31.3527 302.678 33.3978 301.719L31.326 302.69C30.7905 301.544 31.284 300.18 32.4283 299.644C33.5724 299.108 34.934 299.602 35.4696 300.747C35.4697 300.748 35.4698 300.748 35.47 300.749C35.4705 300.75 35.4712 300.751 35.4723 300.754C35.4743 300.758 35.4777 300.765 35.4821 300.774C35.4909 300.793 35.5045 300.821 35.5223 300.859C35.558 300.935 35.6112 301.048 35.6809 301.194C35.8204 301.487 36.0252 301.913 36.2845 302.444C36.8036 303.507 37.5399 304.987 38.4068 306.652C40.1541 310.008 42.3828 314.017 44.4148 316.891C47.3811 321.087 49.8779 323.743 52.8293 326.681C51.7584 324.701 50.798 322.502 50.1758 320.186C48.9354 315.569 49.5405 309.636 50.3366 305.123C50.744 302.814 51.2216 300.774 51.597 299.31C51.785 298.577 51.9482 297.986 52.0653 297.575C52.1238 297.37 52.1708 297.209 52.2038 297.098C52.2203 297.043 52.2331 296.999 52.2422 296.969C52.2467 296.954 52.2508 296.942 52.2534 296.934L52.2574 296.919C52.2583 296.919 52.2999 296.932 54.4436 297.595L52.2578 296.919L53.6232 292.49L56.3067 296.266L54.4436 297.595C56.2779 296.286 56.3069 296.266 56.3076 296.266L56.308 296.267C56.3084 296.268 56.3092 296.268 56.3098 296.269C56.3111 296.271 56.3127 296.273 56.3147 296.276C56.3189 296.282 56.3249 296.291 56.3321 296.301C56.3467 296.322 56.3677 296.351 56.3943 296.389C56.4478 296.466 56.5249 296.578 56.623 296.721C56.8192 297.007 57.099 297.422 57.4406 297.943C58.1235 298.986 59.0566 300.46 60.0602 302.199C62.0465 305.639 64.3959 310.256 65.5741 314.641C66.8108 319.245 66.2731 324.53 65.5218 328.474C65.1393 330.482 64.6859 332.221 64.3275 333.459C64.148 334.079 63.9915 334.576 63.8785 334.923C63.822 335.096 63.7759 335.232 63.7436 335.327C63.7274 335.374 63.7148 335.411 63.7056 335.437C63.701 335.45 63.6971 335.461 63.6944 335.469C63.693 335.472 63.6917 335.476 63.6908 335.478L63.6895 335.483L61.5351 334.712L63.689 335.483L63.1654 336.95C66.9658 340.592 70.244 343.435 74.2213 347.053C73.857 346.164 73.5389 345.244 73.2866 344.3C72.1321 339.983 72.8859 334.437 73.7776 330.27C74.2362 328.128 74.7585 326.232 75.1658 324.873C75.3698 324.192 75.5459 323.642 75.672 323.26C75.7351 323.069 75.7862 322.919 75.8217 322.815C75.8395 322.763 75.8534 322.723 75.8633 322.695C75.8682 322.681 75.8721 322.669 75.8749 322.661C75.8763 322.657 75.8772 322.654 75.878 322.651C75.8784 322.65 75.8791 322.649 75.8794 322.649L75.8798 322.647C75.8819 322.647 75.942 322.669 77.7889 323.326L75.8802 322.646L77.301 318.643L79.8603 322.032L78.0356 323.414C79.7908 322.084 79.8575 322.033 79.8603 322.032L79.8607 322.033C79.8612 322.033 79.8619 322.035 79.8625 322.035C79.8638 322.037 79.8655 322.039 79.8674 322.042C79.8715 322.047 79.8773 322.055 79.8844 322.065C79.8987 322.084 79.9192 322.111 79.9452 322.146C79.9973 322.216 80.0723 322.318 80.1672 322.449C80.3571 322.71 80.6277 323.088 80.9572 323.563C81.6156 324.513 82.5139 325.858 83.4771 327.445C85.3793 330.58 87.6339 334.819 88.7211 338.884C89.8717 343.187 89.2009 348.132 88.3645 351.784C87.9369 353.651 87.4447 355.268 87.059 356.42C86.8658 356.997 86.6982 357.461 86.5774 357.784C86.5169 357.946 86.4681 358.073 86.4335 358.161C86.4162 358.206 86.4023 358.24 86.3924 358.265C86.3875 358.278 86.3833 358.288 86.3803 358.295C86.3789 358.299 86.3777 358.302 86.3768 358.304C86.3763 358.305 86.3758 358.307 86.3754 358.308L86.375 358.309L85.7124 358.038C85.7128 358.039 85.7129 358.039 85.7133 358.04L86.3745 358.309L86.2642 358.581C88.1789 360.458 90.1439 362.324 92.7699 364.598C95.6292 367.074 98.0809 369.02 100.465 370.814C99.6577 369.35 98.9399 367.795 98.383 366.173C96.6228 361.046 97.0283 354.216 97.7485 348.971C98.1168 346.289 98.5855 343.906 98.9616 342.194C99.1499 341.336 99.3156 340.644 99.4352 340.162C99.495 339.922 99.5434 339.734 99.5773 339.604C99.5942 339.54 99.6073 339.489 99.6166 339.454C99.6212 339.437 99.6251 339.423 99.6278 339.413C99.6291 339.408 99.6301 339.404 99.6309 339.401C99.6312 339.4 99.6315 339.399 99.6318 339.398L99.6322 339.397C99.636 339.397 99.7146 339.419 101.391 339.876L99.6322 339.396L100.762 335.248L103.57 338.5L101.839 339.999C103.515 338.548 103.568 338.502 103.57 338.501L103.571 338.502C103.571 338.502 103.572 338.503 103.573 338.504C103.575 338.506 103.577 338.508 103.579 338.511C103.584 338.517 103.592 338.526 103.602 338.537C103.62 338.559 103.647 338.59 103.682 338.631C103.751 338.713 103.851 338.832 103.978 338.985C104.233 339.291 104.597 339.736 105.043 340.296C105.933 341.415 107.152 343.003 108.472 344.885C111.086 348.611 114.203 353.639 115.88 358.522C117.635 363.634 117.275 369.716 116.579 374.3C116.225 376.633 115.769 378.664 115.402 380.114C115.267 380.647 115.142 381.103 115.039 381.468C119.255 384.519 122.656 386.562 127.104 390.506C131.565 394.463 135.451 396.822 138.791 402.786C139.526 404.097 140.195 405.703 140.747 407.2C141.207 406.052 141.724 404.901 142.279 403.915C145.657 397.912 149.585 395.539 154.101 391.552C158.652 387.535 162.116 385.479 166.451 382.347C166.354 382.001 166.241 381.584 166.12 381.106C165.749 379.642 165.289 377.59 164.932 375.234C164.228 370.604 163.865 364.463 165.637 359.303C167.33 354.373 170.478 349.296 173.119 345.532C174.452 343.631 175.683 342.027 176.582 340.896C177.032 340.331 177.4 339.882 177.657 339.573C177.786 339.418 177.887 339.298 177.956 339.215C177.991 339.174 178.019 339.142 178.038 339.12C178.048 339.109 178.055 339.1 178.06 339.094C178.063 339.091 178.065 339.089 178.066 339.087L178.069 339.084C178.074 339.087 178.154 339.156 179.8 340.582L178.069 339.084L180.877 335.831L182.008 339.979L179.8 340.582C182.007 339.979 182.007 339.979 182.008 339.98V339.981C182.008 339.982 182.008 339.983 182.009 339.984C182.01 339.987 182.01 339.992 182.012 339.996C182.014 340.006 182.018 340.02 182.023 340.038C182.033 340.073 182.046 340.124 182.063 340.189C182.097 340.32 182.146 340.51 182.206 340.753C182.327 341.239 182.495 341.938 182.685 342.804C183.065 344.534 183.538 346.941 183.91 349.649C184.638 354.949 185.046 361.845 183.27 367.019C182.723 368.612 182.022 370.141 181.233 371.586C183.59 369.815 186.02 367.89 188.842 365.458C191.549 363.124 193.562 361.218 195.535 359.29L195.446 359.072L195.981 358.854L195.982 358.853L195.446 359.072L195.444 359.068C195.443 359.065 195.442 359.062 195.44 359.058C195.437 359.051 195.433 359.04 195.428 359.028C195.418 359.003 195.405 358.968 195.387 358.923C195.352 358.834 195.303 358.705 195.242 358.542C195.12 358.216 194.95 357.748 194.755 357.165C194.366 356.002 193.868 354.368 193.436 352.483C192.592 348.795 191.915 343.804 193.076 339.462C194.174 335.358 196.451 331.078 198.373 327.911C199.345 326.308 200.252 324.949 200.917 323.99C201.25 323.51 201.523 323.128 201.715 322.864C201.811 322.732 201.886 322.63 201.939 322.559C201.965 322.524 201.986 322.496 202.001 322.476C202.008 322.467 202.013 322.459 202.018 322.453C202.02 322.451 202.021 322.449 202.023 322.447C202.023 322.446 202.024 322.446 202.024 322.445L202.025 322.444C202.026 322.445 202.075 322.482 203.85 323.826L202.025 322.444L204.584 319.055L206.005 323.058L204.078 323.744C205.927 323.086 206.002 323.06 206.005 323.059L206.006 323.06C206.006 323.061 206.007 323.062 206.007 323.063C206.008 323.066 206.009 323.069 206.01 323.073C206.013 323.081 206.017 323.093 206.022 323.107C206.032 323.135 206.046 323.176 206.064 323.228C206.1 323.333 206.151 323.484 206.215 323.677C206.343 324.063 206.52 324.619 206.726 325.306C207.138 326.679 207.665 328.593 208.128 330.758C209.029 334.967 209.79 340.565 208.625 344.921C208.366 345.887 208.039 346.828 207.665 347.738C211.7 344.085 215.029 341.212 218.902 337.513L218.367 336.012L220.52 335.241L218.366 336.011L218.366 336.01C218.365 336.009 218.365 336.008 218.364 336.006C218.364 336.004 218.362 336.001 218.361 335.997C218.358 335.989 218.355 335.979 218.35 335.966C218.341 335.939 218.328 335.901 218.311 335.853C218.279 335.758 218.232 335.621 218.175 335.446C218.061 335.096 217.904 334.594 217.722 333.968C217.36 332.717 216.902 330.962 216.516 328.934C215.757 324.949 215.214 319.615 216.462 314.969C217.652 310.541 220.025 305.879 222.031 302.403C223.045 300.647 223.987 299.158 224.677 298.105C225.022 297.578 225.305 297.159 225.503 296.87C225.602 296.726 225.68 296.613 225.734 296.536C225.761 296.497 225.782 296.467 225.797 296.446C225.804 296.436 225.81 296.427 225.814 296.421L225.821 296.412L225.821 296.412C225.824 296.413 225.892 296.461 227.685 297.74L225.822 296.411L228.505 292.636L229.871 297.064L228.172 297.589C229.816 297.081 229.869 297.065 229.871 297.064L229.872 297.069C229.873 297.071 229.875 297.075 229.876 297.08C229.879 297.088 229.882 297.1 229.887 297.115C229.896 297.145 229.909 297.189 229.925 297.245C229.958 297.357 230.006 297.519 230.065 297.727C230.184 298.142 230.348 298.739 230.538 299.479C230.917 300.957 231.4 303.019 231.812 305.351C232.616 309.909 233.226 315.898 231.974 320.558C231.32 322.994 230.295 325.302 229.158 327.366C232.188 324.367 234.738 321.679 237.774 317.406C239.83 314.511 242.086 310.472 243.854 307.092C244.732 305.416 245.476 303.925 246.002 302.854C246.264 302.319 246.471 301.889 246.612 301.594C246.683 301.447 246.737 301.334 246.773 301.258C246.791 301.219 246.805 301.19 246.814 301.172C246.818 301.162 246.821 301.155 246.823 301.151C246.824 301.148 246.826 301.147 246.826 301.146L246.826 301.145C247.364 300 248.727 299.508 249.87 300.047C251.013 300.585 251.504 301.95 250.966 303.095L250.965 303.098C250.964 303.099 250.963 303.102 250.962 303.104C250.959 303.11 250.955 303.118 250.95 303.129C250.94 303.15 250.925 303.182 250.906 303.222C250.868 303.304 250.811 303.423 250.738 303.576C250.591 303.883 250.377 304.325 250.108 304.874C249.57 305.972 248.806 307.499 247.907 309.219C246.121 312.632 243.748 316.901 241.502 320.063C239.796 322.465 238.204 324.427 236.62 326.201C236.689 326.177 236.757 326.154 236.825 326.131C240.221 325.024 244.244 324.57 247.319 324.381C248.876 324.286 250.231 324.255 251.199 324.249C251.683 324.246 252.073 324.249 252.343 324.253C252.479 324.255 252.584 324.257 252.658 324.259C252.694 324.259 252.723 324.26 252.743 324.26C252.753 324.261 252.761 324.261 252.767 324.261H252.776L252.778 324.262C252.778 324.267 252.775 324.372 252.708 326.552L252.778 324.261L257.55 324.409L254.446 328.042L252.708 326.552C254.364 327.971 254.442 328.038 254.445 328.042L254.444 328.043C254.444 328.044 254.444 328.044 254.443 328.045C254.442 328.047 254.439 328.049 254.437 328.052C254.432 328.057 254.426 328.065 254.418 328.074C254.401 328.093 254.378 328.12 254.348 328.154C254.289 328.222 254.202 328.32 254.092 328.444C253.871 328.692 253.552 329.044 253.15 329.471C252.349 330.324 251.212 331.484 249.87 332.712C247.261 335.1 243.594 338.014 239.978 339.194C236.491 340.331 232.774 340.468 230.017 340.349C228.621 340.289 227.432 340.162 226.587 340.048C226.164 339.992 225.825 339.938 225.587 339.897C225.468 339.877 225.374 339.861 225.308 339.848C225.275 339.842 225.248 339.837 225.229 339.833C225.219 339.832 225.211 339.83 225.205 339.829L225.195 339.827L225.193 339.826L225.637 337.579L225.192 339.826L223.455 339.481C218.399 344.403 214.273 347.893 209.135 352.594C211.306 351.622 213.643 350.823 215.991 350.445C220.496 349.721 225.692 349.853 229.674 350.145C231.683 350.293 233.42 350.484 234.657 350.638C235.276 350.715 235.771 350.784 236.114 350.833C236.285 350.858 236.419 350.878 236.511 350.892C236.557 350.899 236.593 350.904 236.617 350.908C236.63 350.91 236.639 350.912 236.646 350.913L236.657 350.915C236.657 350.918 236.644 351.005 236.298 353.177L236.659 350.915L241.813 351.739L237.714 354.977L236.539 353.483C237.714 354.976 237.714 354.977 237.713 354.977L237.713 354.977C237.712 354.978 237.711 354.979 237.71 354.98C237.708 354.981 237.705 354.983 237.702 354.986C237.695 354.991 237.685 354.999 237.673 355.008C237.649 355.027 237.614 355.055 237.569 355.089C237.48 355.159 237.349 355.259 237.182 355.386C236.847 355.639 236.364 355.999 235.759 356.434C234.549 357.304 232.846 358.478 230.867 359.697C226.986 362.089 221.754 364.841 217.038 365.599C212.446 366.338 207.744 365.891 204.261 365.293C202.505 364.991 201.025 364.645 199.979 364.373C199.456 364.236 199.039 364.118 198.749 364.033C198.604 363.99 198.49 363.955 198.411 363.931L198.282 363.89C198.281 363.889 198.28 363.889 198.279 363.889L198.278 363.889C198.278 363.887 198.292 363.842 198.692 362.606L198.692 362.607L198.277 363.888L197.597 363.667C195.889 365.31 194.064 367.003 191.827 368.931C189.784 370.692 187.92 372.209 186.139 373.596C187.385 373.269 188.649 373.04 189.912 372.947C194.91 372.58 200.585 373.49 204.898 374.442C207.078 374.923 208.957 375.426 210.294 375.809C210.963 376.001 211.498 376.163 211.868 376.278C212.053 376.336 212.198 376.382 212.297 376.414C212.346 376.43 212.385 376.442 212.412 376.451C212.425 376.456 212.436 376.459 212.443 376.462C212.447 376.463 212.45 376.463 212.452 376.464C212.454 376.465 212.454 376.465 212.455 376.466H212.456C212.456 376.468 212.432 376.541 211.737 378.64L212.457 376.466L216.402 377.775L213.187 380.413L211.737 378.64C213.14 380.356 213.185 380.412 213.186 380.414C213.186 380.414 213.186 380.414 213.185 380.415C213.184 380.415 213.183 380.416 213.182 380.417C213.18 380.419 213.177 380.422 213.173 380.425C213.165 380.431 213.155 380.44 213.141 380.451C213.113 380.473 213.074 380.505 213.023 380.546C212.92 380.628 212.771 380.747 212.58 380.897C212.198 381.196 211.647 381.62 210.957 382.13C209.58 383.148 207.641 384.515 205.398 385.906C201.019 388.623 195.087 391.688 189.824 392.075C184.714 392.45 179.593 391.173 175.847 389.873C173.955 389.216 172.367 388.537 171.249 388.02C170.689 387.761 170.244 387.542 169.936 387.385C169.781 387.307 169.661 387.243 169.576 387.199C169.534 387.177 169.501 387.159 169.477 387.146C169.465 387.14 169.456 387.134 169.449 387.13C169.445 387.128 169.442 387.127 169.439 387.126L169.435 387.123L170.531 385.112L169.434 387.123L168.426 386.571C164.162 389.621 161.353 391.259 157.126 394.99C152.07 399.454 149.142 401.05 146.264 406.164C145.432 407.644 144.62 409.779 143.996 411.642C143.889 411.964 143.788 412.272 143.696 412.563C216.78 410.602 275.425 350.648 275.425 276.974V269.642H149.15C149.15 279.979 149.15 290.181 149.15 299.924ZM203.913 378.917C199.729 377.993 194.574 377.199 190.246 377.517C186.169 377.817 181.679 380.028 178.04 382.359C176.824 383.138 175.737 383.91 174.832 384.587C175.574 384.894 176.42 385.222 177.346 385.543C180.831 386.753 185.273 387.815 189.489 387.505C193.552 387.206 198.66 384.697 202.989 382.011C204.355 381.163 205.604 380.323 206.67 379.575C205.833 379.361 204.906 379.136 203.913 378.917ZM91.4984 376.58C87.2188 376.266 82.119 377.051 77.9779 377.965C77.0152 378.178 76.1142 378.395 75.2994 378.603C76.3444 379.337 77.5663 380.157 78.8997 380.984C83.185 383.643 88.2363 386.124 92.2512 386.419C96.4201 386.725 100.812 385.676 104.261 384.479C105.161 384.166 105.985 383.847 106.709 383.548C105.82 382.884 104.757 382.13 103.568 381.369C99.9679 379.062 95.5282 376.876 91.4984 376.58ZM178.622 345.745C178.075 346.472 177.48 347.286 176.862 348.166C174.296 351.825 171.444 356.481 169.963 360.794C168.561 364.877 168.781 370.111 169.454 374.544C169.68 376.029 169.951 377.386 170.209 378.53C170.8 377.936 171.454 377.249 172.136 376.48C174.684 373.606 177.497 369.74 178.943 365.529C180.341 361.459 180.096 355.51 179.377 350.274C179.149 348.615 178.881 347.072 178.622 345.745ZM103.018 345.165C102.765 346.467 102.503 347.975 102.281 349.595C101.569 354.777 101.328 360.661 102.709 364.683C104.139 368.847 106.922 372.671 109.443 375.515C110.106 376.262 110.742 376.932 111.319 377.513C111.571 376.39 111.836 375.062 112.056 373.611C112.722 369.224 112.939 364.048 111.554 360.012C110.089 355.747 107.268 351.14 104.728 347.519C104.129 346.665 103.551 345.874 103.018 345.165ZM229.34 354.716C225.471 354.432 220.694 354.33 216.716 354.969C212.936 355.577 208.908 357.629 205.71 359.656C205.187 359.987 204.692 360.316 204.23 360.631C204.49 360.68 204.759 360.729 205.035 360.776C208.278 361.333 212.422 361.701 216.313 361.075C220.08 360.469 224.66 358.141 228.469 355.794C229.031 355.448 229.569 355.105 230.078 354.773C229.837 354.754 229.591 354.734 229.34 354.716ZM65.2966 354.262C61.3622 353.63 56.6368 353.731 52.8078 354.012C52.5834 354.028 52.3622 354.045 52.1452 354.063C52.6324 354.38 53.1456 354.706 53.68 355.036C57.4498 357.359 61.9792 359.661 65.7032 360.259C69.5511 360.878 73.6502 360.515 76.8587 359.963C77.1121 359.92 77.3595 359.875 77.5995 359.83C77.1557 359.528 76.6819 359.214 76.1818 358.898C73.0174 356.892 69.0337 354.863 65.2966 354.262ZM85.8093 355.763L85.8089 355.762H85.808L85.8093 355.763ZM203.03 329.085C202.788 329.467 202.537 329.871 202.282 330.291C200.428 333.347 198.423 337.181 197.496 340.648C196.633 343.876 197.095 347.963 197.896 351.458C198.092 352.314 198.304 353.115 198.51 353.833C198.804 353.483 199.111 353.105 199.425 352.701C201.301 350.285 203.307 347.097 204.206 343.736C205.065 340.521 204.543 335.867 203.655 331.718C203.455 330.783 203.24 329.896 203.03 329.085ZM78.855 328.678C78.6517 329.466 78.445 330.326 78.2514 331.231C77.3726 335.337 76.8566 339.939 77.7058 343.115C78.5943 346.437 80.5777 349.59 82.4334 351.98C82.7336 352.366 83.028 352.729 83.3095 353.066C83.5101 352.366 83.7155 351.589 83.9055 350.759C84.6977 347.3 85.1549 343.26 84.3019 340.07C83.3853 336.642 81.4018 332.849 79.5672 329.826C79.3246 329.426 79.0857 329.043 78.855 328.678ZM166.966 69.5272C161.623 78.7601 151.65 84.9705 140.229 84.9705C132.694 84.9705 125.791 82.2677 120.43 77.7778L108.943 91.0458C110.994 92.2463 113.113 93.3696 115.615 94.5985C118.063 95.8011 119.921 97.0313 121.679 98.2416C123.444 99.457 125.061 100.616 127.179 101.827C127.869 102.221 128.374 102.802 128.739 103.324C129.119 103.867 129.45 104.496 129.744 105.153C130.331 106.467 130.862 108.11 131.345 109.904C132.313 113.505 133.162 118.007 133.86 122.363C134.561 126.733 135.12 131.015 135.504 134.202C135.697 135.796 135.845 137.118 135.946 138.043C135.996 138.506 136.034 138.869 136.06 139.117C136.061 139.128 136.062 139.138 136.063 139.147L136.342 139.146C136.342 139.196 136.34 272.821 136.34 338.033C136.34 339.294 136.696 340.267 137.407 340.952C138.158 341.601 139.167 341.926 140.432 341.926C141.697 341.926 142.686 341.601 143.397 340.952C144.149 340.267 144.524 339.294 144.524 338.033V140.606L144.472 140.587C144.456 140.633 144.487 140.547 144.523 140.225C144.524 140.221 144.524 140.216 144.524 140.211L144.525 139.043H144.6C144.634 138.077 144.632 136.827 144.607 135.357C144.556 132.341 144.419 128.738 144.337 124.871C144.256 121.083 144.231 117.182 144.418 113.916C144.511 112.284 144.66 110.76 144.895 109.461C145.117 108.227 145.459 106.94 146.075 105.968L153.624 94.0535C155.199 91.5672 156.798 89.6821 158.716 88.0905C160.619 86.5123 162.756 85.2907 165.312 84.0536C168.173 82.6687 170.669 82.4091 172.908 82.2399C175.153 82.0701 177.035 81.988 179.279 81.2039C180.577 80.7505 181.747 80.2816 182.832 79.7911L166.966 69.5272ZM247.156 328.984C244.294 329.18 240.941 329.608 238.242 330.489C235.61 331.347 232.934 333.384 230.813 335.378C230.67 335.512 230.531 335.646 230.395 335.778C232.863 335.871 235.879 335.711 238.561 334.837C241.179 333.983 244.232 331.665 246.784 329.33C246.91 329.214 247.034 329.098 247.156 328.984ZM35.5567 328.844C38.0819 331.155 41.1001 333.447 43.6866 334.29C46.3176 335.148 49.2753 335.31 51.706 335.222C51.5842 335.104 51.4593 334.985 51.3316 334.865C49.233 332.892 46.5874 330.879 43.9877 330.031C41.3395 329.167 38.0531 328.744 35.2355 328.548C35.341 328.646 35.4482 328.745 35.5567 328.844ZM102.325 309.831C102.673 310.927 103.16 312.284 103.817 313.769C105.498 317.569 108.222 322.051 112.436 325.231C116.649 328.411 121.701 329.799 125.812 330.37C127.418 330.593 128.854 330.687 130.002 330.72C129.654 329.624 129.168 328.267 128.512 326.782C126.831 322.982 124.106 318.5 119.893 315.32C115.679 312.14 110.627 310.752 106.516 310.181C104.91 309.958 103.473 309.864 102.325 309.831ZM226.762 303.392C226.513 303.806 226.255 304.242 225.992 304.697C224.047 308.066 221.913 312.316 220.88 316.16C219.906 319.786 220.289 324.289 221.01 328.075C221.18 328.968 221.366 329.803 221.549 330.558C221.843 330.184 222.15 329.78 222.463 329.351C224.42 326.671 226.549 323.115 227.556 319.367C228.527 315.755 228.097 310.633 227.306 306.148C227.133 305.172 226.947 304.244 226.762 303.392ZM55.3675 303.251C55.1887 304.078 55.0087 304.976 54.8421 305.921C54.0589 310.36 53.6347 315.425 54.5937 318.995C55.5892 322.7 57.6958 326.218 59.6313 328.869C59.9304 329.279 60.2242 329.665 60.5052 330.024C60.6831 329.29 60.8634 328.479 61.0279 327.615C61.7415 323.869 62.1189 319.416 61.1562 315.832C60.1349 312.031 58.0235 307.827 56.0989 304.493C55.8496 304.061 55.6047 303.646 55.3675 303.251ZM172.29 286.264C171.188 286.586 169.822 287.041 168.324 287.663C164.491 289.256 159.953 291.878 156.679 296.021C153.404 300.164 151.899 305.19 151.231 309.293C150.971 310.896 150.843 312.331 150.782 313.48C151.885 313.157 153.251 312.703 154.749 312.081C158.582 310.488 163.12 307.866 166.394 303.723C169.669 299.58 171.174 294.554 171.842 290.451C172.102 288.848 172.23 287.412 172.29 286.264ZM71.5656 73.4608C69.1515 72.9267 67.8249 72.8196 65.4096 73.0464C61.8212 73.3834 59.512 74.9369 57.1846 77.2176C55.9613 78.4164 54.8418 79.7034 53.4539 81.1918C52.1066 82.6368 50.595 84.1699 48.7769 85.6185C46.1068 87.7459 44.3424 89.7187 42.2519 91.8034C40.1742 93.8755 37.908 95.9064 34.4848 97.7561C31.1172 99.5758 28.0054 99.9502 25.3895 100.34C22.7576 100.732 20.5497 101.141 18.1827 102.696C16.6572 103.698 14.8559 105.381 13.3676 106.907C12.6401 107.652 12.0164 108.33 11.5755 108.821C11.3554 109.066 11.1819 109.264 11.0644 109.398C11.0057 109.466 10.961 109.517 10.9317 109.551C10.9171 109.568 10.9063 109.581 10.8995 109.589C10.8963 109.593 10.8938 109.595 10.8924 109.597L10.891 109.599L8.56369 107.611C5.95836 118.116 4.57516 129.105 4.57516 140.418V276.974C4.57516 277.586 4.57961 278.197 4.58767 278.807H28.5206C22.4533 276.636 18.3007 271.898 18.3007 264.601V262.31H67.2129L48.3252 224.594L52.4147 222.54L72.3309 262.31H105.686V264.601C105.686 271.898 101.534 276.636 95.4663 278.807H107.516C110.846 278.807 114.314 280.011 117.516 281.63C120.748 283.265 123.897 285.419 126.633 287.532C128.499 288.973 130.194 290.412 131.619 291.682L131.477 222.171C131.042 222.139 130.546 222.097 129.996 222.041C127.833 221.822 124.819 221.395 121.392 220.563C114.576 218.908 105.931 215.601 99.1698 208.941C92.4085 202.281 88.9627 193.678 87.1966 186.879C86.3089 183.462 85.8328 180.45 85.5779 178.288C85.4503 177.205 85.3779 176.332 85.3371 175.723C85.3167 175.418 85.3043 175.179 85.2969 175.012C85.2931 174.929 85.2904 174.864 85.2888 174.818C85.288 174.795 85.2874 174.776 85.287 174.763C85.2868 174.756 85.2867 174.751 85.2866 174.747C85.2865 174.744 85.2862 174.743 85.2861 174.741C85.2861 174.74 85.2866 174.739 85.2866 174.739C85.291 174.738 85.389 174.735 87.5326 174.681L85.2861 174.737L85.2272 172.369L87.592 172.389L87.5733 174.68C87.5913 172.489 87.593 172.393 87.5938 172.389H87.6014C87.6057 172.389 87.6113 172.389 87.618 172.39C87.6313 172.39 87.6497 172.39 87.6725 172.39C87.7185 172.391 87.7839 172.393 87.8668 172.395C88.033 172.4 88.272 172.408 88.5763 172.424C89.1852 172.454 90.0586 172.512 91.1414 172.622C93.3046 172.841 96.3188 173.268 99.7453 174.1C106.562 175.755 115.207 179.062 121.968 185.722C126.387 190.075 129.389 195.257 131.432 200.223L131.351 160.403C131.03 160.375 130.682 160.343 130.309 160.304C128.147 160.076 125.134 159.638 121.711 158.793C114.901 157.111 106.269 153.771 99.533 147.085C92.7973 140.399 89.3847 131.783 87.6448 124.977C86.7702 121.556 86.3057 118.543 86.0591 116.38C85.9357 115.297 85.8666 114.423 85.8281 113.813C85.8089 113.509 85.7974 113.27 85.7906 113.103C85.7872 113.02 85.7848 112.955 85.7834 112.909C85.7827 112.886 85.782 112.867 85.7816 112.854C85.7815 112.847 85.7813 112.842 85.7812 112.837V112.83C85.7856 112.829 85.8837 112.826 88.0277 112.781L85.7807 112.828L85.7311 110.46L88.0956 110.488L88.0683 112.78C88.0948 110.588 88.0965 110.493 88.0974 110.489C88.0978 110.489 88.0989 110.488 88.0996 110.488C88.1011 110.488 88.1029 110.489 88.105 110.489C88.1092 110.489 88.1149 110.489 88.1215 110.489C88.1349 110.49 88.1532 110.49 88.176 110.49C88.2221 110.491 88.2877 110.493 88.3708 110.496C88.537 110.501 88.7757 110.51 89.0799 110.527C89.6886 110.56 90.5618 110.622 91.644 110.735C93.8064 110.963 96.8188 111.401 100.242 112.246C107.052 113.928 115.685 117.268 122.42 123.954C126.411 127.915 129.235 132.554 131.236 137.092C131.158 136.408 131.067 135.62 130.962 134.751C130.582 131.6 130.031 127.38 129.343 123.089C128.652 118.785 127.834 114.467 126.927 111.096C126.472 109.404 126.014 108.023 125.568 107.025C125.345 106.527 125.149 106.178 124.992 105.953C124.918 105.847 124.867 105.791 124.845 105.768C122.552 104.452 120.765 103.173 119.087 102.018C117.386 100.847 115.747 99.7668 113.601 98.7129C108.119 96.0208 104.346 93.7862 99.3436 90.286C93.2539 86.0248 89.6088 84.2317 83.012 80.2946C80.5558 78.8287 78.5821 77.1448 77.0272 76.0254C75.4067 74.8589 73.8396 73.9639 71.5656 73.4608ZM23.0603 266.893C24.1542 273.648 30.0046 275.599 37.0588 275.599H86.9281C93.9823 275.599 99.8327 273.648 100.927 266.893H23.0603ZM232.138 65.2657C229.25 65.2003 227.187 66.104 224.866 67.4128C222.578 68.7025 219.813 70.5573 216.107 71.5969C212.107 72.7191 209.205 71.4578 207.565 71.2063C206.7 71.0735 205.799 71.0641 204.585 71.4434C203.315 71.8403 201.613 72.6919 199.23 74.4448C192.796 79.1779 188.87 82.7056 180.786 85.5304C177.869 86.5497 175.349 86.6507 173.252 86.8093C171.149 86.9684 169.363 87.1825 167.303 88.1796C164.895 89.3451 163.13 90.3792 161.635 91.6195C160.156 92.8464 158.86 94.3424 157.487 96.5089L149.938 108.423C149.817 108.614 149.597 109.168 149.397 110.276C149.209 111.319 149.074 112.639 148.985 114.179C148.809 117.254 148.83 121.004 148.911 124.773C148.99 128.463 149.131 132.324 149.181 135.28C149.181 135.3 149.181 135.32 149.182 135.34C150.806 130.989 153.089 126.544 156.299 122.482C162.572 114.544 171.079 109.718 177.904 106.882C181.331 105.458 184.375 104.519 186.568 103.935C187.666 103.642 188.553 103.438 189.173 103.306C189.483 103.24 189.726 103.192 189.895 103.159C189.98 103.143 190.046 103.131 190.093 103.123C190.116 103.118 190.135 103.115 190.149 103.112C190.155 103.111 190.161 103.11 190.166 103.11C190.167 103.109 190.169 103.109 190.17 103.109C190.171 103.109 190.172 103.108 190.173 103.108C190.173 103.108 190.175 103.108 190.558 105.367L190.174 103.108L192.68 102.681L192.84 105.222L190.558 105.367C192.785 105.225 192.84 105.222 192.841 105.223V105.231C192.841 105.235 192.842 105.241 192.842 105.248C192.843 105.262 192.844 105.281 192.845 105.305C192.848 105.352 192.851 105.419 192.855 105.505C192.862 105.678 192.872 105.926 192.878 106.243C192.892 106.877 192.897 107.79 192.865 108.927C192.802 111.199 192.588 114.382 191.991 118.05C190.803 125.354 188.066 134.755 181.793 142.693C175.52 150.632 167.012 155.458 160.187 158.294C156.76 159.718 153.717 160.657 151.524 161.241C150.556 161.499 149.751 161.687 149.15 161.819C149.15 186.046 149.15 226.165 149.15 265.06H191.21C172.568 258.445 159.216 240.631 159.216 219.694V205.03H255.294V209.158C265.432 209.342 273.594 217.629 273.594 227.827C273.594 238.14 265.247 246.501 254.951 246.501H247.153C241.447 255.002 233.105 261.58 223.3 265.06H275.425V140.418C275.425 126.374 273.294 112.829 269.338 100.089C268.921 100.46 268.911 100.469 268.911 100.469C268.911 100.469 268.91 100.468 268.91 100.468C268.909 100.466 268.907 100.465 268.905 100.462C268.9 100.457 268.894 100.45 268.885 100.44C268.868 100.421 268.842 100.391 268.807 100.353C268.738 100.275 268.636 100.16 268.504 100.012C268.238 99.7149 267.851 99.2828 267.366 98.7446C266.396 97.6682 265.036 96.1681 263.474 94.4746C260.343 91.0779 256.435 86.9378 253.251 83.8733C251.024 81.7288 249.199 79.4165 247.567 77.2247C245.897 74.9815 244.501 72.9707 242.975 71.1526C240.03 67.6453 237.021 65.3762 232.138 65.2657ZM163.791 219.694C163.791 243.736 183.25 263.227 207.255 263.227C231.259 263.227 250.719 243.736 250.719 219.694V209.612H163.791V219.694ZM256.152 213.788C256.119 214.821 256.068 216.138 255.988 217.602C255.8 221.044 255.451 225.411 254.795 228.832C254.158 232.156 252.917 236.227 251.862 239.404C251.558 240.321 251.265 241.171 251.004 241.918H254.951C262.72 241.918 269.019 235.61 269.019 227.827C269.019 220.451 263.359 214.399 256.152 213.788ZM90.1213 177.75C90.3571 179.75 90.8 182.55 91.6248 185.726C93.2839 192.112 96.4391 199.824 102.378 205.674C108.316 211.524 116.067 214.554 122.471 216.109C125.654 216.882 128.456 217.279 130.457 217.482C130.676 217.504 130.886 217.523 131.086 217.541C131.065 217.342 131.042 217.132 131.016 216.913C130.78 214.913 130.337 212.113 129.512 208.937C127.853 202.551 124.699 194.839 118.76 188.99C112.821 183.14 105.07 180.108 98.6667 178.553C95.4833 177.78 92.6809 177.384 90.6803 177.181C90.4607 177.159 90.251 177.139 90.0516 177.121C90.0727 177.321 90.0955 177.531 90.1213 177.75ZM187.743 108.363C185.706 108.906 182.86 109.783 179.656 111.114C173.219 113.789 165.493 118.231 159.886 125.326C154.279 132.422 151.736 140.973 150.615 147.863C150.058 151.292 149.858 154.267 149.799 156.378C149.793 156.579 149.79 156.773 149.787 156.958C149.966 156.912 150.153 156.865 150.348 156.813C152.385 156.27 155.231 155.393 158.435 154.062C164.872 151.387 172.598 146.945 178.205 139.849C183.813 132.754 186.355 124.203 187.476 117.313C188.034 113.884 188.233 110.909 188.292 108.798C188.298 108.597 188.301 108.403 188.304 108.218C188.125 108.264 187.938 108.311 187.743 108.363ZM90.6048 115.86C90.8328 117.861 91.2649 120.662 92.0774 123.841C93.7119 130.234 96.8373 137.957 102.754 143.83C108.67 149.703 116.408 152.763 122.806 154.343C125.987 155.128 128.787 155.536 130.787 155.746C130.979 155.766 131.164 155.784 131.341 155.8L131.339 155.109C131.109 153.113 130.679 150.34 129.876 147.198C128.241 140.805 125.116 133.082 119.2 127.209C113.284 121.336 105.545 118.275 99.147 116.696C95.9666 115.91 93.1657 115.503 91.1659 115.292C90.9464 115.269 90.7362 115.249 90.5369 115.231C90.5572 115.43 90.5797 115.64 90.6048 115.86ZM44.0266 44.7209C27.7777 61.068 15.6646 81.5423 9.3916 104.437C9.61302 104.203 9.84814 103.957 10.0948 103.704C11.6235 102.137 13.7111 100.153 15.6735 98.8641C18.9305 96.7246 21.9986 96.2126 24.7162 95.8077C27.4496 95.4004 29.7611 95.1018 32.3125 93.7232C35.1916 92.1676 37.101 90.4739 39.0238 88.5564C40.9338 86.6516 42.9952 84.3697 45.929 82.0322C47.4879 80.7902 48.8213 79.446 50.1101 78.0638C51.3583 76.7251 52.6662 75.2348 53.9851 73.9423C56.7426 71.2401 59.9781 68.9541 64.9825 68.4841C67.9158 68.2087 69.7206 68.3598 72.5521 68.9862C75.6192 69.6647 77.7522 70.9068 79.6695 72.2843L110.526 62.5373C109.762 59.8526 109.351 57.0189 109.346 54.0898L43.922 45.5232L44.0266 44.7209ZM171.111 54.0392C171.111 58.039 170.353 61.8615 168.973 65.3704L187.432 77.3111C190.25 75.5358 192.882 73.429 196.522 70.7516C199.143 68.8229 201.303 67.6689 203.223 67.0691C205.198 66.4519 206.813 66.4548 208.258 66.6767C211.241 67.1343 212.141 67.9511 214.873 67.1846C217.893 66.3374 219.986 64.9051 222.621 63.4193C225.223 61.9527 228.146 60.5919 232.241 60.6846C238.954 60.8366 243.087 64.1656 246.477 68.2031C248.117 70.1574 249.686 72.406 251.235 74.4851C252.821 76.6156 254.468 78.6886 256.422 80.5693C259.391 83.4276 262.929 87.1513 265.902 90.3576C260.806 77.5099 253.806 65.6271 245.251 55.0582L171.11 53.8611C171.11 53.9204 171.111 53.9798 171.111 54.0392ZM84.229 75.6486C84.583 75.8835 84.9551 76.1198 85.3541 76.3579C91.7086 80.1504 95.6943 82.1429 101.964 86.5296C103.028 87.2742 104.032 87.9568 105.006 88.5975L117.141 74.5818C115.1 72.2829 113.397 69.6774 112.108 66.8427L84.229 75.6486ZM140.229 27.6903C125.7 27.6903 113.922 39.4871 113.922 54.0392C113.922 68.5913 125.7 80.3881 140.229 80.3881C154.758 80.3881 166.536 68.5913 166.536 54.0392C166.536 39.4871 154.758 27.6903 140.229 27.6903ZM167.533 39.5755C169.108 42.5525 170.213 45.8178 170.746 49.272L241.315 50.4113C230.043 37.6925 216.42 27.111 201.129 19.3502L167.533 39.5755ZM78.4377 19.5704C67.1004 25.3758 56.6881 32.7353 47.4798 41.3673L109.675 49.5118C110.243 45.634 111.529 41.99 113.394 38.7199L78.4377 19.5704ZM168.362 7.91655L157.81 28.6063C160.611 30.5524 163.075 32.9511 165.096 35.6961L196.198 16.9726C187.226 12.8687 177.729 9.71695 167.835 7.6467L168.362 7.91655ZM111.765 7.73039C101.901 9.82581 92.4328 12.9967 83.49 17.1149L115.963 34.904C117.814 32.5524 119.999 30.4766 122.445 28.7478L111.634 7.79885L111.765 7.73039ZM138.223 4.78941C130.752 4.88563 123.427 5.58839 116.294 6.8497L126.377 26.3867C129.843 24.6415 133.682 23.5312 137.743 23.2072L138.223 4.78941ZM142.32 23.1781C146.441 23.4541 150.34 24.5396 153.86 26.2771L163.763 6.86C156.938 5.65005 149.937 4.95182 142.8 4.80686L142.32 23.1781Z" fill="white"/>
</svg>
