<svg width="276" height="67" viewBox="0 0 276 67" fill="none" xmlns="http://www.w3.org/2000/svg">
<path d="M7.80768 59.4271C9.05228 60.9308 10.3058 61.6172 11.5682 61.4862C12.8305 61.3552 14.1273 60.7389 15.4585 59.6371C16.5925 58.6985 17.4279 57.9136 17.9647 57.2824C18.5036 56.6287 18.8056 56.0776 18.8706 55.6291C18.9356 55.1807 18.7997 54.7531 18.4631 54.3464C18.1774 54.0013 17.874 53.7851 17.5526 53.698C17.2211 53.5986 16.7559 53.6513 16.157 53.8562C15.5704 54.0509 14.7435 54.4445 13.6763 55.0371L10.887 56.598C9.95106 57.1234 9.10375 57.4924 8.34506 57.705C7.58849 57.895 6.82447 57.8627 6.053 57.6082C5.28153 57.3536 4.52853 56.7826 3.79401 55.8951C2.87586 54.7858 2.56849 53.5863 2.87191 52.2967C3.18765 50.9969 4.0974 49.7247 5.60115 48.4801C7.24048 47.1233 8.83245 46.4495 10.3771 46.4588C11.9238 46.4455 13.345 47.2216 14.6406 48.787L13.8086 49.4756C12.8803 48.3539 11.8482 47.91 10.7125 48.1439C9.5666 48.3654 8.32189 49.0321 6.97838 50.1441C5.68417 51.2153 4.82265 52.1568 4.39382 52.9687C3.96711 53.758 4.04451 54.5039 4.626 55.2065C5.13609 55.8228 5.74455 56.1188 6.4514 56.0946C7.17058 56.0601 8.16644 55.6824 9.43899 54.9614L12.3915 53.2966C13.5429 52.6552 14.4867 52.2271 15.2229 52.0124C15.959 51.7977 16.6453 51.8113 17.2816 52.0531C17.9302 52.2847 18.6014 52.8196 19.2951 53.6578C20.2744 54.841 20.5161 56.0741 20.0202 57.3569C19.5365 58.6295 18.4751 59.9442 16.8357 61.3011C15.2827 62.5865 13.6459 63.1935 11.9253 63.1222C10.2068 63.0283 8.55695 62.0262 6.97568 60.1157L7.80768 59.4271ZM21.1432 42.5227C22.4872 41.5691 23.8721 41.2536 25.2976 41.5762C26.7363 41.8896 28.0296 42.8553 29.1776 44.4734C30.3256 46.0915 30.8099 47.6313 30.6304 49.0927C30.4639 50.5448 29.7087 51.7476 28.3646 52.7012C26.4985 54.0251 24.712 54.0371 23.005 52.7371L25.7686 56.6323L27.2254 59.1005L26.5403 59.5866L16.8192 45.8848L17.5043 45.3987L19.3387 47.5696C18.6756 45.5289 19.2771 43.8467 21.1432 42.5227ZM27.1147 50.9396C28.1195 50.2267 28.776 49.3685 29.0843 48.3651C29.3925 47.3617 29.13 46.2728 28.2968 45.0984C27.4635 43.9239 26.5225 43.3164 25.4736 43.2759C24.4247 43.2353 23.3978 43.5715 22.393 44.2844C20.005 45.9786 19.5979 47.935 21.1718 50.1534C22.7457 52.3717 24.7267 52.6338 27.1147 50.9396ZM40.3909 40.2766C40.5994 40.6179 40.8041 40.8303 41.0051 40.9138C41.2198 40.9889 41.4556 40.976 41.7128 40.8752C41.9616 40.7607 42.3454 40.545 42.8643 40.2281L44.1154 42.2761C43.3917 42.7182 42.7694 42.9578 42.2483 42.9949C41.7189 43.0183 41.2388 42.8616 40.808 42.5247C40.3826 42.1659 39.9363 41.6042 39.4692 40.8396L39.2565 40.4914C39.7668 41.8484 39.9092 43.0176 39.6837 43.999C39.4719 44.9721 38.9428 45.7172 38.0962 46.2343C37.0449 46.8766 36.008 47.0975 34.9856 46.8971C33.9769 46.6883 33.1806 46.1061 32.5967 45.1503C32.0045 44.1809 31.861 43.2092 32.166 42.2354C32.4848 41.2533 33.2134 40.405 34.352 39.6907L37.5425 37.6855C37.1148 37.0468 36.7137 36.6356 36.339 36.452C35.9697 36.2464 35.6098 36.1944 35.2593 36.296C34.9089 36.3975 34.4401 36.6277 33.853 36.9863C33.0474 37.4784 32.4535 38.01 32.0711 38.5811C31.6887 39.1521 31.6628 39.8617 31.9934 40.7097L31.0866 41.0668C30.4701 39.8122 30.3103 38.6911 30.607 37.7037C30.9091 36.6942 31.6199 35.8475 32.7395 35.1635C33.627 34.6214 34.3905 34.3519 35.0299 34.355C35.6746 34.3361 36.2775 34.5865 36.8387 35.1062C37.4135 35.6175 38.0429 36.433 38.7269 37.5526L40.3909 40.2766ZM36.9702 44.3911C37.8987 43.8239 38.5079 43.133 38.7977 42.3185C39.0793 41.4903 38.949 40.4636 38.4069 39.2386L35.2528 41.1654C34.4063 41.6825 33.8222 42.2456 33.5005 42.8546C33.1704 43.4499 33.1764 44.0275 33.5184 44.5873C33.827 45.0925 34.287 45.3084 34.8983 45.2349C35.515 45.1394 36.2056 44.8582 36.9702 44.3911ZM53.3145 32.9196C53.8242 34.2057 53.9056 35.3457 53.5584 36.3396C53.2181 37.3118 52.3744 38.15 51.0273 38.8541C49.4675 39.6694 48.0068 39.828 46.6453 39.3301C45.2763 38.8179 44.1286 37.6756 43.2022 35.9031C42.2757 34.1307 41.9967 32.5433 42.3651 31.1412C42.7261 29.7248 43.6865 28.609 45.2463 27.7938C46.565 27.1045 47.7645 26.947 48.8447 27.3212C49.9175 27.6812 50.8 28.4024 51.4922 29.485L50.7192 30.0785C49.6519 28.831 48.1611 28.7075 46.2469 29.7081C45.0699 30.3232 44.261 31.1071 43.8201 32.0597C43.3718 32.9981 43.4849 34.1125 44.1593 35.4029C44.8338 36.6932 45.6879 37.4293 46.7217 37.6111C47.7481 37.7787 48.8498 37.555 50.0267 36.9398C50.9059 36.4803 51.5728 35.9602 52.0276 35.3795C52.4823 34.7988 52.6017 34.0774 52.3858 33.2154L53.3145 32.9196ZM61.2736 31.559C62.1964 31.1534 62.8936 30.6721 63.3654 30.1151C63.8518 29.5517 64.0741 28.8248 64.0322 27.9344L64.9786 27.7018C65.4673 28.9726 65.4684 30.1082 64.9819 31.1086C64.4953 32.109 63.549 32.9182 62.1429 33.5364C60.6049 34.2125 59.1776 34.2457 57.8609 33.636C56.5443 33.0264 55.4867 31.8134 54.6882 29.9972C53.8898 28.1809 53.7111 26.5816 54.152 25.1993C54.593 23.8169 55.5825 22.7877 57.1204 22.1116C58.2336 21.6222 59.2172 21.4345 60.0713 21.5484C60.9336 21.6413 61.7319 22.0856 62.4662 22.8813C63.1941 23.6625 63.9122 24.8586 64.6205 26.4698L56.0299 30.2463C56.6318 31.2576 57.3979 31.8471 58.3281 32.015C59.2518 32.1682 60.2337 32.0162 61.2736 31.559ZM57.9897 24.089C56.9205 24.559 56.1323 25.2114 55.6254 26.046C55.1119 26.8659 55.0656 27.8738 55.4864 29.0695L63.2298 25.6917C62.7362 24.8075 62.2107 24.2084 61.6531 23.8942C61.0891 23.5654 60.5185 23.4404 59.9415 23.5193C59.3727 23.5771 58.7221 23.767 57.9897 24.089ZM83.4492 25.664C81.6587 26.2104 80.1103 26.0974 78.804 25.3251C77.4977 24.5527 76.5643 23.2483 76.0039 21.412C75.4435 19.5756 75.4895 17.9723 76.142 16.6022C76.7946 15.2321 78.016 14.2738 79.8065 13.7274C81.597 13.181 83.1454 13.294 84.4517 14.0663C85.758 14.8387 86.6914 16.1431 87.2518 17.9794C87.8122 19.8158 87.7662 21.4191 87.1137 22.7892C86.4612 24.1593 85.2397 25.1176 83.4492 25.664ZM82.8187 23.598C84.2572 23.159 85.2933 22.525 85.9269 21.696C86.5605 20.867 86.6578 19.7332 86.2188 18.2947C85.7799 16.8562 85.0661 15.9699 84.0776 15.6359C83.089 15.3019 81.8755 15.3544 80.437 15.7934C79.0138 16.2277 77.9777 16.8617 77.3288 17.6954C76.6952 18.5244 76.5979 19.6582 77.0369 21.0967C77.4759 22.5352 78.1896 23.4215 79.1782 23.7555C80.1667 24.0895 81.3802 24.037 82.8187 23.598ZM95.517 7.45857C94.7811 7.33703 94.0317 7.36668 93.2689 7.54752C92.6617 7.69145 92.1816 7.92037 91.8284 8.23429C91.4716 8.53263 91.3375 8.86863 91.4261 9.24227C91.522 9.64706 91.8933 10.0688 92.54 10.5075L96.1596 9.64941L96.6579 11.7512L93.0382 12.6092L94.8096 20.0821L98.4293 19.2241L98.9276 21.3258L90.6373 23.291L90.1391 21.1893L93.7588 20.3312L91.9873 12.8583L88.3676 13.7164L87.8694 11.6146L91.4891 10.7566C90.8182 10.077 90.4035 9.40247 90.2448 8.73302C90.0566 7.93903 90.2473 7.25251 90.8171 6.67346C91.3833 6.07885 92.2034 5.65422 93.2777 5.39957C94.0405 5.21873 94.8856 5.14174 95.8127 5.1686L95.517 7.45857ZM111.458 11.8343C111.673 13.7744 112.344 15.0362 113.471 15.6196C114.598 16.203 116.021 16.3996 117.738 16.2093C119.201 16.0471 120.33 15.8496 121.125 15.6166C121.935 15.3659 122.49 15.071 122.79 14.7319C123.091 14.3927 123.212 13.9608 123.154 13.436C123.104 12.9907 122.969 12.6435 122.748 12.3943C122.526 12.1292 122.108 11.9179 121.495 11.7604C120.898 11.6012 119.991 11.4764 118.773 11.3859L115.585 11.1597C114.514 11.0851 113.603 10.9285 112.852 10.6897C112.116 10.4333 111.495 9.98698 110.99 9.35074C110.485 8.7145 110.169 7.82388 110.042 6.67889C109.883 5.24765 110.285 4.07631 111.246 3.16488C112.223 2.25169 113.682 1.6876 115.622 1.47263C117.737 1.23827 119.438 1.54888 120.724 2.40445C122.024 3.24236 122.786 4.67113 123.01 6.69077L121.936 6.80971C121.776 5.36257 121.157 4.42504 120.079 3.99712C119 3.5533 117.594 3.42742 115.86 3.61949C114.19 3.80451 112.953 4.11864 112.149 4.56189C111.359 4.98748 111.015 5.6535 111.115 6.55995C111.203 7.35508 111.549 7.9365 112.153 8.3042C112.774 8.67014 113.813 8.90103 115.273 8.99689L118.655 9.22584C119.969 9.32165 120.993 9.48187 121.726 9.70649C122.459 9.9311 123.026 10.3191 123.425 10.8705C123.84 11.4201 124.107 12.2356 124.227 13.317C124.396 14.8437 123.921 16.007 122.803 16.8071C121.7 17.6054 120.091 18.1218 117.976 18.3561C115.972 18.5781 114.271 18.1871 112.872 17.1831C111.487 16.1614 110.658 14.4181 110.385 11.9532L111.458 11.8343ZM131.872 5.01757C133.518 4.95657 134.85 5.45164 135.865 6.50277C136.897 7.5533 137.449 9.06989 137.523 11.0525C137.596 13.0352 137.157 14.5885 136.206 15.7125C135.271 16.8358 133.98 17.428 132.334 17.489C130.047 17.5737 128.546 16.6046 127.831 14.5817L128.008 19.3544L127.873 22.2173L127.034 22.2484L126.412 5.45995L127.252 5.42886L127.596 8.25004C128.16 6.17975 129.585 5.10226 131.872 5.01757ZM132.254 15.3305C133.485 15.2849 134.504 14.9269 135.312 14.2566C136.12 13.5862 136.497 12.5315 136.444 11.0925C136.39 9.6535 135.936 8.62961 135.081 8.02084C134.226 7.41207 133.183 7.13049 131.952 7.17609C129.026 7.28447 127.613 8.69773 127.714 11.4159C127.814 14.134 129.328 15.4389 132.254 15.3305ZM141.107 2.36383C140.819 2.36134 140.564 2.25513 140.342 2.04519C140.136 1.8354 140.034 1.57851 140.037 1.27452C140.039 0.986534 140.145 0.739443 140.355 0.533251C140.581 0.327197 140.838 0.225416 141.126 0.227908C141.414 0.2304 141.661 0.336543 141.867 0.546335C142.089 0.756266 142.199 1.00523 142.196 1.29322C142.194 1.5972 142.08 1.85222 141.854 2.05828C141.644 2.26447 141.395 2.36632 141.107 2.36383ZM140.556 5.02316L141.636 5.03251L141.532 17.0321L140.452 17.0227L140.556 5.02316ZM150.131 5.34077C151.682 5.40864 152.422 6.24181 152.352 7.84028C152.309 8.83133 151.974 10.0739 151.348 11.5679L150.269 11.5207C150.699 10.4825 150.927 9.65971 150.954 9.05229C150.977 8.50881 150.851 8.11089 150.573 7.85852C150.296 7.60616 149.878 7.46773 149.318 7.44324C148.519 7.40825 147.834 7.68257 147.264 8.2662C146.71 8.85053 146.277 9.59231 145.966 10.4915C145.67 11.3915 145.503 12.289 145.464 13.1842L145.29 17.1404L144.211 17.0931L144.736 5.10462L145.551 5.1403L145.642 9.10806L145.628 9.41976C146.36 6.60107 147.861 5.24141 150.131 5.34077ZM156.349 3.03667C156.062 3.01342 155.815 2.88909 155.609 2.66368C155.418 2.43956 155.336 2.176 155.36 1.87299C155.383 1.58593 155.507 1.34714 155.731 1.15662C155.971 0.967381 156.235 0.884391 156.522 0.907646C156.809 0.9309 157.048 1.05459 157.238 1.2787C157.445 1.50411 157.536 1.76034 157.513 2.0474C157.488 2.35041 157.356 2.59653 157.116 2.78577C156.892 2.97629 156.636 3.05993 156.349 3.03667ZM155.608 5.64934L156.684 5.73655L155.715 17.6974L154.639 17.6102L155.608 5.64934ZM166.267 18.519C165.317 18.6488 164.525 18.6763 163.889 18.6014C162.729 18.4648 161.979 17.9898 161.64 17.1766C161.317 16.3652 161.245 15.1323 161.423 13.4778L162.013 8.47242L159.534 8.18046L159.787 6.03529L162.266 6.32725L162.546 3.94373L163.766 3.84574L163.457 6.46762L167.176 6.90557L166.923 9.05074L163.205 8.61279L162.615 13.6182C162.508 14.5239 162.565 15.2072 162.785 15.6681C163.022 16.1149 163.435 16.373 164.022 16.4422C164.483 16.4965 165.046 16.4419 165.709 16.2784L166.267 18.519ZM180.593 9.17586L178.491 21.0147L177.522 20.8427L177.785 17.9887L177.819 17.7997C176.915 19.6868 175.353 20.4331 173.131 20.0388C171.43 19.7367 170.284 19.0946 169.695 18.1124C169.108 17.1145 168.991 15.6231 169.344 13.6381L170.456 7.37607L171.637 7.58584L170.525 13.8479C170.358 14.7931 170.379 15.5444 170.588 16.1016C170.801 16.6431 171.144 17.0453 171.617 17.3081C172.106 17.5737 172.737 17.775 173.509 17.912C174.391 18.0686 175.128 18.1264 175.721 18.0853C176.329 18.047 176.859 17.808 177.31 17.3682C177.778 16.9312 178.1 16.2165 178.276 15.224L179.388 8.9619L180.593 9.17586ZM190.393 20.1079C190.297 20.4961 190.29 20.7911 190.372 20.9927C190.469 21.1982 190.644 21.3569 190.897 21.469C191.153 21.5655 191.576 21.6868 192.166 21.8331L191.589 24.1626C190.766 23.9586 190.158 23.6843 189.766 23.3397C189.377 22.9796 189.151 22.528 189.088 21.9848C189.044 21.43 189.13 20.7178 189.345 19.8481L189.443 19.4521C188.837 20.7688 188.105 21.6919 187.249 22.2214C186.408 22.7547 185.506 22.9021 184.543 22.6634C183.347 22.367 182.461 21.7848 181.885 20.9167C181.324 20.0525 181.179 19.0768 181.448 17.9897C181.722 16.8871 182.312 16.102 183.219 15.6345C184.142 15.1708 185.257 15.0929 186.565 15.4007L190.234 16.2606C190.388 15.5075 190.399 14.9331 190.266 14.5376C190.152 14.1304 189.936 13.8378 189.618 13.6599C189.299 13.4821 188.806 13.3104 188.138 13.1449C187.222 12.9178 186.426 12.8689 185.752 12.9983C185.077 13.1278 184.554 13.6081 184.183 14.4393L183.291 14.0452C183.751 12.7249 184.436 11.8232 185.347 11.3402C186.277 10.8455 187.379 10.756 188.652 11.0716C189.662 11.3218 190.39 11.6754 190.837 12.1324C191.304 12.5777 191.549 13.1826 191.574 13.947C191.615 14.7153 191.477 15.7362 191.161 17.0096L190.393 20.1079ZM185.062 20.5669C186.119 20.8286 187.038 20.7763 187.821 20.41C188.608 20.0281 189.247 19.2138 189.737 17.9671L186.15 17.078C185.187 16.8393 184.376 16.8196 183.717 17.0188C183.061 17.2026 182.654 17.6128 182.497 18.2495C182.354 18.8241 182.524 19.303 183.006 19.6862C183.507 20.0578 184.193 20.3513 185.062 20.5669ZM196.835 23.4475L198.235 23.8754L197.604 25.9411L193.656 24.7346L194.287 22.6689L195.665 23.0898L199.312 11.1547L197.935 10.7338L198.566 8.66812L200.884 9.37656L200.279 12.178L196.835 23.4475ZM225.21 20.9121L215.365 16.7713L213.365 21.5277L220.334 24.4588L219.496 26.4499L212.527 23.5188L210.527 28.2751L220.371 32.4159L219.534 34.407L208.694 29.8475L215.207 14.3616L226.048 18.9211L225.21 20.9121ZM228.469 25.3785L226.303 36.3159L227.032 36.6807L234.523 28.4042L236.133 29.2089L227.14 38.1297L225.101 37.1104L226.859 24.5738L228.469 25.3785ZM237.239 41.496C238.111 42.0031 238.91 42.2834 239.638 42.3368C240.38 42.3983 241.098 42.15 241.793 41.592L242.538 42.2201C241.799 43.3633 240.882 44.0327 239.787 44.2284C238.692 44.424 237.48 44.1355 236.153 43.3628C234.701 42.5176 233.834 41.3834 233.551 39.9602C233.269 38.5369 233.627 36.968 234.625 35.2533C235.623 33.5387 236.811 32.4526 238.188 31.9953C239.565 31.5379 240.979 31.7318 242.431 32.577C243.482 33.1887 244.213 33.8733 244.623 34.6307C245.056 35.3824 245.167 36.2892 244.956 37.3513C244.753 38.3996 244.209 39.6842 243.324 41.2053L235.213 36.4845C234.75 37.5664 234.725 38.5327 235.137 39.3834C235.557 40.2203 236.258 40.9245 237.239 41.496ZM241.344 34.4437C240.335 33.8562 239.344 33.6031 238.371 33.6847C237.406 33.7524 236.564 34.3083 235.845 35.3524L243.134 39.623C243.558 38.7036 243.733 37.926 243.659 37.2903C243.592 36.6408 243.357 36.1061 242.954 35.6861C242.572 35.2603 242.036 34.8462 241.344 34.4437ZM253.72 39.9148C255.158 40.874 255.945 41.9283 256.082 43.0777C256.228 44.2138 255.741 45.6203 254.622 47.2972L251.092 52.5874L250.094 51.9213L253.624 46.6311C254.157 45.8326 254.434 45.1426 254.457 44.5613C254.488 43.9667 254.333 43.4496 253.992 43.0102C253.664 42.5796 253.173 42.1467 252.521 41.7115C251.776 41.2142 251.117 40.8611 250.545 40.6522C249.986 40.4523 249.404 40.4587 248.801 40.6714C248.21 40.893 247.636 41.4231 247.076 42.2615L243.546 47.5518L242.528 46.8724L249.202 36.8708L250.02 37.417L248.635 39.9258L248.528 40.0855C250.113 38.7195 251.844 38.6626 253.72 39.9148ZM258.565 57.761C257.68 57.3942 256.982 57.0182 256.47 56.633C255.538 55.9301 255.13 55.1419 255.247 54.2686C255.377 53.4049 255.936 52.3038 256.925 50.9652L259.958 46.9402L257.965 45.438L259.265 43.713L261.258 45.2152L262.703 43.2985L263.805 43.829L262.217 45.9374L265.207 48.1906L263.907 49.9156L260.917 47.6624L257.883 51.6874C257.334 52.4158 257.039 53.0343 256.996 53.543C256.976 54.0486 257.202 54.4795 257.675 54.8358C258.045 55.115 258.558 55.3514 259.214 55.5449L258.565 57.761ZM263.432 56.8609C263.014 57.4295 262.932 58.0723 263.185 58.789C263.448 59.4935 264.063 60.2537 265.028 61.0696C266.067 61.9475 266.857 62.4999 267.398 62.727C267.94 62.9541 268.396 62.8476 268.768 62.4077C269.098 62.0166 269.166 61.6023 268.97 61.1645C268.787 60.7372 268.335 60.1563 267.615 59.422L266.422 58.1938C265.378 57.1233 264.827 56.1648 264.767 55.3183C264.719 54.4821 265.047 53.6485 265.749 52.8176C266.431 52.011 267.302 51.637 268.363 51.6956C269.446 51.7523 270.55 52.2557 271.674 53.2059C272.786 54.1457 273.377 55.169 273.448 56.2758C273.518 57.3825 273.075 58.4017 272.12 59.3334L271.279 58.842C271.837 58.0572 272 57.3566 271.767 56.7404C271.545 56.1346 271.05 55.5063 270.28 54.8556C269.217 53.9571 268.405 53.4178 267.845 53.2377C267.295 53.0454 266.866 53.1326 266.556 53.4992C266.256 53.8536 266.2 54.267 266.387 54.7395C266.597 55.2101 267.073 55.8116 267.816 56.544L268.988 57.723C269.93 58.6657 270.428 59.6003 270.483 60.5266C270.561 61.4511 270.264 62.3105 269.593 63.1048C268.829 64.0091 267.932 64.4249 266.905 64.3522C265.899 64.2777 264.804 63.7395 263.618 62.7377C262.323 61.6429 261.626 60.5718 261.527 59.5242C261.427 58.4767 261.782 57.4251 262.59 56.3695L263.432 56.8609Z" fill="white"/>
</svg>
